G04 #@! TF.GenerationSoftware,KiCad,Pcbnew,(5.1.8)-1*
G04 #@! TF.CreationDate,2021-04-28T16:49:30+01:00*
G04 #@! TF.ProjectId,Altair buffer,416c7461-6972-4206-9275-666665722e6b,rev?*
G04 #@! TF.SameCoordinates,Original*
G04 #@! TF.FileFunction,Paste,Top*
G04 #@! TF.FilePolarity,Positive*
%FSLAX46Y46*%
G04 Gerber Fmt 4.6, Leading zero omitted, Abs format (unit mm)*
G04 Created by KiCad (PCBNEW (5.1.8)-1) date 2021-04-28 16:49:30*
%MOMM*%
%LPD*%
G01*
G04 APERTURE LIST*
G04 APERTURE END LIST*
G36*
G01*
X144549000Y-92895000D02*
X144249000Y-92895000D01*
G75*
G02*
X144099000Y-92745000I0J150000D01*
G01*
X144099000Y-90995000D01*
G75*
G02*
X144249000Y-90845000I150000J0D01*
G01*
X144549000Y-90845000D01*
G75*
G02*
X144699000Y-90995000I0J-150000D01*
G01*
X144699000Y-92745000D01*
G75*
G02*
X144549000Y-92895000I-150000J0D01*
G01*
G37*
G36*
G01*
X145819000Y-92895000D02*
X145519000Y-92895000D01*
G75*
G02*
X145369000Y-92745000I0J150000D01*
G01*
X145369000Y-90995000D01*
G75*
G02*
X145519000Y-90845000I150000J0D01*
G01*
X145819000Y-90845000D01*
G75*
G02*
X145969000Y-90995000I0J-150000D01*
G01*
X145969000Y-92745000D01*
G75*
G02*
X145819000Y-92895000I-150000J0D01*
G01*
G37*
G36*
G01*
X147089000Y-92895000D02*
X146789000Y-92895000D01*
G75*
G02*
X146639000Y-92745000I0J150000D01*
G01*
X146639000Y-90995000D01*
G75*
G02*
X146789000Y-90845000I150000J0D01*
G01*
X147089000Y-90845000D01*
G75*
G02*
X147239000Y-90995000I0J-150000D01*
G01*
X147239000Y-92745000D01*
G75*
G02*
X147089000Y-92895000I-150000J0D01*
G01*
G37*
G36*
G01*
X148359000Y-92895000D02*
X148059000Y-92895000D01*
G75*
G02*
X147909000Y-92745000I0J150000D01*
G01*
X147909000Y-90995000D01*
G75*
G02*
X148059000Y-90845000I150000J0D01*
G01*
X148359000Y-90845000D01*
G75*
G02*
X148509000Y-90995000I0J-150000D01*
G01*
X148509000Y-92745000D01*
G75*
G02*
X148359000Y-92895000I-150000J0D01*
G01*
G37*
G36*
G01*
X149629000Y-92895000D02*
X149329000Y-92895000D01*
G75*
G02*
X149179000Y-92745000I0J150000D01*
G01*
X149179000Y-90995000D01*
G75*
G02*
X149329000Y-90845000I150000J0D01*
G01*
X149629000Y-90845000D01*
G75*
G02*
X149779000Y-90995000I0J-150000D01*
G01*
X149779000Y-92745000D01*
G75*
G02*
X149629000Y-92895000I-150000J0D01*
G01*
G37*
G36*
G01*
X150899000Y-92895000D02*
X150599000Y-92895000D01*
G75*
G02*
X150449000Y-92745000I0J150000D01*
G01*
X150449000Y-90995000D01*
G75*
G02*
X150599000Y-90845000I150000J0D01*
G01*
X150899000Y-90845000D01*
G75*
G02*
X151049000Y-90995000I0J-150000D01*
G01*
X151049000Y-92745000D01*
G75*
G02*
X150899000Y-92895000I-150000J0D01*
G01*
G37*
G36*
G01*
X152169000Y-92895000D02*
X151869000Y-92895000D01*
G75*
G02*
X151719000Y-92745000I0J150000D01*
G01*
X151719000Y-90995000D01*
G75*
G02*
X151869000Y-90845000I150000J0D01*
G01*
X152169000Y-90845000D01*
G75*
G02*
X152319000Y-90995000I0J-150000D01*
G01*
X152319000Y-92745000D01*
G75*
G02*
X152169000Y-92895000I-150000J0D01*
G01*
G37*
G36*
G01*
X153439000Y-92895000D02*
X153139000Y-92895000D01*
G75*
G02*
X152989000Y-92745000I0J150000D01*
G01*
X152989000Y-90995000D01*
G75*
G02*
X153139000Y-90845000I150000J0D01*
G01*
X153439000Y-90845000D01*
G75*
G02*
X153589000Y-90995000I0J-150000D01*
G01*
X153589000Y-92745000D01*
G75*
G02*
X153439000Y-92895000I-150000J0D01*
G01*
G37*
G36*
G01*
X154709000Y-92895000D02*
X154409000Y-92895000D01*
G75*
G02*
X154259000Y-92745000I0J150000D01*
G01*
X154259000Y-90995000D01*
G75*
G02*
X154409000Y-90845000I150000J0D01*
G01*
X154709000Y-90845000D01*
G75*
G02*
X154859000Y-90995000I0J-150000D01*
G01*
X154859000Y-92745000D01*
G75*
G02*
X154709000Y-92895000I-150000J0D01*
G01*
G37*
G36*
G01*
X155979000Y-92895000D02*
X155679000Y-92895000D01*
G75*
G02*
X155529000Y-92745000I0J150000D01*
G01*
X155529000Y-90995000D01*
G75*
G02*
X155679000Y-90845000I150000J0D01*
G01*
X155979000Y-90845000D01*
G75*
G02*
X156129000Y-90995000I0J-150000D01*
G01*
X156129000Y-92745000D01*
G75*
G02*
X155979000Y-92895000I-150000J0D01*
G01*
G37*
G36*
G01*
X155979000Y-102195000D02*
X155679000Y-102195000D01*
G75*
G02*
X155529000Y-102045000I0J150000D01*
G01*
X155529000Y-100295000D01*
G75*
G02*
X155679000Y-100145000I150000J0D01*
G01*
X155979000Y-100145000D01*
G75*
G02*
X156129000Y-100295000I0J-150000D01*
G01*
X156129000Y-102045000D01*
G75*
G02*
X155979000Y-102195000I-150000J0D01*
G01*
G37*
G36*
G01*
X154709000Y-102195000D02*
X154409000Y-102195000D01*
G75*
G02*
X154259000Y-102045000I0J150000D01*
G01*
X154259000Y-100295000D01*
G75*
G02*
X154409000Y-100145000I150000J0D01*
G01*
X154709000Y-100145000D01*
G75*
G02*
X154859000Y-100295000I0J-150000D01*
G01*
X154859000Y-102045000D01*
G75*
G02*
X154709000Y-102195000I-150000J0D01*
G01*
G37*
G36*
G01*
X153439000Y-102195000D02*
X153139000Y-102195000D01*
G75*
G02*
X152989000Y-102045000I0J150000D01*
G01*
X152989000Y-100295000D01*
G75*
G02*
X153139000Y-100145000I150000J0D01*
G01*
X153439000Y-100145000D01*
G75*
G02*
X153589000Y-100295000I0J-150000D01*
G01*
X153589000Y-102045000D01*
G75*
G02*
X153439000Y-102195000I-150000J0D01*
G01*
G37*
G36*
G01*
X152169000Y-102195000D02*
X151869000Y-102195000D01*
G75*
G02*
X151719000Y-102045000I0J150000D01*
G01*
X151719000Y-100295000D01*
G75*
G02*
X151869000Y-100145000I150000J0D01*
G01*
X152169000Y-100145000D01*
G75*
G02*
X152319000Y-100295000I0J-150000D01*
G01*
X152319000Y-102045000D01*
G75*
G02*
X152169000Y-102195000I-150000J0D01*
G01*
G37*
G36*
G01*
X150899000Y-102195000D02*
X150599000Y-102195000D01*
G75*
G02*
X150449000Y-102045000I0J150000D01*
G01*
X150449000Y-100295000D01*
G75*
G02*
X150599000Y-100145000I150000J0D01*
G01*
X150899000Y-100145000D01*
G75*
G02*
X151049000Y-100295000I0J-150000D01*
G01*
X151049000Y-102045000D01*
G75*
G02*
X150899000Y-102195000I-150000J0D01*
G01*
G37*
G36*
G01*
X149629000Y-102195000D02*
X149329000Y-102195000D01*
G75*
G02*
X149179000Y-102045000I0J150000D01*
G01*
X149179000Y-100295000D01*
G75*
G02*
X149329000Y-100145000I150000J0D01*
G01*
X149629000Y-100145000D01*
G75*
G02*
X149779000Y-100295000I0J-150000D01*
G01*
X149779000Y-102045000D01*
G75*
G02*
X149629000Y-102195000I-150000J0D01*
G01*
G37*
G36*
G01*
X148359000Y-102195000D02*
X148059000Y-102195000D01*
G75*
G02*
X147909000Y-102045000I0J150000D01*
G01*
X147909000Y-100295000D01*
G75*
G02*
X148059000Y-100145000I150000J0D01*
G01*
X148359000Y-100145000D01*
G75*
G02*
X148509000Y-100295000I0J-150000D01*
G01*
X148509000Y-102045000D01*
G75*
G02*
X148359000Y-102195000I-150000J0D01*
G01*
G37*
G36*
G01*
X147089000Y-102195000D02*
X146789000Y-102195000D01*
G75*
G02*
X146639000Y-102045000I0J150000D01*
G01*
X146639000Y-100295000D01*
G75*
G02*
X146789000Y-100145000I150000J0D01*
G01*
X147089000Y-100145000D01*
G75*
G02*
X147239000Y-100295000I0J-150000D01*
G01*
X147239000Y-102045000D01*
G75*
G02*
X147089000Y-102195000I-150000J0D01*
G01*
G37*
G36*
G01*
X145819000Y-102195000D02*
X145519000Y-102195000D01*
G75*
G02*
X145369000Y-102045000I0J150000D01*
G01*
X145369000Y-100295000D01*
G75*
G02*
X145519000Y-100145000I150000J0D01*
G01*
X145819000Y-100145000D01*
G75*
G02*
X145969000Y-100295000I0J-150000D01*
G01*
X145969000Y-102045000D01*
G75*
G02*
X145819000Y-102195000I-150000J0D01*
G01*
G37*
G36*
G01*
X144549000Y-102195000D02*
X144249000Y-102195000D01*
G75*
G02*
X144099000Y-102045000I0J150000D01*
G01*
X144099000Y-100295000D01*
G75*
G02*
X144249000Y-100145000I150000J0D01*
G01*
X144549000Y-100145000D01*
G75*
G02*
X144699000Y-100295000I0J-150000D01*
G01*
X144699000Y-102045000D01*
G75*
G02*
X144549000Y-102195000I-150000J0D01*
G01*
G37*
G36*
G01*
X122959000Y-93022000D02*
X122659000Y-93022000D01*
G75*
G02*
X122509000Y-92872000I0J150000D01*
G01*
X122509000Y-91122000D01*
G75*
G02*
X122659000Y-90972000I150000J0D01*
G01*
X122959000Y-90972000D01*
G75*
G02*
X123109000Y-91122000I0J-150000D01*
G01*
X123109000Y-92872000D01*
G75*
G02*
X122959000Y-93022000I-150000J0D01*
G01*
G37*
G36*
G01*
X124229000Y-93022000D02*
X123929000Y-93022000D01*
G75*
G02*
X123779000Y-92872000I0J150000D01*
G01*
X123779000Y-91122000D01*
G75*
G02*
X123929000Y-90972000I150000J0D01*
G01*
X124229000Y-90972000D01*
G75*
G02*
X124379000Y-91122000I0J-150000D01*
G01*
X124379000Y-92872000D01*
G75*
G02*
X124229000Y-93022000I-150000J0D01*
G01*
G37*
G36*
G01*
X125499000Y-93022000D02*
X125199000Y-93022000D01*
G75*
G02*
X125049000Y-92872000I0J150000D01*
G01*
X125049000Y-91122000D01*
G75*
G02*
X125199000Y-90972000I150000J0D01*
G01*
X125499000Y-90972000D01*
G75*
G02*
X125649000Y-91122000I0J-150000D01*
G01*
X125649000Y-92872000D01*
G75*
G02*
X125499000Y-93022000I-150000J0D01*
G01*
G37*
G36*
G01*
X126769000Y-93022000D02*
X126469000Y-93022000D01*
G75*
G02*
X126319000Y-92872000I0J150000D01*
G01*
X126319000Y-91122000D01*
G75*
G02*
X126469000Y-90972000I150000J0D01*
G01*
X126769000Y-90972000D01*
G75*
G02*
X126919000Y-91122000I0J-150000D01*
G01*
X126919000Y-92872000D01*
G75*
G02*
X126769000Y-93022000I-150000J0D01*
G01*
G37*
G36*
G01*
X128039000Y-93022000D02*
X127739000Y-93022000D01*
G75*
G02*
X127589000Y-92872000I0J150000D01*
G01*
X127589000Y-91122000D01*
G75*
G02*
X127739000Y-90972000I150000J0D01*
G01*
X128039000Y-90972000D01*
G75*
G02*
X128189000Y-91122000I0J-150000D01*
G01*
X128189000Y-92872000D01*
G75*
G02*
X128039000Y-93022000I-150000J0D01*
G01*
G37*
G36*
G01*
X129309000Y-93022000D02*
X129009000Y-93022000D01*
G75*
G02*
X128859000Y-92872000I0J150000D01*
G01*
X128859000Y-91122000D01*
G75*
G02*
X129009000Y-90972000I150000J0D01*
G01*
X129309000Y-90972000D01*
G75*
G02*
X129459000Y-91122000I0J-150000D01*
G01*
X129459000Y-92872000D01*
G75*
G02*
X129309000Y-93022000I-150000J0D01*
G01*
G37*
G36*
G01*
X130579000Y-93022000D02*
X130279000Y-93022000D01*
G75*
G02*
X130129000Y-92872000I0J150000D01*
G01*
X130129000Y-91122000D01*
G75*
G02*
X130279000Y-90972000I150000J0D01*
G01*
X130579000Y-90972000D01*
G75*
G02*
X130729000Y-91122000I0J-150000D01*
G01*
X130729000Y-92872000D01*
G75*
G02*
X130579000Y-93022000I-150000J0D01*
G01*
G37*
G36*
G01*
X131849000Y-93022000D02*
X131549000Y-93022000D01*
G75*
G02*
X131399000Y-92872000I0J150000D01*
G01*
X131399000Y-91122000D01*
G75*
G02*
X131549000Y-90972000I150000J0D01*
G01*
X131849000Y-90972000D01*
G75*
G02*
X131999000Y-91122000I0J-150000D01*
G01*
X131999000Y-92872000D01*
G75*
G02*
X131849000Y-93022000I-150000J0D01*
G01*
G37*
G36*
G01*
X133119000Y-93022000D02*
X132819000Y-93022000D01*
G75*
G02*
X132669000Y-92872000I0J150000D01*
G01*
X132669000Y-91122000D01*
G75*
G02*
X132819000Y-90972000I150000J0D01*
G01*
X133119000Y-90972000D01*
G75*
G02*
X133269000Y-91122000I0J-150000D01*
G01*
X133269000Y-92872000D01*
G75*
G02*
X133119000Y-93022000I-150000J0D01*
G01*
G37*
G36*
G01*
X134389000Y-93022000D02*
X134089000Y-93022000D01*
G75*
G02*
X133939000Y-92872000I0J150000D01*
G01*
X133939000Y-91122000D01*
G75*
G02*
X134089000Y-90972000I150000J0D01*
G01*
X134389000Y-90972000D01*
G75*
G02*
X134539000Y-91122000I0J-150000D01*
G01*
X134539000Y-92872000D01*
G75*
G02*
X134389000Y-93022000I-150000J0D01*
G01*
G37*
G36*
G01*
X134389000Y-102322000D02*
X134089000Y-102322000D01*
G75*
G02*
X133939000Y-102172000I0J150000D01*
G01*
X133939000Y-100422000D01*
G75*
G02*
X134089000Y-100272000I150000J0D01*
G01*
X134389000Y-100272000D01*
G75*
G02*
X134539000Y-100422000I0J-150000D01*
G01*
X134539000Y-102172000D01*
G75*
G02*
X134389000Y-102322000I-150000J0D01*
G01*
G37*
G36*
G01*
X133119000Y-102322000D02*
X132819000Y-102322000D01*
G75*
G02*
X132669000Y-102172000I0J150000D01*
G01*
X132669000Y-100422000D01*
G75*
G02*
X132819000Y-100272000I150000J0D01*
G01*
X133119000Y-100272000D01*
G75*
G02*
X133269000Y-100422000I0J-150000D01*
G01*
X133269000Y-102172000D01*
G75*
G02*
X133119000Y-102322000I-150000J0D01*
G01*
G37*
G36*
G01*
X131849000Y-102322000D02*
X131549000Y-102322000D01*
G75*
G02*
X131399000Y-102172000I0J150000D01*
G01*
X131399000Y-100422000D01*
G75*
G02*
X131549000Y-100272000I150000J0D01*
G01*
X131849000Y-100272000D01*
G75*
G02*
X131999000Y-100422000I0J-150000D01*
G01*
X131999000Y-102172000D01*
G75*
G02*
X131849000Y-102322000I-150000J0D01*
G01*
G37*
G36*
G01*
X130579000Y-102322000D02*
X130279000Y-102322000D01*
G75*
G02*
X130129000Y-102172000I0J150000D01*
G01*
X130129000Y-100422000D01*
G75*
G02*
X130279000Y-100272000I150000J0D01*
G01*
X130579000Y-100272000D01*
G75*
G02*
X130729000Y-100422000I0J-150000D01*
G01*
X130729000Y-102172000D01*
G75*
G02*
X130579000Y-102322000I-150000J0D01*
G01*
G37*
G36*
G01*
X129309000Y-102322000D02*
X129009000Y-102322000D01*
G75*
G02*
X128859000Y-102172000I0J150000D01*
G01*
X128859000Y-100422000D01*
G75*
G02*
X129009000Y-100272000I150000J0D01*
G01*
X129309000Y-100272000D01*
G75*
G02*
X129459000Y-100422000I0J-150000D01*
G01*
X129459000Y-102172000D01*
G75*
G02*
X129309000Y-102322000I-150000J0D01*
G01*
G37*
G36*
G01*
X128039000Y-102322000D02*
X127739000Y-102322000D01*
G75*
G02*
X127589000Y-102172000I0J150000D01*
G01*
X127589000Y-100422000D01*
G75*
G02*
X127739000Y-100272000I150000J0D01*
G01*
X128039000Y-100272000D01*
G75*
G02*
X128189000Y-100422000I0J-150000D01*
G01*
X128189000Y-102172000D01*
G75*
G02*
X128039000Y-102322000I-150000J0D01*
G01*
G37*
G36*
G01*
X126769000Y-102322000D02*
X126469000Y-102322000D01*
G75*
G02*
X126319000Y-102172000I0J150000D01*
G01*
X126319000Y-100422000D01*
G75*
G02*
X126469000Y-100272000I150000J0D01*
G01*
X126769000Y-100272000D01*
G75*
G02*
X126919000Y-100422000I0J-150000D01*
G01*
X126919000Y-102172000D01*
G75*
G02*
X126769000Y-102322000I-150000J0D01*
G01*
G37*
G36*
G01*
X125499000Y-102322000D02*
X125199000Y-102322000D01*
G75*
G02*
X125049000Y-102172000I0J150000D01*
G01*
X125049000Y-100422000D01*
G75*
G02*
X125199000Y-100272000I150000J0D01*
G01*
X125499000Y-100272000D01*
G75*
G02*
X125649000Y-100422000I0J-150000D01*
G01*
X125649000Y-102172000D01*
G75*
G02*
X125499000Y-102322000I-150000J0D01*
G01*
G37*
G36*
G01*
X124229000Y-102322000D02*
X123929000Y-102322000D01*
G75*
G02*
X123779000Y-102172000I0J150000D01*
G01*
X123779000Y-100422000D01*
G75*
G02*
X123929000Y-100272000I150000J0D01*
G01*
X124229000Y-100272000D01*
G75*
G02*
X124379000Y-100422000I0J-150000D01*
G01*
X124379000Y-102172000D01*
G75*
G02*
X124229000Y-102322000I-150000J0D01*
G01*
G37*
G36*
G01*
X122959000Y-102322000D02*
X122659000Y-102322000D01*
G75*
G02*
X122509000Y-102172000I0J150000D01*
G01*
X122509000Y-100422000D01*
G75*
G02*
X122659000Y-100272000I150000J0D01*
G01*
X122959000Y-100272000D01*
G75*
G02*
X123109000Y-100422000I0J-150000D01*
G01*
X123109000Y-102172000D01*
G75*
G02*
X122959000Y-102322000I-150000J0D01*
G01*
G37*
G36*
G01*
X79906000Y-93022000D02*
X79606000Y-93022000D01*
G75*
G02*
X79456000Y-92872000I0J150000D01*
G01*
X79456000Y-91122000D01*
G75*
G02*
X79606000Y-90972000I150000J0D01*
G01*
X79906000Y-90972000D01*
G75*
G02*
X80056000Y-91122000I0J-150000D01*
G01*
X80056000Y-92872000D01*
G75*
G02*
X79906000Y-93022000I-150000J0D01*
G01*
G37*
G36*
G01*
X81176000Y-93022000D02*
X80876000Y-93022000D01*
G75*
G02*
X80726000Y-92872000I0J150000D01*
G01*
X80726000Y-91122000D01*
G75*
G02*
X80876000Y-90972000I150000J0D01*
G01*
X81176000Y-90972000D01*
G75*
G02*
X81326000Y-91122000I0J-150000D01*
G01*
X81326000Y-92872000D01*
G75*
G02*
X81176000Y-93022000I-150000J0D01*
G01*
G37*
G36*
G01*
X82446000Y-93022000D02*
X82146000Y-93022000D01*
G75*
G02*
X81996000Y-92872000I0J150000D01*
G01*
X81996000Y-91122000D01*
G75*
G02*
X82146000Y-90972000I150000J0D01*
G01*
X82446000Y-90972000D01*
G75*
G02*
X82596000Y-91122000I0J-150000D01*
G01*
X82596000Y-92872000D01*
G75*
G02*
X82446000Y-93022000I-150000J0D01*
G01*
G37*
G36*
G01*
X83716000Y-93022000D02*
X83416000Y-93022000D01*
G75*
G02*
X83266000Y-92872000I0J150000D01*
G01*
X83266000Y-91122000D01*
G75*
G02*
X83416000Y-90972000I150000J0D01*
G01*
X83716000Y-90972000D01*
G75*
G02*
X83866000Y-91122000I0J-150000D01*
G01*
X83866000Y-92872000D01*
G75*
G02*
X83716000Y-93022000I-150000J0D01*
G01*
G37*
G36*
G01*
X84986000Y-93022000D02*
X84686000Y-93022000D01*
G75*
G02*
X84536000Y-92872000I0J150000D01*
G01*
X84536000Y-91122000D01*
G75*
G02*
X84686000Y-90972000I150000J0D01*
G01*
X84986000Y-90972000D01*
G75*
G02*
X85136000Y-91122000I0J-150000D01*
G01*
X85136000Y-92872000D01*
G75*
G02*
X84986000Y-93022000I-150000J0D01*
G01*
G37*
G36*
G01*
X86256000Y-93022000D02*
X85956000Y-93022000D01*
G75*
G02*
X85806000Y-92872000I0J150000D01*
G01*
X85806000Y-91122000D01*
G75*
G02*
X85956000Y-90972000I150000J0D01*
G01*
X86256000Y-90972000D01*
G75*
G02*
X86406000Y-91122000I0J-150000D01*
G01*
X86406000Y-92872000D01*
G75*
G02*
X86256000Y-93022000I-150000J0D01*
G01*
G37*
G36*
G01*
X87526000Y-93022000D02*
X87226000Y-93022000D01*
G75*
G02*
X87076000Y-92872000I0J150000D01*
G01*
X87076000Y-91122000D01*
G75*
G02*
X87226000Y-90972000I150000J0D01*
G01*
X87526000Y-90972000D01*
G75*
G02*
X87676000Y-91122000I0J-150000D01*
G01*
X87676000Y-92872000D01*
G75*
G02*
X87526000Y-93022000I-150000J0D01*
G01*
G37*
G36*
G01*
X88796000Y-93022000D02*
X88496000Y-93022000D01*
G75*
G02*
X88346000Y-92872000I0J150000D01*
G01*
X88346000Y-91122000D01*
G75*
G02*
X88496000Y-90972000I150000J0D01*
G01*
X88796000Y-90972000D01*
G75*
G02*
X88946000Y-91122000I0J-150000D01*
G01*
X88946000Y-92872000D01*
G75*
G02*
X88796000Y-93022000I-150000J0D01*
G01*
G37*
G36*
G01*
X90066000Y-93022000D02*
X89766000Y-93022000D01*
G75*
G02*
X89616000Y-92872000I0J150000D01*
G01*
X89616000Y-91122000D01*
G75*
G02*
X89766000Y-90972000I150000J0D01*
G01*
X90066000Y-90972000D01*
G75*
G02*
X90216000Y-91122000I0J-150000D01*
G01*
X90216000Y-92872000D01*
G75*
G02*
X90066000Y-93022000I-150000J0D01*
G01*
G37*
G36*
G01*
X91336000Y-93022000D02*
X91036000Y-93022000D01*
G75*
G02*
X90886000Y-92872000I0J150000D01*
G01*
X90886000Y-91122000D01*
G75*
G02*
X91036000Y-90972000I150000J0D01*
G01*
X91336000Y-90972000D01*
G75*
G02*
X91486000Y-91122000I0J-150000D01*
G01*
X91486000Y-92872000D01*
G75*
G02*
X91336000Y-93022000I-150000J0D01*
G01*
G37*
G36*
G01*
X91336000Y-102322000D02*
X91036000Y-102322000D01*
G75*
G02*
X90886000Y-102172000I0J150000D01*
G01*
X90886000Y-100422000D01*
G75*
G02*
X91036000Y-100272000I150000J0D01*
G01*
X91336000Y-100272000D01*
G75*
G02*
X91486000Y-100422000I0J-150000D01*
G01*
X91486000Y-102172000D01*
G75*
G02*
X91336000Y-102322000I-150000J0D01*
G01*
G37*
G36*
G01*
X90066000Y-102322000D02*
X89766000Y-102322000D01*
G75*
G02*
X89616000Y-102172000I0J150000D01*
G01*
X89616000Y-100422000D01*
G75*
G02*
X89766000Y-100272000I150000J0D01*
G01*
X90066000Y-100272000D01*
G75*
G02*
X90216000Y-100422000I0J-150000D01*
G01*
X90216000Y-102172000D01*
G75*
G02*
X90066000Y-102322000I-150000J0D01*
G01*
G37*
G36*
G01*
X88796000Y-102322000D02*
X88496000Y-102322000D01*
G75*
G02*
X88346000Y-102172000I0J150000D01*
G01*
X88346000Y-100422000D01*
G75*
G02*
X88496000Y-100272000I150000J0D01*
G01*
X88796000Y-100272000D01*
G75*
G02*
X88946000Y-100422000I0J-150000D01*
G01*
X88946000Y-102172000D01*
G75*
G02*
X88796000Y-102322000I-150000J0D01*
G01*
G37*
G36*
G01*
X87526000Y-102322000D02*
X87226000Y-102322000D01*
G75*
G02*
X87076000Y-102172000I0J150000D01*
G01*
X87076000Y-100422000D01*
G75*
G02*
X87226000Y-100272000I150000J0D01*
G01*
X87526000Y-100272000D01*
G75*
G02*
X87676000Y-100422000I0J-150000D01*
G01*
X87676000Y-102172000D01*
G75*
G02*
X87526000Y-102322000I-150000J0D01*
G01*
G37*
G36*
G01*
X86256000Y-102322000D02*
X85956000Y-102322000D01*
G75*
G02*
X85806000Y-102172000I0J150000D01*
G01*
X85806000Y-100422000D01*
G75*
G02*
X85956000Y-100272000I150000J0D01*
G01*
X86256000Y-100272000D01*
G75*
G02*
X86406000Y-100422000I0J-150000D01*
G01*
X86406000Y-102172000D01*
G75*
G02*
X86256000Y-102322000I-150000J0D01*
G01*
G37*
G36*
G01*
X84986000Y-102322000D02*
X84686000Y-102322000D01*
G75*
G02*
X84536000Y-102172000I0J150000D01*
G01*
X84536000Y-100422000D01*
G75*
G02*
X84686000Y-100272000I150000J0D01*
G01*
X84986000Y-100272000D01*
G75*
G02*
X85136000Y-100422000I0J-150000D01*
G01*
X85136000Y-102172000D01*
G75*
G02*
X84986000Y-102322000I-150000J0D01*
G01*
G37*
G36*
G01*
X83716000Y-102322000D02*
X83416000Y-102322000D01*
G75*
G02*
X83266000Y-102172000I0J150000D01*
G01*
X83266000Y-100422000D01*
G75*
G02*
X83416000Y-100272000I150000J0D01*
G01*
X83716000Y-100272000D01*
G75*
G02*
X83866000Y-100422000I0J-150000D01*
G01*
X83866000Y-102172000D01*
G75*
G02*
X83716000Y-102322000I-150000J0D01*
G01*
G37*
G36*
G01*
X82446000Y-102322000D02*
X82146000Y-102322000D01*
G75*
G02*
X81996000Y-102172000I0J150000D01*
G01*
X81996000Y-100422000D01*
G75*
G02*
X82146000Y-100272000I150000J0D01*
G01*
X82446000Y-100272000D01*
G75*
G02*
X82596000Y-100422000I0J-150000D01*
G01*
X82596000Y-102172000D01*
G75*
G02*
X82446000Y-102322000I-150000J0D01*
G01*
G37*
G36*
G01*
X81176000Y-102322000D02*
X80876000Y-102322000D01*
G75*
G02*
X80726000Y-102172000I0J150000D01*
G01*
X80726000Y-100422000D01*
G75*
G02*
X80876000Y-100272000I150000J0D01*
G01*
X81176000Y-100272000D01*
G75*
G02*
X81326000Y-100422000I0J-150000D01*
G01*
X81326000Y-102172000D01*
G75*
G02*
X81176000Y-102322000I-150000J0D01*
G01*
G37*
G36*
G01*
X79906000Y-102322000D02*
X79606000Y-102322000D01*
G75*
G02*
X79456000Y-102172000I0J150000D01*
G01*
X79456000Y-100422000D01*
G75*
G02*
X79606000Y-100272000I150000J0D01*
G01*
X79906000Y-100272000D01*
G75*
G02*
X80056000Y-100422000I0J-150000D01*
G01*
X80056000Y-102172000D01*
G75*
G02*
X79906000Y-102322000I-150000J0D01*
G01*
G37*
G36*
G01*
X101369000Y-92895000D02*
X101069000Y-92895000D01*
G75*
G02*
X100919000Y-92745000I0J150000D01*
G01*
X100919000Y-90995000D01*
G75*
G02*
X101069000Y-90845000I150000J0D01*
G01*
X101369000Y-90845000D01*
G75*
G02*
X101519000Y-90995000I0J-150000D01*
G01*
X101519000Y-92745000D01*
G75*
G02*
X101369000Y-92895000I-150000J0D01*
G01*
G37*
G36*
G01*
X102639000Y-92895000D02*
X102339000Y-92895000D01*
G75*
G02*
X102189000Y-92745000I0J150000D01*
G01*
X102189000Y-90995000D01*
G75*
G02*
X102339000Y-90845000I150000J0D01*
G01*
X102639000Y-90845000D01*
G75*
G02*
X102789000Y-90995000I0J-150000D01*
G01*
X102789000Y-92745000D01*
G75*
G02*
X102639000Y-92895000I-150000J0D01*
G01*
G37*
G36*
G01*
X103909000Y-92895000D02*
X103609000Y-92895000D01*
G75*
G02*
X103459000Y-92745000I0J150000D01*
G01*
X103459000Y-90995000D01*
G75*
G02*
X103609000Y-90845000I150000J0D01*
G01*
X103909000Y-90845000D01*
G75*
G02*
X104059000Y-90995000I0J-150000D01*
G01*
X104059000Y-92745000D01*
G75*
G02*
X103909000Y-92895000I-150000J0D01*
G01*
G37*
G36*
G01*
X105179000Y-92895000D02*
X104879000Y-92895000D01*
G75*
G02*
X104729000Y-92745000I0J150000D01*
G01*
X104729000Y-90995000D01*
G75*
G02*
X104879000Y-90845000I150000J0D01*
G01*
X105179000Y-90845000D01*
G75*
G02*
X105329000Y-90995000I0J-150000D01*
G01*
X105329000Y-92745000D01*
G75*
G02*
X105179000Y-92895000I-150000J0D01*
G01*
G37*
G36*
G01*
X106449000Y-92895000D02*
X106149000Y-92895000D01*
G75*
G02*
X105999000Y-92745000I0J150000D01*
G01*
X105999000Y-90995000D01*
G75*
G02*
X106149000Y-90845000I150000J0D01*
G01*
X106449000Y-90845000D01*
G75*
G02*
X106599000Y-90995000I0J-150000D01*
G01*
X106599000Y-92745000D01*
G75*
G02*
X106449000Y-92895000I-150000J0D01*
G01*
G37*
G36*
G01*
X107719000Y-92895000D02*
X107419000Y-92895000D01*
G75*
G02*
X107269000Y-92745000I0J150000D01*
G01*
X107269000Y-90995000D01*
G75*
G02*
X107419000Y-90845000I150000J0D01*
G01*
X107719000Y-90845000D01*
G75*
G02*
X107869000Y-90995000I0J-150000D01*
G01*
X107869000Y-92745000D01*
G75*
G02*
X107719000Y-92895000I-150000J0D01*
G01*
G37*
G36*
G01*
X108989000Y-92895000D02*
X108689000Y-92895000D01*
G75*
G02*
X108539000Y-92745000I0J150000D01*
G01*
X108539000Y-90995000D01*
G75*
G02*
X108689000Y-90845000I150000J0D01*
G01*
X108989000Y-90845000D01*
G75*
G02*
X109139000Y-90995000I0J-150000D01*
G01*
X109139000Y-92745000D01*
G75*
G02*
X108989000Y-92895000I-150000J0D01*
G01*
G37*
G36*
G01*
X110259000Y-92895000D02*
X109959000Y-92895000D01*
G75*
G02*
X109809000Y-92745000I0J150000D01*
G01*
X109809000Y-90995000D01*
G75*
G02*
X109959000Y-90845000I150000J0D01*
G01*
X110259000Y-90845000D01*
G75*
G02*
X110409000Y-90995000I0J-150000D01*
G01*
X110409000Y-92745000D01*
G75*
G02*
X110259000Y-92895000I-150000J0D01*
G01*
G37*
G36*
G01*
X111529000Y-92895000D02*
X111229000Y-92895000D01*
G75*
G02*
X111079000Y-92745000I0J150000D01*
G01*
X111079000Y-90995000D01*
G75*
G02*
X111229000Y-90845000I150000J0D01*
G01*
X111529000Y-90845000D01*
G75*
G02*
X111679000Y-90995000I0J-150000D01*
G01*
X111679000Y-92745000D01*
G75*
G02*
X111529000Y-92895000I-150000J0D01*
G01*
G37*
G36*
G01*
X112799000Y-92895000D02*
X112499000Y-92895000D01*
G75*
G02*
X112349000Y-92745000I0J150000D01*
G01*
X112349000Y-90995000D01*
G75*
G02*
X112499000Y-90845000I150000J0D01*
G01*
X112799000Y-90845000D01*
G75*
G02*
X112949000Y-90995000I0J-150000D01*
G01*
X112949000Y-92745000D01*
G75*
G02*
X112799000Y-92895000I-150000J0D01*
G01*
G37*
G36*
G01*
X112799000Y-102195000D02*
X112499000Y-102195000D01*
G75*
G02*
X112349000Y-102045000I0J150000D01*
G01*
X112349000Y-100295000D01*
G75*
G02*
X112499000Y-100145000I150000J0D01*
G01*
X112799000Y-100145000D01*
G75*
G02*
X112949000Y-100295000I0J-150000D01*
G01*
X112949000Y-102045000D01*
G75*
G02*
X112799000Y-102195000I-150000J0D01*
G01*
G37*
G36*
G01*
X111529000Y-102195000D02*
X111229000Y-102195000D01*
G75*
G02*
X111079000Y-102045000I0J150000D01*
G01*
X111079000Y-100295000D01*
G75*
G02*
X111229000Y-100145000I150000J0D01*
G01*
X111529000Y-100145000D01*
G75*
G02*
X111679000Y-100295000I0J-150000D01*
G01*
X111679000Y-102045000D01*
G75*
G02*
X111529000Y-102195000I-150000J0D01*
G01*
G37*
G36*
G01*
X110259000Y-102195000D02*
X109959000Y-102195000D01*
G75*
G02*
X109809000Y-102045000I0J150000D01*
G01*
X109809000Y-100295000D01*
G75*
G02*
X109959000Y-100145000I150000J0D01*
G01*
X110259000Y-100145000D01*
G75*
G02*
X110409000Y-100295000I0J-150000D01*
G01*
X110409000Y-102045000D01*
G75*
G02*
X110259000Y-102195000I-150000J0D01*
G01*
G37*
G36*
G01*
X108989000Y-102195000D02*
X108689000Y-102195000D01*
G75*
G02*
X108539000Y-102045000I0J150000D01*
G01*
X108539000Y-100295000D01*
G75*
G02*
X108689000Y-100145000I150000J0D01*
G01*
X108989000Y-100145000D01*
G75*
G02*
X109139000Y-100295000I0J-150000D01*
G01*
X109139000Y-102045000D01*
G75*
G02*
X108989000Y-102195000I-150000J0D01*
G01*
G37*
G36*
G01*
X107719000Y-102195000D02*
X107419000Y-102195000D01*
G75*
G02*
X107269000Y-102045000I0J150000D01*
G01*
X107269000Y-100295000D01*
G75*
G02*
X107419000Y-100145000I150000J0D01*
G01*
X107719000Y-100145000D01*
G75*
G02*
X107869000Y-100295000I0J-150000D01*
G01*
X107869000Y-102045000D01*
G75*
G02*
X107719000Y-102195000I-150000J0D01*
G01*
G37*
G36*
G01*
X106449000Y-102195000D02*
X106149000Y-102195000D01*
G75*
G02*
X105999000Y-102045000I0J150000D01*
G01*
X105999000Y-100295000D01*
G75*
G02*
X106149000Y-100145000I150000J0D01*
G01*
X106449000Y-100145000D01*
G75*
G02*
X106599000Y-100295000I0J-150000D01*
G01*
X106599000Y-102045000D01*
G75*
G02*
X106449000Y-102195000I-150000J0D01*
G01*
G37*
G36*
G01*
X105179000Y-102195000D02*
X104879000Y-102195000D01*
G75*
G02*
X104729000Y-102045000I0J150000D01*
G01*
X104729000Y-100295000D01*
G75*
G02*
X104879000Y-100145000I150000J0D01*
G01*
X105179000Y-100145000D01*
G75*
G02*
X105329000Y-100295000I0J-150000D01*
G01*
X105329000Y-102045000D01*
G75*
G02*
X105179000Y-102195000I-150000J0D01*
G01*
G37*
G36*
G01*
X103909000Y-102195000D02*
X103609000Y-102195000D01*
G75*
G02*
X103459000Y-102045000I0J150000D01*
G01*
X103459000Y-100295000D01*
G75*
G02*
X103609000Y-100145000I150000J0D01*
G01*
X103909000Y-100145000D01*
G75*
G02*
X104059000Y-100295000I0J-150000D01*
G01*
X104059000Y-102045000D01*
G75*
G02*
X103909000Y-102195000I-150000J0D01*
G01*
G37*
G36*
G01*
X102639000Y-102195000D02*
X102339000Y-102195000D01*
G75*
G02*
X102189000Y-102045000I0J150000D01*
G01*
X102189000Y-100295000D01*
G75*
G02*
X102339000Y-100145000I150000J0D01*
G01*
X102639000Y-100145000D01*
G75*
G02*
X102789000Y-100295000I0J-150000D01*
G01*
X102789000Y-102045000D01*
G75*
G02*
X102639000Y-102195000I-150000J0D01*
G01*
G37*
G36*
G01*
X101369000Y-102195000D02*
X101069000Y-102195000D01*
G75*
G02*
X100919000Y-102045000I0J150000D01*
G01*
X100919000Y-100295000D01*
G75*
G02*
X101069000Y-100145000I150000J0D01*
G01*
X101369000Y-100145000D01*
G75*
G02*
X101519000Y-100295000I0J-150000D01*
G01*
X101519000Y-102045000D01*
G75*
G02*
X101369000Y-102195000I-150000J0D01*
G01*
G37*
G36*
G01*
X59459000Y-93022000D02*
X59159000Y-93022000D01*
G75*
G02*
X59009000Y-92872000I0J150000D01*
G01*
X59009000Y-91122000D01*
G75*
G02*
X59159000Y-90972000I150000J0D01*
G01*
X59459000Y-90972000D01*
G75*
G02*
X59609000Y-91122000I0J-150000D01*
G01*
X59609000Y-92872000D01*
G75*
G02*
X59459000Y-93022000I-150000J0D01*
G01*
G37*
G36*
G01*
X60729000Y-93022000D02*
X60429000Y-93022000D01*
G75*
G02*
X60279000Y-92872000I0J150000D01*
G01*
X60279000Y-91122000D01*
G75*
G02*
X60429000Y-90972000I150000J0D01*
G01*
X60729000Y-90972000D01*
G75*
G02*
X60879000Y-91122000I0J-150000D01*
G01*
X60879000Y-92872000D01*
G75*
G02*
X60729000Y-93022000I-150000J0D01*
G01*
G37*
G36*
G01*
X61999000Y-93022000D02*
X61699000Y-93022000D01*
G75*
G02*
X61549000Y-92872000I0J150000D01*
G01*
X61549000Y-91122000D01*
G75*
G02*
X61699000Y-90972000I150000J0D01*
G01*
X61999000Y-90972000D01*
G75*
G02*
X62149000Y-91122000I0J-150000D01*
G01*
X62149000Y-92872000D01*
G75*
G02*
X61999000Y-93022000I-150000J0D01*
G01*
G37*
G36*
G01*
X63269000Y-93022000D02*
X62969000Y-93022000D01*
G75*
G02*
X62819000Y-92872000I0J150000D01*
G01*
X62819000Y-91122000D01*
G75*
G02*
X62969000Y-90972000I150000J0D01*
G01*
X63269000Y-90972000D01*
G75*
G02*
X63419000Y-91122000I0J-150000D01*
G01*
X63419000Y-92872000D01*
G75*
G02*
X63269000Y-93022000I-150000J0D01*
G01*
G37*
G36*
G01*
X64539000Y-93022000D02*
X64239000Y-93022000D01*
G75*
G02*
X64089000Y-92872000I0J150000D01*
G01*
X64089000Y-91122000D01*
G75*
G02*
X64239000Y-90972000I150000J0D01*
G01*
X64539000Y-90972000D01*
G75*
G02*
X64689000Y-91122000I0J-150000D01*
G01*
X64689000Y-92872000D01*
G75*
G02*
X64539000Y-93022000I-150000J0D01*
G01*
G37*
G36*
G01*
X65809000Y-93022000D02*
X65509000Y-93022000D01*
G75*
G02*
X65359000Y-92872000I0J150000D01*
G01*
X65359000Y-91122000D01*
G75*
G02*
X65509000Y-90972000I150000J0D01*
G01*
X65809000Y-90972000D01*
G75*
G02*
X65959000Y-91122000I0J-150000D01*
G01*
X65959000Y-92872000D01*
G75*
G02*
X65809000Y-93022000I-150000J0D01*
G01*
G37*
G36*
G01*
X67079000Y-93022000D02*
X66779000Y-93022000D01*
G75*
G02*
X66629000Y-92872000I0J150000D01*
G01*
X66629000Y-91122000D01*
G75*
G02*
X66779000Y-90972000I150000J0D01*
G01*
X67079000Y-90972000D01*
G75*
G02*
X67229000Y-91122000I0J-150000D01*
G01*
X67229000Y-92872000D01*
G75*
G02*
X67079000Y-93022000I-150000J0D01*
G01*
G37*
G36*
G01*
X68349000Y-93022000D02*
X68049000Y-93022000D01*
G75*
G02*
X67899000Y-92872000I0J150000D01*
G01*
X67899000Y-91122000D01*
G75*
G02*
X68049000Y-90972000I150000J0D01*
G01*
X68349000Y-90972000D01*
G75*
G02*
X68499000Y-91122000I0J-150000D01*
G01*
X68499000Y-92872000D01*
G75*
G02*
X68349000Y-93022000I-150000J0D01*
G01*
G37*
G36*
G01*
X69619000Y-93022000D02*
X69319000Y-93022000D01*
G75*
G02*
X69169000Y-92872000I0J150000D01*
G01*
X69169000Y-91122000D01*
G75*
G02*
X69319000Y-90972000I150000J0D01*
G01*
X69619000Y-90972000D01*
G75*
G02*
X69769000Y-91122000I0J-150000D01*
G01*
X69769000Y-92872000D01*
G75*
G02*
X69619000Y-93022000I-150000J0D01*
G01*
G37*
G36*
G01*
X70889000Y-93022000D02*
X70589000Y-93022000D01*
G75*
G02*
X70439000Y-92872000I0J150000D01*
G01*
X70439000Y-91122000D01*
G75*
G02*
X70589000Y-90972000I150000J0D01*
G01*
X70889000Y-90972000D01*
G75*
G02*
X71039000Y-91122000I0J-150000D01*
G01*
X71039000Y-92872000D01*
G75*
G02*
X70889000Y-93022000I-150000J0D01*
G01*
G37*
G36*
G01*
X70889000Y-102322000D02*
X70589000Y-102322000D01*
G75*
G02*
X70439000Y-102172000I0J150000D01*
G01*
X70439000Y-100422000D01*
G75*
G02*
X70589000Y-100272000I150000J0D01*
G01*
X70889000Y-100272000D01*
G75*
G02*
X71039000Y-100422000I0J-150000D01*
G01*
X71039000Y-102172000D01*
G75*
G02*
X70889000Y-102322000I-150000J0D01*
G01*
G37*
G36*
G01*
X69619000Y-102322000D02*
X69319000Y-102322000D01*
G75*
G02*
X69169000Y-102172000I0J150000D01*
G01*
X69169000Y-100422000D01*
G75*
G02*
X69319000Y-100272000I150000J0D01*
G01*
X69619000Y-100272000D01*
G75*
G02*
X69769000Y-100422000I0J-150000D01*
G01*
X69769000Y-102172000D01*
G75*
G02*
X69619000Y-102322000I-150000J0D01*
G01*
G37*
G36*
G01*
X68349000Y-102322000D02*
X68049000Y-102322000D01*
G75*
G02*
X67899000Y-102172000I0J150000D01*
G01*
X67899000Y-100422000D01*
G75*
G02*
X68049000Y-100272000I150000J0D01*
G01*
X68349000Y-100272000D01*
G75*
G02*
X68499000Y-100422000I0J-150000D01*
G01*
X68499000Y-102172000D01*
G75*
G02*
X68349000Y-102322000I-150000J0D01*
G01*
G37*
G36*
G01*
X67079000Y-102322000D02*
X66779000Y-102322000D01*
G75*
G02*
X66629000Y-102172000I0J150000D01*
G01*
X66629000Y-100422000D01*
G75*
G02*
X66779000Y-100272000I150000J0D01*
G01*
X67079000Y-100272000D01*
G75*
G02*
X67229000Y-100422000I0J-150000D01*
G01*
X67229000Y-102172000D01*
G75*
G02*
X67079000Y-102322000I-150000J0D01*
G01*
G37*
G36*
G01*
X65809000Y-102322000D02*
X65509000Y-102322000D01*
G75*
G02*
X65359000Y-102172000I0J150000D01*
G01*
X65359000Y-100422000D01*
G75*
G02*
X65509000Y-100272000I150000J0D01*
G01*
X65809000Y-100272000D01*
G75*
G02*
X65959000Y-100422000I0J-150000D01*
G01*
X65959000Y-102172000D01*
G75*
G02*
X65809000Y-102322000I-150000J0D01*
G01*
G37*
G36*
G01*
X64539000Y-102322000D02*
X64239000Y-102322000D01*
G75*
G02*
X64089000Y-102172000I0J150000D01*
G01*
X64089000Y-100422000D01*
G75*
G02*
X64239000Y-100272000I150000J0D01*
G01*
X64539000Y-100272000D01*
G75*
G02*
X64689000Y-100422000I0J-150000D01*
G01*
X64689000Y-102172000D01*
G75*
G02*
X64539000Y-102322000I-150000J0D01*
G01*
G37*
G36*
G01*
X63269000Y-102322000D02*
X62969000Y-102322000D01*
G75*
G02*
X62819000Y-102172000I0J150000D01*
G01*
X62819000Y-100422000D01*
G75*
G02*
X62969000Y-100272000I150000J0D01*
G01*
X63269000Y-100272000D01*
G75*
G02*
X63419000Y-100422000I0J-150000D01*
G01*
X63419000Y-102172000D01*
G75*
G02*
X63269000Y-102322000I-150000J0D01*
G01*
G37*
G36*
G01*
X61999000Y-102322000D02*
X61699000Y-102322000D01*
G75*
G02*
X61549000Y-102172000I0J150000D01*
G01*
X61549000Y-100422000D01*
G75*
G02*
X61699000Y-100272000I150000J0D01*
G01*
X61999000Y-100272000D01*
G75*
G02*
X62149000Y-100422000I0J-150000D01*
G01*
X62149000Y-102172000D01*
G75*
G02*
X61999000Y-102322000I-150000J0D01*
G01*
G37*
G36*
G01*
X60729000Y-102322000D02*
X60429000Y-102322000D01*
G75*
G02*
X60279000Y-102172000I0J150000D01*
G01*
X60279000Y-100422000D01*
G75*
G02*
X60429000Y-100272000I150000J0D01*
G01*
X60729000Y-100272000D01*
G75*
G02*
X60879000Y-100422000I0J-150000D01*
G01*
X60879000Y-102172000D01*
G75*
G02*
X60729000Y-102322000I-150000J0D01*
G01*
G37*
G36*
G01*
X59459000Y-102322000D02*
X59159000Y-102322000D01*
G75*
G02*
X59009000Y-102172000I0J150000D01*
G01*
X59009000Y-100422000D01*
G75*
G02*
X59159000Y-100272000I150000J0D01*
G01*
X59459000Y-100272000D01*
G75*
G02*
X59609000Y-100422000I0J-150000D01*
G01*
X59609000Y-102172000D01*
G75*
G02*
X59459000Y-102322000I-150000J0D01*
G01*
G37*
G36*
G01*
X158807999Y-87649000D02*
X159708001Y-87649000D01*
G75*
G02*
X159958000Y-87898999I0J-249999D01*
G01*
X159958000Y-88599001D01*
G75*
G02*
X159708001Y-88849000I-249999J0D01*
G01*
X158807999Y-88849000D01*
G75*
G02*
X158558000Y-88599001I0J249999D01*
G01*
X158558000Y-87898999D01*
G75*
G02*
X158807999Y-87649000I249999J0D01*
G01*
G37*
G36*
G01*
X158807999Y-85649000D02*
X159708001Y-85649000D01*
G75*
G02*
X159958000Y-85898999I0J-249999D01*
G01*
X159958000Y-86599001D01*
G75*
G02*
X159708001Y-86849000I-249999J0D01*
G01*
X158807999Y-86849000D01*
G75*
G02*
X158558000Y-86599001I0J249999D01*
G01*
X158558000Y-85898999D01*
G75*
G02*
X158807999Y-85649000I249999J0D01*
G01*
G37*
G36*
G01*
X156267999Y-87649000D02*
X157168001Y-87649000D01*
G75*
G02*
X157418000Y-87898999I0J-249999D01*
G01*
X157418000Y-88599001D01*
G75*
G02*
X157168001Y-88849000I-249999J0D01*
G01*
X156267999Y-88849000D01*
G75*
G02*
X156018000Y-88599001I0J249999D01*
G01*
X156018000Y-87898999D01*
G75*
G02*
X156267999Y-87649000I249999J0D01*
G01*
G37*
G36*
G01*
X156267999Y-85649000D02*
X157168001Y-85649000D01*
G75*
G02*
X157418000Y-85898999I0J-249999D01*
G01*
X157418000Y-86599001D01*
G75*
G02*
X157168001Y-86849000I-249999J0D01*
G01*
X156267999Y-86849000D01*
G75*
G02*
X156018000Y-86599001I0J249999D01*
G01*
X156018000Y-85898999D01*
G75*
G02*
X156267999Y-85649000I249999J0D01*
G01*
G37*
G36*
G01*
X153727999Y-87649000D02*
X154628001Y-87649000D01*
G75*
G02*
X154878000Y-87898999I0J-249999D01*
G01*
X154878000Y-88599001D01*
G75*
G02*
X154628001Y-88849000I-249999J0D01*
G01*
X153727999Y-88849000D01*
G75*
G02*
X153478000Y-88599001I0J249999D01*
G01*
X153478000Y-87898999D01*
G75*
G02*
X153727999Y-87649000I249999J0D01*
G01*
G37*
G36*
G01*
X153727999Y-85649000D02*
X154628001Y-85649000D01*
G75*
G02*
X154878000Y-85898999I0J-249999D01*
G01*
X154878000Y-86599001D01*
G75*
G02*
X154628001Y-86849000I-249999J0D01*
G01*
X153727999Y-86849000D01*
G75*
G02*
X153478000Y-86599001I0J249999D01*
G01*
X153478000Y-85898999D01*
G75*
G02*
X153727999Y-85649000I249999J0D01*
G01*
G37*
G36*
G01*
X151187999Y-87649000D02*
X152088001Y-87649000D01*
G75*
G02*
X152338000Y-87898999I0J-249999D01*
G01*
X152338000Y-88599001D01*
G75*
G02*
X152088001Y-88849000I-249999J0D01*
G01*
X151187999Y-88849000D01*
G75*
G02*
X150938000Y-88599001I0J249999D01*
G01*
X150938000Y-87898999D01*
G75*
G02*
X151187999Y-87649000I249999J0D01*
G01*
G37*
G36*
G01*
X151187999Y-85649000D02*
X152088001Y-85649000D01*
G75*
G02*
X152338000Y-85898999I0J-249999D01*
G01*
X152338000Y-86599001D01*
G75*
G02*
X152088001Y-86849000I-249999J0D01*
G01*
X151187999Y-86849000D01*
G75*
G02*
X150938000Y-86599001I0J249999D01*
G01*
X150938000Y-85898999D01*
G75*
G02*
X151187999Y-85649000I249999J0D01*
G01*
G37*
G36*
G01*
X148647999Y-87649000D02*
X149548001Y-87649000D01*
G75*
G02*
X149798000Y-87898999I0J-249999D01*
G01*
X149798000Y-88599001D01*
G75*
G02*
X149548001Y-88849000I-249999J0D01*
G01*
X148647999Y-88849000D01*
G75*
G02*
X148398000Y-88599001I0J249999D01*
G01*
X148398000Y-87898999D01*
G75*
G02*
X148647999Y-87649000I249999J0D01*
G01*
G37*
G36*
G01*
X148647999Y-85649000D02*
X149548001Y-85649000D01*
G75*
G02*
X149798000Y-85898999I0J-249999D01*
G01*
X149798000Y-86599001D01*
G75*
G02*
X149548001Y-86849000I-249999J0D01*
G01*
X148647999Y-86849000D01*
G75*
G02*
X148398000Y-86599001I0J249999D01*
G01*
X148398000Y-85898999D01*
G75*
G02*
X148647999Y-85649000I249999J0D01*
G01*
G37*
G36*
G01*
X146107999Y-87649000D02*
X147008001Y-87649000D01*
G75*
G02*
X147258000Y-87898999I0J-249999D01*
G01*
X147258000Y-88599001D01*
G75*
G02*
X147008001Y-88849000I-249999J0D01*
G01*
X146107999Y-88849000D01*
G75*
G02*
X145858000Y-88599001I0J249999D01*
G01*
X145858000Y-87898999D01*
G75*
G02*
X146107999Y-87649000I249999J0D01*
G01*
G37*
G36*
G01*
X146107999Y-85649000D02*
X147008001Y-85649000D01*
G75*
G02*
X147258000Y-85898999I0J-249999D01*
G01*
X147258000Y-86599001D01*
G75*
G02*
X147008001Y-86849000I-249999J0D01*
G01*
X146107999Y-86849000D01*
G75*
G02*
X145858000Y-86599001I0J249999D01*
G01*
X145858000Y-85898999D01*
G75*
G02*
X146107999Y-85649000I249999J0D01*
G01*
G37*
G36*
G01*
X143567999Y-87649000D02*
X144468001Y-87649000D01*
G75*
G02*
X144718000Y-87898999I0J-249999D01*
G01*
X144718000Y-88599001D01*
G75*
G02*
X144468001Y-88849000I-249999J0D01*
G01*
X143567999Y-88849000D01*
G75*
G02*
X143318000Y-88599001I0J249999D01*
G01*
X143318000Y-87898999D01*
G75*
G02*
X143567999Y-87649000I249999J0D01*
G01*
G37*
G36*
G01*
X143567999Y-85649000D02*
X144468001Y-85649000D01*
G75*
G02*
X144718000Y-85898999I0J-249999D01*
G01*
X144718000Y-86599001D01*
G75*
G02*
X144468001Y-86849000I-249999J0D01*
G01*
X143567999Y-86849000D01*
G75*
G02*
X143318000Y-86599001I0J249999D01*
G01*
X143318000Y-85898999D01*
G75*
G02*
X143567999Y-85649000I249999J0D01*
G01*
G37*
G36*
G01*
X141027999Y-87649000D02*
X141928001Y-87649000D01*
G75*
G02*
X142178000Y-87898999I0J-249999D01*
G01*
X142178000Y-88599001D01*
G75*
G02*
X141928001Y-88849000I-249999J0D01*
G01*
X141027999Y-88849000D01*
G75*
G02*
X140778000Y-88599001I0J249999D01*
G01*
X140778000Y-87898999D01*
G75*
G02*
X141027999Y-87649000I249999J0D01*
G01*
G37*
G36*
G01*
X141027999Y-85649000D02*
X141928001Y-85649000D01*
G75*
G02*
X142178000Y-85898999I0J-249999D01*
G01*
X142178000Y-86599001D01*
G75*
G02*
X141928001Y-86849000I-249999J0D01*
G01*
X141027999Y-86849000D01*
G75*
G02*
X140778000Y-86599001I0J249999D01*
G01*
X140778000Y-85898999D01*
G75*
G02*
X141027999Y-85649000I249999J0D01*
G01*
G37*
G36*
G01*
X137471999Y-87633000D02*
X138372001Y-87633000D01*
G75*
G02*
X138622000Y-87882999I0J-249999D01*
G01*
X138622000Y-88583001D01*
G75*
G02*
X138372001Y-88833000I-249999J0D01*
G01*
X137471999Y-88833000D01*
G75*
G02*
X137222000Y-88583001I0J249999D01*
G01*
X137222000Y-87882999D01*
G75*
G02*
X137471999Y-87633000I249999J0D01*
G01*
G37*
G36*
G01*
X137471999Y-85633000D02*
X138372001Y-85633000D01*
G75*
G02*
X138622000Y-85882999I0J-249999D01*
G01*
X138622000Y-86583001D01*
G75*
G02*
X138372001Y-86833000I-249999J0D01*
G01*
X137471999Y-86833000D01*
G75*
G02*
X137222000Y-86583001I0J249999D01*
G01*
X137222000Y-85882999D01*
G75*
G02*
X137471999Y-85633000I249999J0D01*
G01*
G37*
G36*
G01*
X134931999Y-87649000D02*
X135832001Y-87649000D01*
G75*
G02*
X136082000Y-87898999I0J-249999D01*
G01*
X136082000Y-88599001D01*
G75*
G02*
X135832001Y-88849000I-249999J0D01*
G01*
X134931999Y-88849000D01*
G75*
G02*
X134682000Y-88599001I0J249999D01*
G01*
X134682000Y-87898999D01*
G75*
G02*
X134931999Y-87649000I249999J0D01*
G01*
G37*
G36*
G01*
X134931999Y-85649000D02*
X135832001Y-85649000D01*
G75*
G02*
X136082000Y-85898999I0J-249999D01*
G01*
X136082000Y-86599001D01*
G75*
G02*
X135832001Y-86849000I-249999J0D01*
G01*
X134931999Y-86849000D01*
G75*
G02*
X134682000Y-86599001I0J249999D01*
G01*
X134682000Y-85898999D01*
G75*
G02*
X134931999Y-85649000I249999J0D01*
G01*
G37*
G36*
G01*
X132391999Y-87649000D02*
X133292001Y-87649000D01*
G75*
G02*
X133542000Y-87898999I0J-249999D01*
G01*
X133542000Y-88599001D01*
G75*
G02*
X133292001Y-88849000I-249999J0D01*
G01*
X132391999Y-88849000D01*
G75*
G02*
X132142000Y-88599001I0J249999D01*
G01*
X132142000Y-87898999D01*
G75*
G02*
X132391999Y-87649000I249999J0D01*
G01*
G37*
G36*
G01*
X132391999Y-85649000D02*
X133292001Y-85649000D01*
G75*
G02*
X133542000Y-85898999I0J-249999D01*
G01*
X133542000Y-86599001D01*
G75*
G02*
X133292001Y-86849000I-249999J0D01*
G01*
X132391999Y-86849000D01*
G75*
G02*
X132142000Y-86599001I0J249999D01*
G01*
X132142000Y-85898999D01*
G75*
G02*
X132391999Y-85649000I249999J0D01*
G01*
G37*
G36*
G01*
X129851999Y-87633000D02*
X130752001Y-87633000D01*
G75*
G02*
X131002000Y-87882999I0J-249999D01*
G01*
X131002000Y-88583001D01*
G75*
G02*
X130752001Y-88833000I-249999J0D01*
G01*
X129851999Y-88833000D01*
G75*
G02*
X129602000Y-88583001I0J249999D01*
G01*
X129602000Y-87882999D01*
G75*
G02*
X129851999Y-87633000I249999J0D01*
G01*
G37*
G36*
G01*
X129851999Y-85633000D02*
X130752001Y-85633000D01*
G75*
G02*
X131002000Y-85882999I0J-249999D01*
G01*
X131002000Y-86583001D01*
G75*
G02*
X130752001Y-86833000I-249999J0D01*
G01*
X129851999Y-86833000D01*
G75*
G02*
X129602000Y-86583001I0J249999D01*
G01*
X129602000Y-85882999D01*
G75*
G02*
X129851999Y-85633000I249999J0D01*
G01*
G37*
G36*
G01*
X127311999Y-87649000D02*
X128212001Y-87649000D01*
G75*
G02*
X128462000Y-87898999I0J-249999D01*
G01*
X128462000Y-88599001D01*
G75*
G02*
X128212001Y-88849000I-249999J0D01*
G01*
X127311999Y-88849000D01*
G75*
G02*
X127062000Y-88599001I0J249999D01*
G01*
X127062000Y-87898999D01*
G75*
G02*
X127311999Y-87649000I249999J0D01*
G01*
G37*
G36*
G01*
X127311999Y-85649000D02*
X128212001Y-85649000D01*
G75*
G02*
X128462000Y-85898999I0J-249999D01*
G01*
X128462000Y-86599001D01*
G75*
G02*
X128212001Y-86849000I-249999J0D01*
G01*
X127311999Y-86849000D01*
G75*
G02*
X127062000Y-86599001I0J249999D01*
G01*
X127062000Y-85898999D01*
G75*
G02*
X127311999Y-85649000I249999J0D01*
G01*
G37*
G36*
G01*
X124771999Y-87649000D02*
X125672001Y-87649000D01*
G75*
G02*
X125922000Y-87898999I0J-249999D01*
G01*
X125922000Y-88599001D01*
G75*
G02*
X125672001Y-88849000I-249999J0D01*
G01*
X124771999Y-88849000D01*
G75*
G02*
X124522000Y-88599001I0J249999D01*
G01*
X124522000Y-87898999D01*
G75*
G02*
X124771999Y-87649000I249999J0D01*
G01*
G37*
G36*
G01*
X124771999Y-85649000D02*
X125672001Y-85649000D01*
G75*
G02*
X125922000Y-85898999I0J-249999D01*
G01*
X125922000Y-86599001D01*
G75*
G02*
X125672001Y-86849000I-249999J0D01*
G01*
X124771999Y-86849000D01*
G75*
G02*
X124522000Y-86599001I0J249999D01*
G01*
X124522000Y-85898999D01*
G75*
G02*
X124771999Y-85649000I249999J0D01*
G01*
G37*
G36*
G01*
X122231999Y-87665000D02*
X123132001Y-87665000D01*
G75*
G02*
X123382000Y-87914999I0J-249999D01*
G01*
X123382000Y-88615001D01*
G75*
G02*
X123132001Y-88865000I-249999J0D01*
G01*
X122231999Y-88865000D01*
G75*
G02*
X121982000Y-88615001I0J249999D01*
G01*
X121982000Y-87914999D01*
G75*
G02*
X122231999Y-87665000I249999J0D01*
G01*
G37*
G36*
G01*
X122231999Y-85665000D02*
X123132001Y-85665000D01*
G75*
G02*
X123382000Y-85914999I0J-249999D01*
G01*
X123382000Y-86615001D01*
G75*
G02*
X123132001Y-86865000I-249999J0D01*
G01*
X122231999Y-86865000D01*
G75*
G02*
X121982000Y-86615001I0J249999D01*
G01*
X121982000Y-85914999D01*
G75*
G02*
X122231999Y-85665000I249999J0D01*
G01*
G37*
G36*
G01*
X119691999Y-87649000D02*
X120592001Y-87649000D01*
G75*
G02*
X120842000Y-87898999I0J-249999D01*
G01*
X120842000Y-88599001D01*
G75*
G02*
X120592001Y-88849000I-249999J0D01*
G01*
X119691999Y-88849000D01*
G75*
G02*
X119442000Y-88599001I0J249999D01*
G01*
X119442000Y-87898999D01*
G75*
G02*
X119691999Y-87649000I249999J0D01*
G01*
G37*
G36*
G01*
X119691999Y-85649000D02*
X120592001Y-85649000D01*
G75*
G02*
X120842000Y-85898999I0J-249999D01*
G01*
X120842000Y-86599001D01*
G75*
G02*
X120592001Y-86849000I-249999J0D01*
G01*
X119691999Y-86849000D01*
G75*
G02*
X119442000Y-86599001I0J249999D01*
G01*
X119442000Y-85898999D01*
G75*
G02*
X119691999Y-85649000I249999J0D01*
G01*
G37*
G36*
G01*
X94799999Y-87633000D02*
X95700001Y-87633000D01*
G75*
G02*
X95950000Y-87882999I0J-249999D01*
G01*
X95950000Y-88583001D01*
G75*
G02*
X95700001Y-88833000I-249999J0D01*
G01*
X94799999Y-88833000D01*
G75*
G02*
X94550000Y-88583001I0J249999D01*
G01*
X94550000Y-87882999D01*
G75*
G02*
X94799999Y-87633000I249999J0D01*
G01*
G37*
G36*
G01*
X94799999Y-85633000D02*
X95700001Y-85633000D01*
G75*
G02*
X95950000Y-85882999I0J-249999D01*
G01*
X95950000Y-86583001D01*
G75*
G02*
X95700001Y-86833000I-249999J0D01*
G01*
X94799999Y-86833000D01*
G75*
G02*
X94550000Y-86583001I0J249999D01*
G01*
X94550000Y-85882999D01*
G75*
G02*
X94799999Y-85633000I249999J0D01*
G01*
G37*
G36*
G01*
X92259999Y-87649000D02*
X93160001Y-87649000D01*
G75*
G02*
X93410000Y-87898999I0J-249999D01*
G01*
X93410000Y-88599001D01*
G75*
G02*
X93160001Y-88849000I-249999J0D01*
G01*
X92259999Y-88849000D01*
G75*
G02*
X92010000Y-88599001I0J249999D01*
G01*
X92010000Y-87898999D01*
G75*
G02*
X92259999Y-87649000I249999J0D01*
G01*
G37*
G36*
G01*
X92259999Y-85649000D02*
X93160001Y-85649000D01*
G75*
G02*
X93410000Y-85898999I0J-249999D01*
G01*
X93410000Y-86599001D01*
G75*
G02*
X93160001Y-86849000I-249999J0D01*
G01*
X92259999Y-86849000D01*
G75*
G02*
X92010000Y-86599001I0J249999D01*
G01*
X92010000Y-85898999D01*
G75*
G02*
X92259999Y-85649000I249999J0D01*
G01*
G37*
G36*
G01*
X89719999Y-87649000D02*
X90620001Y-87649000D01*
G75*
G02*
X90870000Y-87898999I0J-249999D01*
G01*
X90870000Y-88599001D01*
G75*
G02*
X90620001Y-88849000I-249999J0D01*
G01*
X89719999Y-88849000D01*
G75*
G02*
X89470000Y-88599001I0J249999D01*
G01*
X89470000Y-87898999D01*
G75*
G02*
X89719999Y-87649000I249999J0D01*
G01*
G37*
G36*
G01*
X89719999Y-85649000D02*
X90620001Y-85649000D01*
G75*
G02*
X90870000Y-85898999I0J-249999D01*
G01*
X90870000Y-86599001D01*
G75*
G02*
X90620001Y-86849000I-249999J0D01*
G01*
X89719999Y-86849000D01*
G75*
G02*
X89470000Y-86599001I0J249999D01*
G01*
X89470000Y-85898999D01*
G75*
G02*
X89719999Y-85649000I249999J0D01*
G01*
G37*
G36*
G01*
X87179999Y-87649000D02*
X88080001Y-87649000D01*
G75*
G02*
X88330000Y-87898999I0J-249999D01*
G01*
X88330000Y-88599001D01*
G75*
G02*
X88080001Y-88849000I-249999J0D01*
G01*
X87179999Y-88849000D01*
G75*
G02*
X86930000Y-88599001I0J249999D01*
G01*
X86930000Y-87898999D01*
G75*
G02*
X87179999Y-87649000I249999J0D01*
G01*
G37*
G36*
G01*
X87179999Y-85649000D02*
X88080001Y-85649000D01*
G75*
G02*
X88330000Y-85898999I0J-249999D01*
G01*
X88330000Y-86599001D01*
G75*
G02*
X88080001Y-86849000I-249999J0D01*
G01*
X87179999Y-86849000D01*
G75*
G02*
X86930000Y-86599001I0J249999D01*
G01*
X86930000Y-85898999D01*
G75*
G02*
X87179999Y-85649000I249999J0D01*
G01*
G37*
G36*
G01*
X84639999Y-87633000D02*
X85540001Y-87633000D01*
G75*
G02*
X85790000Y-87882999I0J-249999D01*
G01*
X85790000Y-88583001D01*
G75*
G02*
X85540001Y-88833000I-249999J0D01*
G01*
X84639999Y-88833000D01*
G75*
G02*
X84390000Y-88583001I0J249999D01*
G01*
X84390000Y-87882999D01*
G75*
G02*
X84639999Y-87633000I249999J0D01*
G01*
G37*
G36*
G01*
X84639999Y-85633000D02*
X85540001Y-85633000D01*
G75*
G02*
X85790000Y-85882999I0J-249999D01*
G01*
X85790000Y-86583001D01*
G75*
G02*
X85540001Y-86833000I-249999J0D01*
G01*
X84639999Y-86833000D01*
G75*
G02*
X84390000Y-86583001I0J249999D01*
G01*
X84390000Y-85882999D01*
G75*
G02*
X84639999Y-85633000I249999J0D01*
G01*
G37*
G36*
G01*
X82099999Y-87649000D02*
X83000001Y-87649000D01*
G75*
G02*
X83250000Y-87898999I0J-249999D01*
G01*
X83250000Y-88599001D01*
G75*
G02*
X83000001Y-88849000I-249999J0D01*
G01*
X82099999Y-88849000D01*
G75*
G02*
X81850000Y-88599001I0J249999D01*
G01*
X81850000Y-87898999D01*
G75*
G02*
X82099999Y-87649000I249999J0D01*
G01*
G37*
G36*
G01*
X82099999Y-85649000D02*
X83000001Y-85649000D01*
G75*
G02*
X83250000Y-85898999I0J-249999D01*
G01*
X83250000Y-86599001D01*
G75*
G02*
X83000001Y-86849000I-249999J0D01*
G01*
X82099999Y-86849000D01*
G75*
G02*
X81850000Y-86599001I0J249999D01*
G01*
X81850000Y-85898999D01*
G75*
G02*
X82099999Y-85649000I249999J0D01*
G01*
G37*
G36*
G01*
X79559999Y-87649000D02*
X80460001Y-87649000D01*
G75*
G02*
X80710000Y-87898999I0J-249999D01*
G01*
X80710000Y-88599001D01*
G75*
G02*
X80460001Y-88849000I-249999J0D01*
G01*
X79559999Y-88849000D01*
G75*
G02*
X79310000Y-88599001I0J249999D01*
G01*
X79310000Y-87898999D01*
G75*
G02*
X79559999Y-87649000I249999J0D01*
G01*
G37*
G36*
G01*
X79559999Y-85649000D02*
X80460001Y-85649000D01*
G75*
G02*
X80710000Y-85898999I0J-249999D01*
G01*
X80710000Y-86599001D01*
G75*
G02*
X80460001Y-86849000I-249999J0D01*
G01*
X79559999Y-86849000D01*
G75*
G02*
X79310000Y-86599001I0J249999D01*
G01*
X79310000Y-85898999D01*
G75*
G02*
X79559999Y-85649000I249999J0D01*
G01*
G37*
G36*
G01*
X77019999Y-87649000D02*
X77920001Y-87649000D01*
G75*
G02*
X78170000Y-87898999I0J-249999D01*
G01*
X78170000Y-88599001D01*
G75*
G02*
X77920001Y-88849000I-249999J0D01*
G01*
X77019999Y-88849000D01*
G75*
G02*
X76770000Y-88599001I0J249999D01*
G01*
X76770000Y-87898999D01*
G75*
G02*
X77019999Y-87649000I249999J0D01*
G01*
G37*
G36*
G01*
X77019999Y-85649000D02*
X77920001Y-85649000D01*
G75*
G02*
X78170000Y-85898999I0J-249999D01*
G01*
X78170000Y-86599001D01*
G75*
G02*
X77920001Y-86849000I-249999J0D01*
G01*
X77019999Y-86849000D01*
G75*
G02*
X76770000Y-86599001I0J249999D01*
G01*
X76770000Y-85898999D01*
G75*
G02*
X77019999Y-85649000I249999J0D01*
G01*
G37*
G36*
G01*
X116135999Y-87649000D02*
X117036001Y-87649000D01*
G75*
G02*
X117286000Y-87898999I0J-249999D01*
G01*
X117286000Y-88599001D01*
G75*
G02*
X117036001Y-88849000I-249999J0D01*
G01*
X116135999Y-88849000D01*
G75*
G02*
X115886000Y-88599001I0J249999D01*
G01*
X115886000Y-87898999D01*
G75*
G02*
X116135999Y-87649000I249999J0D01*
G01*
G37*
G36*
G01*
X116135999Y-85649000D02*
X117036001Y-85649000D01*
G75*
G02*
X117286000Y-85898999I0J-249999D01*
G01*
X117286000Y-86599001D01*
G75*
G02*
X117036001Y-86849000I-249999J0D01*
G01*
X116135999Y-86849000D01*
G75*
G02*
X115886000Y-86599001I0J249999D01*
G01*
X115886000Y-85898999D01*
G75*
G02*
X116135999Y-85649000I249999J0D01*
G01*
G37*
G36*
G01*
X113595999Y-87649000D02*
X114496001Y-87649000D01*
G75*
G02*
X114746000Y-87898999I0J-249999D01*
G01*
X114746000Y-88599001D01*
G75*
G02*
X114496001Y-88849000I-249999J0D01*
G01*
X113595999Y-88849000D01*
G75*
G02*
X113346000Y-88599001I0J249999D01*
G01*
X113346000Y-87898999D01*
G75*
G02*
X113595999Y-87649000I249999J0D01*
G01*
G37*
G36*
G01*
X113595999Y-85649000D02*
X114496001Y-85649000D01*
G75*
G02*
X114746000Y-85898999I0J-249999D01*
G01*
X114746000Y-86599001D01*
G75*
G02*
X114496001Y-86849000I-249999J0D01*
G01*
X113595999Y-86849000D01*
G75*
G02*
X113346000Y-86599001I0J249999D01*
G01*
X113346000Y-85898999D01*
G75*
G02*
X113595999Y-85649000I249999J0D01*
G01*
G37*
G36*
G01*
X111055999Y-87649000D02*
X111956001Y-87649000D01*
G75*
G02*
X112206000Y-87898999I0J-249999D01*
G01*
X112206000Y-88599001D01*
G75*
G02*
X111956001Y-88849000I-249999J0D01*
G01*
X111055999Y-88849000D01*
G75*
G02*
X110806000Y-88599001I0J249999D01*
G01*
X110806000Y-87898999D01*
G75*
G02*
X111055999Y-87649000I249999J0D01*
G01*
G37*
G36*
G01*
X111055999Y-85649000D02*
X111956001Y-85649000D01*
G75*
G02*
X112206000Y-85898999I0J-249999D01*
G01*
X112206000Y-86599001D01*
G75*
G02*
X111956001Y-86849000I-249999J0D01*
G01*
X111055999Y-86849000D01*
G75*
G02*
X110806000Y-86599001I0J249999D01*
G01*
X110806000Y-85898999D01*
G75*
G02*
X111055999Y-85649000I249999J0D01*
G01*
G37*
G36*
G01*
X108515999Y-87649000D02*
X109416001Y-87649000D01*
G75*
G02*
X109666000Y-87898999I0J-249999D01*
G01*
X109666000Y-88599001D01*
G75*
G02*
X109416001Y-88849000I-249999J0D01*
G01*
X108515999Y-88849000D01*
G75*
G02*
X108266000Y-88599001I0J249999D01*
G01*
X108266000Y-87898999D01*
G75*
G02*
X108515999Y-87649000I249999J0D01*
G01*
G37*
G36*
G01*
X108515999Y-85649000D02*
X109416001Y-85649000D01*
G75*
G02*
X109666000Y-85898999I0J-249999D01*
G01*
X109666000Y-86599001D01*
G75*
G02*
X109416001Y-86849000I-249999J0D01*
G01*
X108515999Y-86849000D01*
G75*
G02*
X108266000Y-86599001I0J249999D01*
G01*
X108266000Y-85898999D01*
G75*
G02*
X108515999Y-85649000I249999J0D01*
G01*
G37*
G36*
G01*
X105975999Y-87649000D02*
X106876001Y-87649000D01*
G75*
G02*
X107126000Y-87898999I0J-249999D01*
G01*
X107126000Y-88599001D01*
G75*
G02*
X106876001Y-88849000I-249999J0D01*
G01*
X105975999Y-88849000D01*
G75*
G02*
X105726000Y-88599001I0J249999D01*
G01*
X105726000Y-87898999D01*
G75*
G02*
X105975999Y-87649000I249999J0D01*
G01*
G37*
G36*
G01*
X105975999Y-85649000D02*
X106876001Y-85649000D01*
G75*
G02*
X107126000Y-85898999I0J-249999D01*
G01*
X107126000Y-86599001D01*
G75*
G02*
X106876001Y-86849000I-249999J0D01*
G01*
X105975999Y-86849000D01*
G75*
G02*
X105726000Y-86599001I0J249999D01*
G01*
X105726000Y-85898999D01*
G75*
G02*
X105975999Y-85649000I249999J0D01*
G01*
G37*
G36*
G01*
X103435999Y-87649000D02*
X104336001Y-87649000D01*
G75*
G02*
X104586000Y-87898999I0J-249999D01*
G01*
X104586000Y-88599001D01*
G75*
G02*
X104336001Y-88849000I-249999J0D01*
G01*
X103435999Y-88849000D01*
G75*
G02*
X103186000Y-88599001I0J249999D01*
G01*
X103186000Y-87898999D01*
G75*
G02*
X103435999Y-87649000I249999J0D01*
G01*
G37*
G36*
G01*
X103435999Y-85649000D02*
X104336001Y-85649000D01*
G75*
G02*
X104586000Y-85898999I0J-249999D01*
G01*
X104586000Y-86599001D01*
G75*
G02*
X104336001Y-86849000I-249999J0D01*
G01*
X103435999Y-86849000D01*
G75*
G02*
X103186000Y-86599001I0J249999D01*
G01*
X103186000Y-85898999D01*
G75*
G02*
X103435999Y-85649000I249999J0D01*
G01*
G37*
G36*
G01*
X100895999Y-87649000D02*
X101796001Y-87649000D01*
G75*
G02*
X102046000Y-87898999I0J-249999D01*
G01*
X102046000Y-88599001D01*
G75*
G02*
X101796001Y-88849000I-249999J0D01*
G01*
X100895999Y-88849000D01*
G75*
G02*
X100646000Y-88599001I0J249999D01*
G01*
X100646000Y-87898999D01*
G75*
G02*
X100895999Y-87649000I249999J0D01*
G01*
G37*
G36*
G01*
X100895999Y-85649000D02*
X101796001Y-85649000D01*
G75*
G02*
X102046000Y-85898999I0J-249999D01*
G01*
X102046000Y-86599001D01*
G75*
G02*
X101796001Y-86849000I-249999J0D01*
G01*
X100895999Y-86849000D01*
G75*
G02*
X100646000Y-86599001I0J249999D01*
G01*
X100646000Y-85898999D01*
G75*
G02*
X100895999Y-85649000I249999J0D01*
G01*
G37*
G36*
G01*
X98355999Y-87649000D02*
X99256001Y-87649000D01*
G75*
G02*
X99506000Y-87898999I0J-249999D01*
G01*
X99506000Y-88599001D01*
G75*
G02*
X99256001Y-88849000I-249999J0D01*
G01*
X98355999Y-88849000D01*
G75*
G02*
X98106000Y-88599001I0J249999D01*
G01*
X98106000Y-87898999D01*
G75*
G02*
X98355999Y-87649000I249999J0D01*
G01*
G37*
G36*
G01*
X98355999Y-85649000D02*
X99256001Y-85649000D01*
G75*
G02*
X99506000Y-85898999I0J-249999D01*
G01*
X99506000Y-86599001D01*
G75*
G02*
X99256001Y-86849000I-249999J0D01*
G01*
X98355999Y-86849000D01*
G75*
G02*
X98106000Y-86599001I0J249999D01*
G01*
X98106000Y-85898999D01*
G75*
G02*
X98355999Y-85649000I249999J0D01*
G01*
G37*
G36*
G01*
X73463999Y-87649000D02*
X74364001Y-87649000D01*
G75*
G02*
X74614000Y-87898999I0J-249999D01*
G01*
X74614000Y-88599001D01*
G75*
G02*
X74364001Y-88849000I-249999J0D01*
G01*
X73463999Y-88849000D01*
G75*
G02*
X73214000Y-88599001I0J249999D01*
G01*
X73214000Y-87898999D01*
G75*
G02*
X73463999Y-87649000I249999J0D01*
G01*
G37*
G36*
G01*
X73463999Y-85649000D02*
X74364001Y-85649000D01*
G75*
G02*
X74614000Y-85898999I0J-249999D01*
G01*
X74614000Y-86599001D01*
G75*
G02*
X74364001Y-86849000I-249999J0D01*
G01*
X73463999Y-86849000D01*
G75*
G02*
X73214000Y-86599001I0J249999D01*
G01*
X73214000Y-85898999D01*
G75*
G02*
X73463999Y-85649000I249999J0D01*
G01*
G37*
G36*
G01*
X70923999Y-87649000D02*
X71824001Y-87649000D01*
G75*
G02*
X72074000Y-87898999I0J-249999D01*
G01*
X72074000Y-88599001D01*
G75*
G02*
X71824001Y-88849000I-249999J0D01*
G01*
X70923999Y-88849000D01*
G75*
G02*
X70674000Y-88599001I0J249999D01*
G01*
X70674000Y-87898999D01*
G75*
G02*
X70923999Y-87649000I249999J0D01*
G01*
G37*
G36*
G01*
X70923999Y-85649000D02*
X71824001Y-85649000D01*
G75*
G02*
X72074000Y-85898999I0J-249999D01*
G01*
X72074000Y-86599001D01*
G75*
G02*
X71824001Y-86849000I-249999J0D01*
G01*
X70923999Y-86849000D01*
G75*
G02*
X70674000Y-86599001I0J249999D01*
G01*
X70674000Y-85898999D01*
G75*
G02*
X70923999Y-85649000I249999J0D01*
G01*
G37*
G36*
G01*
X68383999Y-87649000D02*
X69284001Y-87649000D01*
G75*
G02*
X69534000Y-87898999I0J-249999D01*
G01*
X69534000Y-88599001D01*
G75*
G02*
X69284001Y-88849000I-249999J0D01*
G01*
X68383999Y-88849000D01*
G75*
G02*
X68134000Y-88599001I0J249999D01*
G01*
X68134000Y-87898999D01*
G75*
G02*
X68383999Y-87649000I249999J0D01*
G01*
G37*
G36*
G01*
X68383999Y-85649000D02*
X69284001Y-85649000D01*
G75*
G02*
X69534000Y-85898999I0J-249999D01*
G01*
X69534000Y-86599001D01*
G75*
G02*
X69284001Y-86849000I-249999J0D01*
G01*
X68383999Y-86849000D01*
G75*
G02*
X68134000Y-86599001I0J249999D01*
G01*
X68134000Y-85898999D01*
G75*
G02*
X68383999Y-85649000I249999J0D01*
G01*
G37*
G36*
G01*
X65843999Y-87633000D02*
X66744001Y-87633000D01*
G75*
G02*
X66994000Y-87882999I0J-249999D01*
G01*
X66994000Y-88583001D01*
G75*
G02*
X66744001Y-88833000I-249999J0D01*
G01*
X65843999Y-88833000D01*
G75*
G02*
X65594000Y-88583001I0J249999D01*
G01*
X65594000Y-87882999D01*
G75*
G02*
X65843999Y-87633000I249999J0D01*
G01*
G37*
G36*
G01*
X65843999Y-85633000D02*
X66744001Y-85633000D01*
G75*
G02*
X66994000Y-85882999I0J-249999D01*
G01*
X66994000Y-86583001D01*
G75*
G02*
X66744001Y-86833000I-249999J0D01*
G01*
X65843999Y-86833000D01*
G75*
G02*
X65594000Y-86583001I0J249999D01*
G01*
X65594000Y-85882999D01*
G75*
G02*
X65843999Y-85633000I249999J0D01*
G01*
G37*
G36*
G01*
X63303999Y-87649000D02*
X64204001Y-87649000D01*
G75*
G02*
X64454000Y-87898999I0J-249999D01*
G01*
X64454000Y-88599001D01*
G75*
G02*
X64204001Y-88849000I-249999J0D01*
G01*
X63303999Y-88849000D01*
G75*
G02*
X63054000Y-88599001I0J249999D01*
G01*
X63054000Y-87898999D01*
G75*
G02*
X63303999Y-87649000I249999J0D01*
G01*
G37*
G36*
G01*
X63303999Y-85649000D02*
X64204001Y-85649000D01*
G75*
G02*
X64454000Y-85898999I0J-249999D01*
G01*
X64454000Y-86599001D01*
G75*
G02*
X64204001Y-86849000I-249999J0D01*
G01*
X63303999Y-86849000D01*
G75*
G02*
X63054000Y-86599001I0J249999D01*
G01*
X63054000Y-85898999D01*
G75*
G02*
X63303999Y-85649000I249999J0D01*
G01*
G37*
G36*
G01*
X60763999Y-87649000D02*
X61664001Y-87649000D01*
G75*
G02*
X61914000Y-87898999I0J-249999D01*
G01*
X61914000Y-88599001D01*
G75*
G02*
X61664001Y-88849000I-249999J0D01*
G01*
X60763999Y-88849000D01*
G75*
G02*
X60514000Y-88599001I0J249999D01*
G01*
X60514000Y-87898999D01*
G75*
G02*
X60763999Y-87649000I249999J0D01*
G01*
G37*
G36*
G01*
X60763999Y-85649000D02*
X61664001Y-85649000D01*
G75*
G02*
X61914000Y-85898999I0J-249999D01*
G01*
X61914000Y-86599001D01*
G75*
G02*
X61664001Y-86849000I-249999J0D01*
G01*
X60763999Y-86849000D01*
G75*
G02*
X60514000Y-86599001I0J249999D01*
G01*
X60514000Y-85898999D01*
G75*
G02*
X60763999Y-85649000I249999J0D01*
G01*
G37*
G36*
G01*
X58223999Y-87633000D02*
X59124001Y-87633000D01*
G75*
G02*
X59374000Y-87882999I0J-249999D01*
G01*
X59374000Y-88583001D01*
G75*
G02*
X59124001Y-88833000I-249999J0D01*
G01*
X58223999Y-88833000D01*
G75*
G02*
X57974000Y-88583001I0J249999D01*
G01*
X57974000Y-87882999D01*
G75*
G02*
X58223999Y-87633000I249999J0D01*
G01*
G37*
G36*
G01*
X58223999Y-85633000D02*
X59124001Y-85633000D01*
G75*
G02*
X59374000Y-85882999I0J-249999D01*
G01*
X59374000Y-86583001D01*
G75*
G02*
X59124001Y-86833000I-249999J0D01*
G01*
X58223999Y-86833000D01*
G75*
G02*
X57974000Y-86583001I0J249999D01*
G01*
X57974000Y-85882999D01*
G75*
G02*
X58223999Y-85633000I249999J0D01*
G01*
G37*
G36*
G01*
X55683999Y-87633000D02*
X56584001Y-87633000D01*
G75*
G02*
X56834000Y-87882999I0J-249999D01*
G01*
X56834000Y-88583001D01*
G75*
G02*
X56584001Y-88833000I-249999J0D01*
G01*
X55683999Y-88833000D01*
G75*
G02*
X55434000Y-88583001I0J249999D01*
G01*
X55434000Y-87882999D01*
G75*
G02*
X55683999Y-87633000I249999J0D01*
G01*
G37*
G36*
G01*
X55683999Y-85633000D02*
X56584001Y-85633000D01*
G75*
G02*
X56834000Y-85882999I0J-249999D01*
G01*
X56834000Y-86583001D01*
G75*
G02*
X56584001Y-86833000I-249999J0D01*
G01*
X55683999Y-86833000D01*
G75*
G02*
X55434000Y-86583001I0J249999D01*
G01*
X55434000Y-85882999D01*
G75*
G02*
X55683999Y-85633000I249999J0D01*
G01*
G37*
G36*
G01*
X141535999Y-93795000D02*
X142436001Y-93795000D01*
G75*
G02*
X142686000Y-94044999I0J-249999D01*
G01*
X142686000Y-94695001D01*
G75*
G02*
X142436001Y-94945000I-249999J0D01*
G01*
X141535999Y-94945000D01*
G75*
G02*
X141286000Y-94695001I0J249999D01*
G01*
X141286000Y-94044999D01*
G75*
G02*
X141535999Y-93795000I249999J0D01*
G01*
G37*
G36*
G01*
X141535999Y-91745000D02*
X142436001Y-91745000D01*
G75*
G02*
X142686000Y-91994999I0J-249999D01*
G01*
X142686000Y-92645001D01*
G75*
G02*
X142436001Y-92895000I-249999J0D01*
G01*
X141535999Y-92895000D01*
G75*
G02*
X141286000Y-92645001I0J249999D01*
G01*
X141286000Y-91994999D01*
G75*
G02*
X141535999Y-91745000I249999J0D01*
G01*
G37*
G36*
G01*
X120326999Y-93541000D02*
X121227001Y-93541000D01*
G75*
G02*
X121477000Y-93790999I0J-249999D01*
G01*
X121477000Y-94441001D01*
G75*
G02*
X121227001Y-94691000I-249999J0D01*
G01*
X120326999Y-94691000D01*
G75*
G02*
X120077000Y-94441001I0J249999D01*
G01*
X120077000Y-93790999D01*
G75*
G02*
X120326999Y-93541000I249999J0D01*
G01*
G37*
G36*
G01*
X120326999Y-91491000D02*
X121227001Y-91491000D01*
G75*
G02*
X121477000Y-91740999I0J-249999D01*
G01*
X121477000Y-92391001D01*
G75*
G02*
X121227001Y-92641000I-249999J0D01*
G01*
X120326999Y-92641000D01*
G75*
G02*
X120077000Y-92391001I0J249999D01*
G01*
X120077000Y-91740999D01*
G75*
G02*
X120326999Y-91491000I249999J0D01*
G01*
G37*
G36*
G01*
X77019999Y-93922000D02*
X77920001Y-93922000D01*
G75*
G02*
X78170000Y-94171999I0J-249999D01*
G01*
X78170000Y-94822001D01*
G75*
G02*
X77920001Y-95072000I-249999J0D01*
G01*
X77019999Y-95072000D01*
G75*
G02*
X76770000Y-94822001I0J249999D01*
G01*
X76770000Y-94171999D01*
G75*
G02*
X77019999Y-93922000I249999J0D01*
G01*
G37*
G36*
G01*
X77019999Y-91872000D02*
X77920001Y-91872000D01*
G75*
G02*
X78170000Y-92121999I0J-249999D01*
G01*
X78170000Y-92772001D01*
G75*
G02*
X77920001Y-93022000I-249999J0D01*
G01*
X77019999Y-93022000D01*
G75*
G02*
X76770000Y-92772001I0J249999D01*
G01*
X76770000Y-92121999D01*
G75*
G02*
X77019999Y-91872000I249999J0D01*
G01*
G37*
G36*
G01*
X98482999Y-93423000D02*
X99383001Y-93423000D01*
G75*
G02*
X99633000Y-93672999I0J-249999D01*
G01*
X99633000Y-94323001D01*
G75*
G02*
X99383001Y-94573000I-249999J0D01*
G01*
X98482999Y-94573000D01*
G75*
G02*
X98233000Y-94323001I0J249999D01*
G01*
X98233000Y-93672999D01*
G75*
G02*
X98482999Y-93423000I249999J0D01*
G01*
G37*
G36*
G01*
X98482999Y-91373000D02*
X99383001Y-91373000D01*
G75*
G02*
X99633000Y-91622999I0J-249999D01*
G01*
X99633000Y-92273001D01*
G75*
G02*
X99383001Y-92523000I-249999J0D01*
G01*
X98482999Y-92523000D01*
G75*
G02*
X98233000Y-92273001I0J249999D01*
G01*
X98233000Y-91622999D01*
G75*
G02*
X98482999Y-91373000I249999J0D01*
G01*
G37*
G36*
G01*
X56572999Y-93922000D02*
X57473001Y-93922000D01*
G75*
G02*
X57723000Y-94171999I0J-249999D01*
G01*
X57723000Y-94822001D01*
G75*
G02*
X57473001Y-95072000I-249999J0D01*
G01*
X56572999Y-95072000D01*
G75*
G02*
X56323000Y-94822001I0J249999D01*
G01*
X56323000Y-94171999D01*
G75*
G02*
X56572999Y-93922000I249999J0D01*
G01*
G37*
G36*
G01*
X56572999Y-91872000D02*
X57473001Y-91872000D01*
G75*
G02*
X57723000Y-92121999I0J-249999D01*
G01*
X57723000Y-92772001D01*
G75*
G02*
X57473001Y-93022000I-249999J0D01*
G01*
X56572999Y-93022000D01*
G75*
G02*
X56323000Y-92772001I0J249999D01*
G01*
X56323000Y-92121999D01*
G75*
G02*
X56572999Y-91872000I249999J0D01*
G01*
G37*
M02*
