G04 #@! TF.GenerationSoftware,KiCad,Pcbnew,(5.1.8)-1*
G04 #@! TF.CreationDate,2021-04-28T16:49:30+01:00*
G04 #@! TF.ProjectId,Altair buffer,416c7461-6972-4206-9275-666665722e6b,rev?*
G04 #@! TF.SameCoordinates,Original*
G04 #@! TF.FileFunction,Copper,L2,Bot*
G04 #@! TF.FilePolarity,Positive*
%FSLAX46Y46*%
G04 Gerber Fmt 4.6, Leading zero omitted, Abs format (unit mm)*
G04 Created by KiCad (PCBNEW (5.1.8)-1) date 2021-04-28 16:49:30*
%MOMM*%
%LPD*%
G01*
G04 APERTURE LIST*
G04 #@! TA.AperFunction,ComponentPad*
%ADD10O,1.700000X1.700000*%
G04 #@! TD*
G04 #@! TA.AperFunction,ComponentPad*
%ADD11R,1.700000X1.700000*%
G04 #@! TD*
G04 #@! TA.AperFunction,ComponentPad*
%ADD12C,5.600000*%
G04 #@! TD*
G04 #@! TA.AperFunction,ComponentPad*
%ADD13C,1.600000*%
G04 #@! TD*
G04 #@! TA.AperFunction,ComponentPad*
%ADD14R,1.600000X1.600000*%
G04 #@! TD*
G04 #@! TA.AperFunction,ViaPad*
%ADD15C,0.800000*%
G04 #@! TD*
G04 #@! TA.AperFunction,Conductor*
%ADD16C,0.254000*%
G04 #@! TD*
G04 #@! TA.AperFunction,Conductor*
%ADD17C,0.100000*%
G04 #@! TD*
G04 APERTURE END LIST*
D10*
X116586000Y-83185000D03*
X114046000Y-83185000D03*
X111506000Y-83185000D03*
X108966000Y-83185000D03*
X106426000Y-83185000D03*
X103886000Y-83185000D03*
X101346000Y-83185000D03*
D11*
X98806000Y-83185000D03*
D10*
X137922000Y-83185000D03*
X135382000Y-83185000D03*
X132842000Y-83185000D03*
X130302000Y-83185000D03*
X127762000Y-83185000D03*
X125222000Y-83185000D03*
X122682000Y-83185000D03*
D11*
X120142000Y-83185000D03*
D10*
X95250000Y-83185000D03*
X92710000Y-83185000D03*
X90170000Y-83185000D03*
X87630000Y-83185000D03*
X85090000Y-83185000D03*
X82550000Y-83185000D03*
X80010000Y-83185000D03*
D11*
X77470000Y-83185000D03*
D10*
X73914000Y-83185000D03*
X71374000Y-83185000D03*
X68834000Y-83185000D03*
X66294000Y-83185000D03*
X63754000Y-83185000D03*
X61214000Y-83185000D03*
X58674000Y-83185000D03*
D11*
X56134000Y-83185000D03*
D10*
X159258000Y-83185000D03*
X156718000Y-83185000D03*
X154178000Y-83185000D03*
X151638000Y-83185000D03*
X149098000Y-83185000D03*
X146558000Y-83185000D03*
X144018000Y-83185000D03*
D11*
X141478000Y-83185000D03*
D12*
X162941000Y-91440000D03*
X52324000Y-91694000D03*
D10*
X55880000Y-100584000D03*
D11*
X55880000Y-98044000D03*
D10*
X159004000Y-98298000D03*
D11*
X159004000Y-95758000D03*
D10*
X159131000Y-105283000D03*
X156591000Y-105283000D03*
X154051000Y-105283000D03*
X151511000Y-105283000D03*
X148971000Y-105283000D03*
X146431000Y-105283000D03*
X143891000Y-105283000D03*
D11*
X141351000Y-105283000D03*
D10*
X137795000Y-105283000D03*
X135255000Y-105283000D03*
X132715000Y-105283000D03*
X130175000Y-105283000D03*
X127635000Y-105283000D03*
X125095000Y-105283000D03*
X122555000Y-105283000D03*
D11*
X120015000Y-105283000D03*
D10*
X95123000Y-105283000D03*
X92583000Y-105283000D03*
X90043000Y-105283000D03*
X87503000Y-105283000D03*
X84963000Y-105283000D03*
X82423000Y-105283000D03*
X79883000Y-105283000D03*
D11*
X77343000Y-105283000D03*
D10*
X116459000Y-105283000D03*
X113919000Y-105283000D03*
X111379000Y-105283000D03*
X108839000Y-105283000D03*
X106299000Y-105283000D03*
X103759000Y-105283000D03*
X101219000Y-105283000D03*
D11*
X98679000Y-105283000D03*
D10*
X73787000Y-105283000D03*
X71247000Y-105283000D03*
X68707000Y-105283000D03*
X66167000Y-105283000D03*
X63627000Y-105283000D03*
X61087000Y-105283000D03*
X58547000Y-105283000D03*
D11*
X56007000Y-105283000D03*
D13*
X117602000Y-100036000D03*
D14*
X117602000Y-97536000D03*
D15*
X103378000Y-93599000D03*
X121793000Y-90170000D03*
X142748000Y-90297000D03*
X59817000Y-95885000D03*
X81280000Y-93472000D03*
D16*
X54832815Y-81883815D02*
X54753463Y-81980506D01*
X54694498Y-82090820D01*
X54658188Y-82210518D01*
X54645928Y-82335000D01*
X54645928Y-84035000D01*
X54658188Y-84159482D01*
X54694498Y-84279180D01*
X54753463Y-84389494D01*
X54832815Y-84486185D01*
X54929506Y-84565537D01*
X55039820Y-84624502D01*
X55159518Y-84660812D01*
X55284000Y-84673072D01*
X56984000Y-84673072D01*
X57108482Y-84660812D01*
X57228180Y-84624502D01*
X57338494Y-84565537D01*
X57435185Y-84486185D01*
X57514537Y-84389494D01*
X57573502Y-84279180D01*
X57595513Y-84206620D01*
X57727368Y-84338475D01*
X57970589Y-84500990D01*
X58240842Y-84612932D01*
X58527740Y-84670000D01*
X58820260Y-84670000D01*
X59107158Y-84612932D01*
X59377411Y-84500990D01*
X59620632Y-84338475D01*
X59827475Y-84131632D01*
X59944000Y-83957240D01*
X60060525Y-84131632D01*
X60267368Y-84338475D01*
X60510589Y-84500990D01*
X60780842Y-84612932D01*
X61067740Y-84670000D01*
X61360260Y-84670000D01*
X61647158Y-84612932D01*
X61917411Y-84500990D01*
X62160632Y-84338475D01*
X62367475Y-84131632D01*
X62484000Y-83957240D01*
X62600525Y-84131632D01*
X62807368Y-84338475D01*
X63050589Y-84500990D01*
X63320842Y-84612932D01*
X63607740Y-84670000D01*
X63900260Y-84670000D01*
X64187158Y-84612932D01*
X64457411Y-84500990D01*
X64700632Y-84338475D01*
X64907475Y-84131632D01*
X65024000Y-83957240D01*
X65140525Y-84131632D01*
X65347368Y-84338475D01*
X65590589Y-84500990D01*
X65860842Y-84612932D01*
X66147740Y-84670000D01*
X66440260Y-84670000D01*
X66727158Y-84612932D01*
X66997411Y-84500990D01*
X67240632Y-84338475D01*
X67447475Y-84131632D01*
X67564000Y-83957240D01*
X67680525Y-84131632D01*
X67887368Y-84338475D01*
X68130589Y-84500990D01*
X68400842Y-84612932D01*
X68687740Y-84670000D01*
X68980260Y-84670000D01*
X69267158Y-84612932D01*
X69537411Y-84500990D01*
X69780632Y-84338475D01*
X69987475Y-84131632D01*
X70104000Y-83957240D01*
X70220525Y-84131632D01*
X70427368Y-84338475D01*
X70670589Y-84500990D01*
X70940842Y-84612932D01*
X71227740Y-84670000D01*
X71520260Y-84670000D01*
X71807158Y-84612932D01*
X72077411Y-84500990D01*
X72320632Y-84338475D01*
X72527475Y-84131632D01*
X72644000Y-83957240D01*
X72760525Y-84131632D01*
X72967368Y-84338475D01*
X73210589Y-84500990D01*
X73480842Y-84612932D01*
X73767740Y-84670000D01*
X74060260Y-84670000D01*
X74347158Y-84612932D01*
X74617411Y-84500990D01*
X74860632Y-84338475D01*
X75067475Y-84131632D01*
X75229990Y-83888411D01*
X75341932Y-83618158D01*
X75399000Y-83331260D01*
X75399000Y-83038740D01*
X75341932Y-82751842D01*
X75229990Y-82481589D01*
X75067475Y-82238368D01*
X74860632Y-82031525D01*
X74617411Y-81869010D01*
X74482190Y-81813000D01*
X76255104Y-81813000D01*
X76168815Y-81883815D01*
X76089463Y-81980506D01*
X76030498Y-82090820D01*
X75994188Y-82210518D01*
X75981928Y-82335000D01*
X75981928Y-84035000D01*
X75994188Y-84159482D01*
X76030498Y-84279180D01*
X76089463Y-84389494D01*
X76168815Y-84486185D01*
X76265506Y-84565537D01*
X76375820Y-84624502D01*
X76495518Y-84660812D01*
X76620000Y-84673072D01*
X78320000Y-84673072D01*
X78444482Y-84660812D01*
X78564180Y-84624502D01*
X78674494Y-84565537D01*
X78771185Y-84486185D01*
X78850537Y-84389494D01*
X78909502Y-84279180D01*
X78931513Y-84206620D01*
X79063368Y-84338475D01*
X79306589Y-84500990D01*
X79576842Y-84612932D01*
X79863740Y-84670000D01*
X80156260Y-84670000D01*
X80443158Y-84612932D01*
X80713411Y-84500990D01*
X80956632Y-84338475D01*
X81163475Y-84131632D01*
X81280000Y-83957240D01*
X81396525Y-84131632D01*
X81603368Y-84338475D01*
X81846589Y-84500990D01*
X82116842Y-84612932D01*
X82403740Y-84670000D01*
X82696260Y-84670000D01*
X82983158Y-84612932D01*
X83253411Y-84500990D01*
X83496632Y-84338475D01*
X83703475Y-84131632D01*
X83820000Y-83957240D01*
X83936525Y-84131632D01*
X84143368Y-84338475D01*
X84386589Y-84500990D01*
X84656842Y-84612932D01*
X84943740Y-84670000D01*
X85236260Y-84670000D01*
X85523158Y-84612932D01*
X85793411Y-84500990D01*
X86036632Y-84338475D01*
X86243475Y-84131632D01*
X86360000Y-83957240D01*
X86476525Y-84131632D01*
X86683368Y-84338475D01*
X86926589Y-84500990D01*
X87196842Y-84612932D01*
X87483740Y-84670000D01*
X87776260Y-84670000D01*
X88063158Y-84612932D01*
X88333411Y-84500990D01*
X88576632Y-84338475D01*
X88783475Y-84131632D01*
X88900000Y-83957240D01*
X89016525Y-84131632D01*
X89223368Y-84338475D01*
X89466589Y-84500990D01*
X89736842Y-84612932D01*
X90023740Y-84670000D01*
X90316260Y-84670000D01*
X90603158Y-84612932D01*
X90873411Y-84500990D01*
X91116632Y-84338475D01*
X91323475Y-84131632D01*
X91440000Y-83957240D01*
X91556525Y-84131632D01*
X91763368Y-84338475D01*
X92006589Y-84500990D01*
X92276842Y-84612932D01*
X92563740Y-84670000D01*
X92856260Y-84670000D01*
X93143158Y-84612932D01*
X93413411Y-84500990D01*
X93656632Y-84338475D01*
X93863475Y-84131632D01*
X93980000Y-83957240D01*
X94096525Y-84131632D01*
X94303368Y-84338475D01*
X94546589Y-84500990D01*
X94816842Y-84612932D01*
X95103740Y-84670000D01*
X95396260Y-84670000D01*
X95683158Y-84612932D01*
X95953411Y-84500990D01*
X96196632Y-84338475D01*
X96403475Y-84131632D01*
X96565990Y-83888411D01*
X96677932Y-83618158D01*
X96735000Y-83331260D01*
X96735000Y-83038740D01*
X96677932Y-82751842D01*
X96565990Y-82481589D01*
X96403475Y-82238368D01*
X96196632Y-82031525D01*
X95953411Y-81869010D01*
X95818190Y-81813000D01*
X97591104Y-81813000D01*
X97504815Y-81883815D01*
X97425463Y-81980506D01*
X97366498Y-82090820D01*
X97330188Y-82210518D01*
X97317928Y-82335000D01*
X97317928Y-84035000D01*
X97330188Y-84159482D01*
X97366498Y-84279180D01*
X97425463Y-84389494D01*
X97504815Y-84486185D01*
X97601506Y-84565537D01*
X97711820Y-84624502D01*
X97831518Y-84660812D01*
X97956000Y-84673072D01*
X99656000Y-84673072D01*
X99780482Y-84660812D01*
X99900180Y-84624502D01*
X100010494Y-84565537D01*
X100107185Y-84486185D01*
X100186537Y-84389494D01*
X100245502Y-84279180D01*
X100267513Y-84206620D01*
X100399368Y-84338475D01*
X100642589Y-84500990D01*
X100912842Y-84612932D01*
X101199740Y-84670000D01*
X101492260Y-84670000D01*
X101779158Y-84612932D01*
X102049411Y-84500990D01*
X102292632Y-84338475D01*
X102499475Y-84131632D01*
X102616000Y-83957240D01*
X102732525Y-84131632D01*
X102939368Y-84338475D01*
X103182589Y-84500990D01*
X103452842Y-84612932D01*
X103739740Y-84670000D01*
X104032260Y-84670000D01*
X104319158Y-84612932D01*
X104589411Y-84500990D01*
X104832632Y-84338475D01*
X105039475Y-84131632D01*
X105156000Y-83957240D01*
X105272525Y-84131632D01*
X105479368Y-84338475D01*
X105722589Y-84500990D01*
X105992842Y-84612932D01*
X106279740Y-84670000D01*
X106572260Y-84670000D01*
X106859158Y-84612932D01*
X107129411Y-84500990D01*
X107372632Y-84338475D01*
X107579475Y-84131632D01*
X107696000Y-83957240D01*
X107812525Y-84131632D01*
X108019368Y-84338475D01*
X108262589Y-84500990D01*
X108532842Y-84612932D01*
X108819740Y-84670000D01*
X109112260Y-84670000D01*
X109399158Y-84612932D01*
X109669411Y-84500990D01*
X109912632Y-84338475D01*
X110119475Y-84131632D01*
X110236000Y-83957240D01*
X110352525Y-84131632D01*
X110559368Y-84338475D01*
X110802589Y-84500990D01*
X111072842Y-84612932D01*
X111359740Y-84670000D01*
X111652260Y-84670000D01*
X111939158Y-84612932D01*
X112209411Y-84500990D01*
X112452632Y-84338475D01*
X112659475Y-84131632D01*
X112776000Y-83957240D01*
X112892525Y-84131632D01*
X113099368Y-84338475D01*
X113342589Y-84500990D01*
X113612842Y-84612932D01*
X113899740Y-84670000D01*
X114192260Y-84670000D01*
X114479158Y-84612932D01*
X114749411Y-84500990D01*
X114992632Y-84338475D01*
X115199475Y-84131632D01*
X115316000Y-83957240D01*
X115432525Y-84131632D01*
X115639368Y-84338475D01*
X115882589Y-84500990D01*
X116152842Y-84612932D01*
X116439740Y-84670000D01*
X116732260Y-84670000D01*
X117019158Y-84612932D01*
X117289411Y-84500990D01*
X117532632Y-84338475D01*
X117739475Y-84131632D01*
X117901990Y-83888411D01*
X118013932Y-83618158D01*
X118071000Y-83331260D01*
X118071000Y-83038740D01*
X118013932Y-82751842D01*
X117901990Y-82481589D01*
X117739475Y-82238368D01*
X117532632Y-82031525D01*
X117289411Y-81869010D01*
X117154190Y-81813000D01*
X118927104Y-81813000D01*
X118840815Y-81883815D01*
X118761463Y-81980506D01*
X118702498Y-82090820D01*
X118666188Y-82210518D01*
X118653928Y-82335000D01*
X118653928Y-84035000D01*
X118666188Y-84159482D01*
X118702498Y-84279180D01*
X118761463Y-84389494D01*
X118840815Y-84486185D01*
X118937506Y-84565537D01*
X119047820Y-84624502D01*
X119167518Y-84660812D01*
X119292000Y-84673072D01*
X120992000Y-84673072D01*
X121116482Y-84660812D01*
X121236180Y-84624502D01*
X121346494Y-84565537D01*
X121443185Y-84486185D01*
X121522537Y-84389494D01*
X121581502Y-84279180D01*
X121603513Y-84206620D01*
X121735368Y-84338475D01*
X121978589Y-84500990D01*
X122248842Y-84612932D01*
X122535740Y-84670000D01*
X122828260Y-84670000D01*
X123115158Y-84612932D01*
X123385411Y-84500990D01*
X123628632Y-84338475D01*
X123835475Y-84131632D01*
X123952000Y-83957240D01*
X124068525Y-84131632D01*
X124275368Y-84338475D01*
X124518589Y-84500990D01*
X124788842Y-84612932D01*
X125075740Y-84670000D01*
X125368260Y-84670000D01*
X125655158Y-84612932D01*
X125925411Y-84500990D01*
X126168632Y-84338475D01*
X126375475Y-84131632D01*
X126492000Y-83957240D01*
X126608525Y-84131632D01*
X126815368Y-84338475D01*
X127058589Y-84500990D01*
X127328842Y-84612932D01*
X127615740Y-84670000D01*
X127908260Y-84670000D01*
X128195158Y-84612932D01*
X128465411Y-84500990D01*
X128708632Y-84338475D01*
X128915475Y-84131632D01*
X129032000Y-83957240D01*
X129148525Y-84131632D01*
X129355368Y-84338475D01*
X129598589Y-84500990D01*
X129868842Y-84612932D01*
X130155740Y-84670000D01*
X130448260Y-84670000D01*
X130735158Y-84612932D01*
X131005411Y-84500990D01*
X131248632Y-84338475D01*
X131455475Y-84131632D01*
X131572000Y-83957240D01*
X131688525Y-84131632D01*
X131895368Y-84338475D01*
X132138589Y-84500990D01*
X132408842Y-84612932D01*
X132695740Y-84670000D01*
X132988260Y-84670000D01*
X133275158Y-84612932D01*
X133545411Y-84500990D01*
X133788632Y-84338475D01*
X133995475Y-84131632D01*
X134112000Y-83957240D01*
X134228525Y-84131632D01*
X134435368Y-84338475D01*
X134678589Y-84500990D01*
X134948842Y-84612932D01*
X135235740Y-84670000D01*
X135528260Y-84670000D01*
X135815158Y-84612932D01*
X136085411Y-84500990D01*
X136328632Y-84338475D01*
X136535475Y-84131632D01*
X136652000Y-83957240D01*
X136768525Y-84131632D01*
X136975368Y-84338475D01*
X137218589Y-84500990D01*
X137488842Y-84612932D01*
X137775740Y-84670000D01*
X138068260Y-84670000D01*
X138355158Y-84612932D01*
X138625411Y-84500990D01*
X138868632Y-84338475D01*
X139075475Y-84131632D01*
X139237990Y-83888411D01*
X139349932Y-83618158D01*
X139407000Y-83331260D01*
X139407000Y-83038740D01*
X139349932Y-82751842D01*
X139237990Y-82481589D01*
X139075475Y-82238368D01*
X138868632Y-82031525D01*
X138625411Y-81869010D01*
X138490190Y-81813000D01*
X140263104Y-81813000D01*
X140176815Y-81883815D01*
X140097463Y-81980506D01*
X140038498Y-82090820D01*
X140002188Y-82210518D01*
X139989928Y-82335000D01*
X139989928Y-84035000D01*
X140002188Y-84159482D01*
X140038498Y-84279180D01*
X140097463Y-84389494D01*
X140176815Y-84486185D01*
X140273506Y-84565537D01*
X140383820Y-84624502D01*
X140503518Y-84660812D01*
X140628000Y-84673072D01*
X142328000Y-84673072D01*
X142452482Y-84660812D01*
X142572180Y-84624502D01*
X142682494Y-84565537D01*
X142779185Y-84486185D01*
X142858537Y-84389494D01*
X142917502Y-84279180D01*
X142939513Y-84206620D01*
X143071368Y-84338475D01*
X143314589Y-84500990D01*
X143584842Y-84612932D01*
X143871740Y-84670000D01*
X144164260Y-84670000D01*
X144451158Y-84612932D01*
X144721411Y-84500990D01*
X144964632Y-84338475D01*
X145171475Y-84131632D01*
X145288000Y-83957240D01*
X145404525Y-84131632D01*
X145611368Y-84338475D01*
X145854589Y-84500990D01*
X146124842Y-84612932D01*
X146411740Y-84670000D01*
X146704260Y-84670000D01*
X146991158Y-84612932D01*
X147261411Y-84500990D01*
X147504632Y-84338475D01*
X147711475Y-84131632D01*
X147828000Y-83957240D01*
X147944525Y-84131632D01*
X148151368Y-84338475D01*
X148394589Y-84500990D01*
X148664842Y-84612932D01*
X148951740Y-84670000D01*
X149244260Y-84670000D01*
X149531158Y-84612932D01*
X149801411Y-84500990D01*
X150044632Y-84338475D01*
X150251475Y-84131632D01*
X150368000Y-83957240D01*
X150484525Y-84131632D01*
X150691368Y-84338475D01*
X150934589Y-84500990D01*
X151204842Y-84612932D01*
X151491740Y-84670000D01*
X151784260Y-84670000D01*
X152071158Y-84612932D01*
X152341411Y-84500990D01*
X152584632Y-84338475D01*
X152791475Y-84131632D01*
X152908000Y-83957240D01*
X153024525Y-84131632D01*
X153231368Y-84338475D01*
X153474589Y-84500990D01*
X153744842Y-84612932D01*
X154031740Y-84670000D01*
X154324260Y-84670000D01*
X154611158Y-84612932D01*
X154881411Y-84500990D01*
X155124632Y-84338475D01*
X155331475Y-84131632D01*
X155448000Y-83957240D01*
X155564525Y-84131632D01*
X155771368Y-84338475D01*
X156014589Y-84500990D01*
X156284842Y-84612932D01*
X156571740Y-84670000D01*
X156864260Y-84670000D01*
X157151158Y-84612932D01*
X157421411Y-84500990D01*
X157664632Y-84338475D01*
X157871475Y-84131632D01*
X157988000Y-83957240D01*
X158104525Y-84131632D01*
X158311368Y-84338475D01*
X158554589Y-84500990D01*
X158824842Y-84612932D01*
X159111740Y-84670000D01*
X159404260Y-84670000D01*
X159691158Y-84612932D01*
X159961411Y-84500990D01*
X160204632Y-84338475D01*
X160411475Y-84131632D01*
X160573990Y-83888411D01*
X160685932Y-83618158D01*
X160743000Y-83331260D01*
X160743000Y-83038740D01*
X160685932Y-82751842D01*
X160573990Y-82481589D01*
X160411475Y-82238368D01*
X160204632Y-82031525D01*
X159961411Y-81869010D01*
X159826190Y-81813000D01*
X165456001Y-81813000D01*
X165456001Y-89097178D01*
X165130685Y-88771862D01*
X164568082Y-88395943D01*
X163942952Y-88137006D01*
X163279318Y-88005000D01*
X162602682Y-88005000D01*
X161939048Y-88137006D01*
X161313918Y-88395943D01*
X160751315Y-88771862D01*
X160272862Y-89250315D01*
X159896943Y-89812918D01*
X159638006Y-90438048D01*
X159506000Y-91101682D01*
X159506000Y-91778318D01*
X159638006Y-92441952D01*
X159896943Y-93067082D01*
X160272862Y-93629685D01*
X160751315Y-94108138D01*
X161313918Y-94484057D01*
X161939048Y-94742994D01*
X162602682Y-94875000D01*
X163279318Y-94875000D01*
X163942952Y-94742994D01*
X164568082Y-94484057D01*
X165130685Y-94108138D01*
X165456001Y-93782822D01*
X165456000Y-106909000D01*
X49555000Y-106909000D01*
X49555000Y-104433000D01*
X54518928Y-104433000D01*
X54518928Y-106133000D01*
X54531188Y-106257482D01*
X54567498Y-106377180D01*
X54626463Y-106487494D01*
X54705815Y-106584185D01*
X54802506Y-106663537D01*
X54912820Y-106722502D01*
X55032518Y-106758812D01*
X55157000Y-106771072D01*
X56857000Y-106771072D01*
X56981482Y-106758812D01*
X57101180Y-106722502D01*
X57211494Y-106663537D01*
X57308185Y-106584185D01*
X57387537Y-106487494D01*
X57446502Y-106377180D01*
X57468513Y-106304620D01*
X57600368Y-106436475D01*
X57843589Y-106598990D01*
X58113842Y-106710932D01*
X58400740Y-106768000D01*
X58693260Y-106768000D01*
X58980158Y-106710932D01*
X59250411Y-106598990D01*
X59493632Y-106436475D01*
X59700475Y-106229632D01*
X59817000Y-106055240D01*
X59933525Y-106229632D01*
X60140368Y-106436475D01*
X60383589Y-106598990D01*
X60653842Y-106710932D01*
X60940740Y-106768000D01*
X61233260Y-106768000D01*
X61520158Y-106710932D01*
X61790411Y-106598990D01*
X62033632Y-106436475D01*
X62240475Y-106229632D01*
X62357000Y-106055240D01*
X62473525Y-106229632D01*
X62680368Y-106436475D01*
X62923589Y-106598990D01*
X63193842Y-106710932D01*
X63480740Y-106768000D01*
X63773260Y-106768000D01*
X64060158Y-106710932D01*
X64330411Y-106598990D01*
X64573632Y-106436475D01*
X64780475Y-106229632D01*
X64897000Y-106055240D01*
X65013525Y-106229632D01*
X65220368Y-106436475D01*
X65463589Y-106598990D01*
X65733842Y-106710932D01*
X66020740Y-106768000D01*
X66313260Y-106768000D01*
X66600158Y-106710932D01*
X66870411Y-106598990D01*
X67113632Y-106436475D01*
X67320475Y-106229632D01*
X67437000Y-106055240D01*
X67553525Y-106229632D01*
X67760368Y-106436475D01*
X68003589Y-106598990D01*
X68273842Y-106710932D01*
X68560740Y-106768000D01*
X68853260Y-106768000D01*
X69140158Y-106710932D01*
X69410411Y-106598990D01*
X69653632Y-106436475D01*
X69860475Y-106229632D01*
X69977000Y-106055240D01*
X70093525Y-106229632D01*
X70300368Y-106436475D01*
X70543589Y-106598990D01*
X70813842Y-106710932D01*
X71100740Y-106768000D01*
X71393260Y-106768000D01*
X71680158Y-106710932D01*
X71950411Y-106598990D01*
X72193632Y-106436475D01*
X72400475Y-106229632D01*
X72517000Y-106055240D01*
X72633525Y-106229632D01*
X72840368Y-106436475D01*
X73083589Y-106598990D01*
X73353842Y-106710932D01*
X73640740Y-106768000D01*
X73933260Y-106768000D01*
X74220158Y-106710932D01*
X74490411Y-106598990D01*
X74733632Y-106436475D01*
X74940475Y-106229632D01*
X75102990Y-105986411D01*
X75214932Y-105716158D01*
X75272000Y-105429260D01*
X75272000Y-105136740D01*
X75214932Y-104849842D01*
X75102990Y-104579589D01*
X75005043Y-104433000D01*
X75854928Y-104433000D01*
X75854928Y-106133000D01*
X75867188Y-106257482D01*
X75903498Y-106377180D01*
X75962463Y-106487494D01*
X76041815Y-106584185D01*
X76138506Y-106663537D01*
X76248820Y-106722502D01*
X76368518Y-106758812D01*
X76493000Y-106771072D01*
X78193000Y-106771072D01*
X78317482Y-106758812D01*
X78437180Y-106722502D01*
X78547494Y-106663537D01*
X78644185Y-106584185D01*
X78723537Y-106487494D01*
X78782502Y-106377180D01*
X78804513Y-106304620D01*
X78936368Y-106436475D01*
X79179589Y-106598990D01*
X79449842Y-106710932D01*
X79736740Y-106768000D01*
X80029260Y-106768000D01*
X80316158Y-106710932D01*
X80586411Y-106598990D01*
X80829632Y-106436475D01*
X81036475Y-106229632D01*
X81153000Y-106055240D01*
X81269525Y-106229632D01*
X81476368Y-106436475D01*
X81719589Y-106598990D01*
X81989842Y-106710932D01*
X82276740Y-106768000D01*
X82569260Y-106768000D01*
X82856158Y-106710932D01*
X83126411Y-106598990D01*
X83369632Y-106436475D01*
X83576475Y-106229632D01*
X83693000Y-106055240D01*
X83809525Y-106229632D01*
X84016368Y-106436475D01*
X84259589Y-106598990D01*
X84529842Y-106710932D01*
X84816740Y-106768000D01*
X85109260Y-106768000D01*
X85396158Y-106710932D01*
X85666411Y-106598990D01*
X85909632Y-106436475D01*
X86116475Y-106229632D01*
X86233000Y-106055240D01*
X86349525Y-106229632D01*
X86556368Y-106436475D01*
X86799589Y-106598990D01*
X87069842Y-106710932D01*
X87356740Y-106768000D01*
X87649260Y-106768000D01*
X87936158Y-106710932D01*
X88206411Y-106598990D01*
X88449632Y-106436475D01*
X88656475Y-106229632D01*
X88773000Y-106055240D01*
X88889525Y-106229632D01*
X89096368Y-106436475D01*
X89339589Y-106598990D01*
X89609842Y-106710932D01*
X89896740Y-106768000D01*
X90189260Y-106768000D01*
X90476158Y-106710932D01*
X90746411Y-106598990D01*
X90989632Y-106436475D01*
X91196475Y-106229632D01*
X91313000Y-106055240D01*
X91429525Y-106229632D01*
X91636368Y-106436475D01*
X91879589Y-106598990D01*
X92149842Y-106710932D01*
X92436740Y-106768000D01*
X92729260Y-106768000D01*
X93016158Y-106710932D01*
X93286411Y-106598990D01*
X93529632Y-106436475D01*
X93736475Y-106229632D01*
X93853000Y-106055240D01*
X93969525Y-106229632D01*
X94176368Y-106436475D01*
X94419589Y-106598990D01*
X94689842Y-106710932D01*
X94976740Y-106768000D01*
X95269260Y-106768000D01*
X95556158Y-106710932D01*
X95826411Y-106598990D01*
X96069632Y-106436475D01*
X96276475Y-106229632D01*
X96438990Y-105986411D01*
X96550932Y-105716158D01*
X96608000Y-105429260D01*
X96608000Y-105136740D01*
X96550932Y-104849842D01*
X96438990Y-104579589D01*
X96341043Y-104433000D01*
X97190928Y-104433000D01*
X97190928Y-106133000D01*
X97203188Y-106257482D01*
X97239498Y-106377180D01*
X97298463Y-106487494D01*
X97377815Y-106584185D01*
X97474506Y-106663537D01*
X97584820Y-106722502D01*
X97704518Y-106758812D01*
X97829000Y-106771072D01*
X99529000Y-106771072D01*
X99653482Y-106758812D01*
X99773180Y-106722502D01*
X99883494Y-106663537D01*
X99980185Y-106584185D01*
X100059537Y-106487494D01*
X100118502Y-106377180D01*
X100140513Y-106304620D01*
X100272368Y-106436475D01*
X100515589Y-106598990D01*
X100785842Y-106710932D01*
X101072740Y-106768000D01*
X101365260Y-106768000D01*
X101652158Y-106710932D01*
X101922411Y-106598990D01*
X102165632Y-106436475D01*
X102372475Y-106229632D01*
X102489000Y-106055240D01*
X102605525Y-106229632D01*
X102812368Y-106436475D01*
X103055589Y-106598990D01*
X103325842Y-106710932D01*
X103612740Y-106768000D01*
X103905260Y-106768000D01*
X104192158Y-106710932D01*
X104462411Y-106598990D01*
X104705632Y-106436475D01*
X104912475Y-106229632D01*
X105029000Y-106055240D01*
X105145525Y-106229632D01*
X105352368Y-106436475D01*
X105595589Y-106598990D01*
X105865842Y-106710932D01*
X106152740Y-106768000D01*
X106445260Y-106768000D01*
X106732158Y-106710932D01*
X107002411Y-106598990D01*
X107245632Y-106436475D01*
X107452475Y-106229632D01*
X107569000Y-106055240D01*
X107685525Y-106229632D01*
X107892368Y-106436475D01*
X108135589Y-106598990D01*
X108405842Y-106710932D01*
X108692740Y-106768000D01*
X108985260Y-106768000D01*
X109272158Y-106710932D01*
X109542411Y-106598990D01*
X109785632Y-106436475D01*
X109992475Y-106229632D01*
X110109000Y-106055240D01*
X110225525Y-106229632D01*
X110432368Y-106436475D01*
X110675589Y-106598990D01*
X110945842Y-106710932D01*
X111232740Y-106768000D01*
X111525260Y-106768000D01*
X111812158Y-106710932D01*
X112082411Y-106598990D01*
X112325632Y-106436475D01*
X112532475Y-106229632D01*
X112649000Y-106055240D01*
X112765525Y-106229632D01*
X112972368Y-106436475D01*
X113215589Y-106598990D01*
X113485842Y-106710932D01*
X113772740Y-106768000D01*
X114065260Y-106768000D01*
X114352158Y-106710932D01*
X114622411Y-106598990D01*
X114865632Y-106436475D01*
X115072475Y-106229632D01*
X115189000Y-106055240D01*
X115305525Y-106229632D01*
X115512368Y-106436475D01*
X115755589Y-106598990D01*
X116025842Y-106710932D01*
X116312740Y-106768000D01*
X116605260Y-106768000D01*
X116892158Y-106710932D01*
X117162411Y-106598990D01*
X117405632Y-106436475D01*
X117612475Y-106229632D01*
X117774990Y-105986411D01*
X117886932Y-105716158D01*
X117944000Y-105429260D01*
X117944000Y-105136740D01*
X117886932Y-104849842D01*
X117774990Y-104579589D01*
X117677043Y-104433000D01*
X118526928Y-104433000D01*
X118526928Y-106133000D01*
X118539188Y-106257482D01*
X118575498Y-106377180D01*
X118634463Y-106487494D01*
X118713815Y-106584185D01*
X118810506Y-106663537D01*
X118920820Y-106722502D01*
X119040518Y-106758812D01*
X119165000Y-106771072D01*
X120865000Y-106771072D01*
X120989482Y-106758812D01*
X121109180Y-106722502D01*
X121219494Y-106663537D01*
X121316185Y-106584185D01*
X121395537Y-106487494D01*
X121454502Y-106377180D01*
X121476513Y-106304620D01*
X121608368Y-106436475D01*
X121851589Y-106598990D01*
X122121842Y-106710932D01*
X122408740Y-106768000D01*
X122701260Y-106768000D01*
X122988158Y-106710932D01*
X123258411Y-106598990D01*
X123501632Y-106436475D01*
X123708475Y-106229632D01*
X123825000Y-106055240D01*
X123941525Y-106229632D01*
X124148368Y-106436475D01*
X124391589Y-106598990D01*
X124661842Y-106710932D01*
X124948740Y-106768000D01*
X125241260Y-106768000D01*
X125528158Y-106710932D01*
X125798411Y-106598990D01*
X126041632Y-106436475D01*
X126248475Y-106229632D01*
X126365000Y-106055240D01*
X126481525Y-106229632D01*
X126688368Y-106436475D01*
X126931589Y-106598990D01*
X127201842Y-106710932D01*
X127488740Y-106768000D01*
X127781260Y-106768000D01*
X128068158Y-106710932D01*
X128338411Y-106598990D01*
X128581632Y-106436475D01*
X128788475Y-106229632D01*
X128905000Y-106055240D01*
X129021525Y-106229632D01*
X129228368Y-106436475D01*
X129471589Y-106598990D01*
X129741842Y-106710932D01*
X130028740Y-106768000D01*
X130321260Y-106768000D01*
X130608158Y-106710932D01*
X130878411Y-106598990D01*
X131121632Y-106436475D01*
X131328475Y-106229632D01*
X131445000Y-106055240D01*
X131561525Y-106229632D01*
X131768368Y-106436475D01*
X132011589Y-106598990D01*
X132281842Y-106710932D01*
X132568740Y-106768000D01*
X132861260Y-106768000D01*
X133148158Y-106710932D01*
X133418411Y-106598990D01*
X133661632Y-106436475D01*
X133868475Y-106229632D01*
X133985000Y-106055240D01*
X134101525Y-106229632D01*
X134308368Y-106436475D01*
X134551589Y-106598990D01*
X134821842Y-106710932D01*
X135108740Y-106768000D01*
X135401260Y-106768000D01*
X135688158Y-106710932D01*
X135958411Y-106598990D01*
X136201632Y-106436475D01*
X136408475Y-106229632D01*
X136525000Y-106055240D01*
X136641525Y-106229632D01*
X136848368Y-106436475D01*
X137091589Y-106598990D01*
X137361842Y-106710932D01*
X137648740Y-106768000D01*
X137941260Y-106768000D01*
X138228158Y-106710932D01*
X138498411Y-106598990D01*
X138741632Y-106436475D01*
X138948475Y-106229632D01*
X139110990Y-105986411D01*
X139222932Y-105716158D01*
X139280000Y-105429260D01*
X139280000Y-105136740D01*
X139222932Y-104849842D01*
X139110990Y-104579589D01*
X139013043Y-104433000D01*
X139862928Y-104433000D01*
X139862928Y-106133000D01*
X139875188Y-106257482D01*
X139911498Y-106377180D01*
X139970463Y-106487494D01*
X140049815Y-106584185D01*
X140146506Y-106663537D01*
X140256820Y-106722502D01*
X140376518Y-106758812D01*
X140501000Y-106771072D01*
X142201000Y-106771072D01*
X142325482Y-106758812D01*
X142445180Y-106722502D01*
X142555494Y-106663537D01*
X142652185Y-106584185D01*
X142731537Y-106487494D01*
X142790502Y-106377180D01*
X142812513Y-106304620D01*
X142944368Y-106436475D01*
X143187589Y-106598990D01*
X143457842Y-106710932D01*
X143744740Y-106768000D01*
X144037260Y-106768000D01*
X144324158Y-106710932D01*
X144594411Y-106598990D01*
X144837632Y-106436475D01*
X145044475Y-106229632D01*
X145161000Y-106055240D01*
X145277525Y-106229632D01*
X145484368Y-106436475D01*
X145727589Y-106598990D01*
X145997842Y-106710932D01*
X146284740Y-106768000D01*
X146577260Y-106768000D01*
X146864158Y-106710932D01*
X147134411Y-106598990D01*
X147377632Y-106436475D01*
X147584475Y-106229632D01*
X147701000Y-106055240D01*
X147817525Y-106229632D01*
X148024368Y-106436475D01*
X148267589Y-106598990D01*
X148537842Y-106710932D01*
X148824740Y-106768000D01*
X149117260Y-106768000D01*
X149404158Y-106710932D01*
X149674411Y-106598990D01*
X149917632Y-106436475D01*
X150124475Y-106229632D01*
X150241000Y-106055240D01*
X150357525Y-106229632D01*
X150564368Y-106436475D01*
X150807589Y-106598990D01*
X151077842Y-106710932D01*
X151364740Y-106768000D01*
X151657260Y-106768000D01*
X151944158Y-106710932D01*
X152214411Y-106598990D01*
X152457632Y-106436475D01*
X152664475Y-106229632D01*
X152781000Y-106055240D01*
X152897525Y-106229632D01*
X153104368Y-106436475D01*
X153347589Y-106598990D01*
X153617842Y-106710932D01*
X153904740Y-106768000D01*
X154197260Y-106768000D01*
X154484158Y-106710932D01*
X154754411Y-106598990D01*
X154997632Y-106436475D01*
X155204475Y-106229632D01*
X155321000Y-106055240D01*
X155437525Y-106229632D01*
X155644368Y-106436475D01*
X155887589Y-106598990D01*
X156157842Y-106710932D01*
X156444740Y-106768000D01*
X156737260Y-106768000D01*
X157024158Y-106710932D01*
X157294411Y-106598990D01*
X157537632Y-106436475D01*
X157744475Y-106229632D01*
X157861000Y-106055240D01*
X157977525Y-106229632D01*
X158184368Y-106436475D01*
X158427589Y-106598990D01*
X158697842Y-106710932D01*
X158984740Y-106768000D01*
X159277260Y-106768000D01*
X159564158Y-106710932D01*
X159834411Y-106598990D01*
X160077632Y-106436475D01*
X160284475Y-106229632D01*
X160446990Y-105986411D01*
X160558932Y-105716158D01*
X160616000Y-105429260D01*
X160616000Y-105136740D01*
X160558932Y-104849842D01*
X160446990Y-104579589D01*
X160284475Y-104336368D01*
X160077632Y-104129525D01*
X159834411Y-103967010D01*
X159564158Y-103855068D01*
X159277260Y-103798000D01*
X158984740Y-103798000D01*
X158697842Y-103855068D01*
X158427589Y-103967010D01*
X158184368Y-104129525D01*
X157977525Y-104336368D01*
X157861000Y-104510760D01*
X157744475Y-104336368D01*
X157537632Y-104129525D01*
X157294411Y-103967010D01*
X157024158Y-103855068D01*
X156737260Y-103798000D01*
X156444740Y-103798000D01*
X156157842Y-103855068D01*
X155887589Y-103967010D01*
X155644368Y-104129525D01*
X155437525Y-104336368D01*
X155321000Y-104510760D01*
X155204475Y-104336368D01*
X154997632Y-104129525D01*
X154754411Y-103967010D01*
X154484158Y-103855068D01*
X154197260Y-103798000D01*
X153904740Y-103798000D01*
X153617842Y-103855068D01*
X153347589Y-103967010D01*
X153104368Y-104129525D01*
X152897525Y-104336368D01*
X152781000Y-104510760D01*
X152664475Y-104336368D01*
X152457632Y-104129525D01*
X152214411Y-103967010D01*
X151944158Y-103855068D01*
X151657260Y-103798000D01*
X151364740Y-103798000D01*
X151077842Y-103855068D01*
X150807589Y-103967010D01*
X150564368Y-104129525D01*
X150357525Y-104336368D01*
X150241000Y-104510760D01*
X150124475Y-104336368D01*
X149917632Y-104129525D01*
X149674411Y-103967010D01*
X149404158Y-103855068D01*
X149117260Y-103798000D01*
X148824740Y-103798000D01*
X148537842Y-103855068D01*
X148267589Y-103967010D01*
X148024368Y-104129525D01*
X147817525Y-104336368D01*
X147701000Y-104510760D01*
X147584475Y-104336368D01*
X147377632Y-104129525D01*
X147134411Y-103967010D01*
X146864158Y-103855068D01*
X146577260Y-103798000D01*
X146284740Y-103798000D01*
X145997842Y-103855068D01*
X145727589Y-103967010D01*
X145484368Y-104129525D01*
X145277525Y-104336368D01*
X145161000Y-104510760D01*
X145044475Y-104336368D01*
X144837632Y-104129525D01*
X144594411Y-103967010D01*
X144324158Y-103855068D01*
X144037260Y-103798000D01*
X143744740Y-103798000D01*
X143457842Y-103855068D01*
X143187589Y-103967010D01*
X142944368Y-104129525D01*
X142812513Y-104261380D01*
X142790502Y-104188820D01*
X142731537Y-104078506D01*
X142652185Y-103981815D01*
X142555494Y-103902463D01*
X142445180Y-103843498D01*
X142325482Y-103807188D01*
X142201000Y-103794928D01*
X140501000Y-103794928D01*
X140376518Y-103807188D01*
X140256820Y-103843498D01*
X140146506Y-103902463D01*
X140049815Y-103981815D01*
X139970463Y-104078506D01*
X139911498Y-104188820D01*
X139875188Y-104308518D01*
X139862928Y-104433000D01*
X139013043Y-104433000D01*
X138948475Y-104336368D01*
X138741632Y-104129525D01*
X138498411Y-103967010D01*
X138228158Y-103855068D01*
X137941260Y-103798000D01*
X137648740Y-103798000D01*
X137361842Y-103855068D01*
X137091589Y-103967010D01*
X136848368Y-104129525D01*
X136641525Y-104336368D01*
X136525000Y-104510760D01*
X136408475Y-104336368D01*
X136201632Y-104129525D01*
X135958411Y-103967010D01*
X135688158Y-103855068D01*
X135401260Y-103798000D01*
X135108740Y-103798000D01*
X134821842Y-103855068D01*
X134551589Y-103967010D01*
X134308368Y-104129525D01*
X134101525Y-104336368D01*
X133985000Y-104510760D01*
X133868475Y-104336368D01*
X133661632Y-104129525D01*
X133418411Y-103967010D01*
X133148158Y-103855068D01*
X132861260Y-103798000D01*
X132568740Y-103798000D01*
X132281842Y-103855068D01*
X132011589Y-103967010D01*
X131768368Y-104129525D01*
X131561525Y-104336368D01*
X131445000Y-104510760D01*
X131328475Y-104336368D01*
X131121632Y-104129525D01*
X130878411Y-103967010D01*
X130608158Y-103855068D01*
X130321260Y-103798000D01*
X130028740Y-103798000D01*
X129741842Y-103855068D01*
X129471589Y-103967010D01*
X129228368Y-104129525D01*
X129021525Y-104336368D01*
X128905000Y-104510760D01*
X128788475Y-104336368D01*
X128581632Y-104129525D01*
X128338411Y-103967010D01*
X128068158Y-103855068D01*
X127781260Y-103798000D01*
X127488740Y-103798000D01*
X127201842Y-103855068D01*
X126931589Y-103967010D01*
X126688368Y-104129525D01*
X126481525Y-104336368D01*
X126365000Y-104510760D01*
X126248475Y-104336368D01*
X126041632Y-104129525D01*
X125798411Y-103967010D01*
X125528158Y-103855068D01*
X125241260Y-103798000D01*
X124948740Y-103798000D01*
X124661842Y-103855068D01*
X124391589Y-103967010D01*
X124148368Y-104129525D01*
X123941525Y-104336368D01*
X123825000Y-104510760D01*
X123708475Y-104336368D01*
X123501632Y-104129525D01*
X123258411Y-103967010D01*
X122988158Y-103855068D01*
X122701260Y-103798000D01*
X122408740Y-103798000D01*
X122121842Y-103855068D01*
X121851589Y-103967010D01*
X121608368Y-104129525D01*
X121476513Y-104261380D01*
X121454502Y-104188820D01*
X121395537Y-104078506D01*
X121316185Y-103981815D01*
X121219494Y-103902463D01*
X121109180Y-103843498D01*
X120989482Y-103807188D01*
X120865000Y-103794928D01*
X119165000Y-103794928D01*
X119040518Y-103807188D01*
X118920820Y-103843498D01*
X118810506Y-103902463D01*
X118713815Y-103981815D01*
X118634463Y-104078506D01*
X118575498Y-104188820D01*
X118539188Y-104308518D01*
X118526928Y-104433000D01*
X117677043Y-104433000D01*
X117612475Y-104336368D01*
X117405632Y-104129525D01*
X117162411Y-103967010D01*
X116892158Y-103855068D01*
X116605260Y-103798000D01*
X116312740Y-103798000D01*
X116025842Y-103855068D01*
X115755589Y-103967010D01*
X115512368Y-104129525D01*
X115305525Y-104336368D01*
X115189000Y-104510760D01*
X115072475Y-104336368D01*
X114865632Y-104129525D01*
X114622411Y-103967010D01*
X114352158Y-103855068D01*
X114065260Y-103798000D01*
X113772740Y-103798000D01*
X113485842Y-103855068D01*
X113215589Y-103967010D01*
X112972368Y-104129525D01*
X112765525Y-104336368D01*
X112649000Y-104510760D01*
X112532475Y-104336368D01*
X112325632Y-104129525D01*
X112082411Y-103967010D01*
X111812158Y-103855068D01*
X111525260Y-103798000D01*
X111232740Y-103798000D01*
X110945842Y-103855068D01*
X110675589Y-103967010D01*
X110432368Y-104129525D01*
X110225525Y-104336368D01*
X110109000Y-104510760D01*
X109992475Y-104336368D01*
X109785632Y-104129525D01*
X109542411Y-103967010D01*
X109272158Y-103855068D01*
X108985260Y-103798000D01*
X108692740Y-103798000D01*
X108405842Y-103855068D01*
X108135589Y-103967010D01*
X107892368Y-104129525D01*
X107685525Y-104336368D01*
X107569000Y-104510760D01*
X107452475Y-104336368D01*
X107245632Y-104129525D01*
X107002411Y-103967010D01*
X106732158Y-103855068D01*
X106445260Y-103798000D01*
X106152740Y-103798000D01*
X105865842Y-103855068D01*
X105595589Y-103967010D01*
X105352368Y-104129525D01*
X105145525Y-104336368D01*
X105029000Y-104510760D01*
X104912475Y-104336368D01*
X104705632Y-104129525D01*
X104462411Y-103967010D01*
X104192158Y-103855068D01*
X103905260Y-103798000D01*
X103612740Y-103798000D01*
X103325842Y-103855068D01*
X103055589Y-103967010D01*
X102812368Y-104129525D01*
X102605525Y-104336368D01*
X102489000Y-104510760D01*
X102372475Y-104336368D01*
X102165632Y-104129525D01*
X101922411Y-103967010D01*
X101652158Y-103855068D01*
X101365260Y-103798000D01*
X101072740Y-103798000D01*
X100785842Y-103855068D01*
X100515589Y-103967010D01*
X100272368Y-104129525D01*
X100140513Y-104261380D01*
X100118502Y-104188820D01*
X100059537Y-104078506D01*
X99980185Y-103981815D01*
X99883494Y-103902463D01*
X99773180Y-103843498D01*
X99653482Y-103807188D01*
X99529000Y-103794928D01*
X97829000Y-103794928D01*
X97704518Y-103807188D01*
X97584820Y-103843498D01*
X97474506Y-103902463D01*
X97377815Y-103981815D01*
X97298463Y-104078506D01*
X97239498Y-104188820D01*
X97203188Y-104308518D01*
X97190928Y-104433000D01*
X96341043Y-104433000D01*
X96276475Y-104336368D01*
X96069632Y-104129525D01*
X95826411Y-103967010D01*
X95556158Y-103855068D01*
X95269260Y-103798000D01*
X94976740Y-103798000D01*
X94689842Y-103855068D01*
X94419589Y-103967010D01*
X94176368Y-104129525D01*
X93969525Y-104336368D01*
X93853000Y-104510760D01*
X93736475Y-104336368D01*
X93529632Y-104129525D01*
X93286411Y-103967010D01*
X93016158Y-103855068D01*
X92729260Y-103798000D01*
X92436740Y-103798000D01*
X92149842Y-103855068D01*
X91879589Y-103967010D01*
X91636368Y-104129525D01*
X91429525Y-104336368D01*
X91313000Y-104510760D01*
X91196475Y-104336368D01*
X90989632Y-104129525D01*
X90746411Y-103967010D01*
X90476158Y-103855068D01*
X90189260Y-103798000D01*
X89896740Y-103798000D01*
X89609842Y-103855068D01*
X89339589Y-103967010D01*
X89096368Y-104129525D01*
X88889525Y-104336368D01*
X88773000Y-104510760D01*
X88656475Y-104336368D01*
X88449632Y-104129525D01*
X88206411Y-103967010D01*
X87936158Y-103855068D01*
X87649260Y-103798000D01*
X87356740Y-103798000D01*
X87069842Y-103855068D01*
X86799589Y-103967010D01*
X86556368Y-104129525D01*
X86349525Y-104336368D01*
X86233000Y-104510760D01*
X86116475Y-104336368D01*
X85909632Y-104129525D01*
X85666411Y-103967010D01*
X85396158Y-103855068D01*
X85109260Y-103798000D01*
X84816740Y-103798000D01*
X84529842Y-103855068D01*
X84259589Y-103967010D01*
X84016368Y-104129525D01*
X83809525Y-104336368D01*
X83693000Y-104510760D01*
X83576475Y-104336368D01*
X83369632Y-104129525D01*
X83126411Y-103967010D01*
X82856158Y-103855068D01*
X82569260Y-103798000D01*
X82276740Y-103798000D01*
X81989842Y-103855068D01*
X81719589Y-103967010D01*
X81476368Y-104129525D01*
X81269525Y-104336368D01*
X81153000Y-104510760D01*
X81036475Y-104336368D01*
X80829632Y-104129525D01*
X80586411Y-103967010D01*
X80316158Y-103855068D01*
X80029260Y-103798000D01*
X79736740Y-103798000D01*
X79449842Y-103855068D01*
X79179589Y-103967010D01*
X78936368Y-104129525D01*
X78804513Y-104261380D01*
X78782502Y-104188820D01*
X78723537Y-104078506D01*
X78644185Y-103981815D01*
X78547494Y-103902463D01*
X78437180Y-103843498D01*
X78317482Y-103807188D01*
X78193000Y-103794928D01*
X76493000Y-103794928D01*
X76368518Y-103807188D01*
X76248820Y-103843498D01*
X76138506Y-103902463D01*
X76041815Y-103981815D01*
X75962463Y-104078506D01*
X75903498Y-104188820D01*
X75867188Y-104308518D01*
X75854928Y-104433000D01*
X75005043Y-104433000D01*
X74940475Y-104336368D01*
X74733632Y-104129525D01*
X74490411Y-103967010D01*
X74220158Y-103855068D01*
X73933260Y-103798000D01*
X73640740Y-103798000D01*
X73353842Y-103855068D01*
X73083589Y-103967010D01*
X72840368Y-104129525D01*
X72633525Y-104336368D01*
X72517000Y-104510760D01*
X72400475Y-104336368D01*
X72193632Y-104129525D01*
X71950411Y-103967010D01*
X71680158Y-103855068D01*
X71393260Y-103798000D01*
X71100740Y-103798000D01*
X70813842Y-103855068D01*
X70543589Y-103967010D01*
X70300368Y-104129525D01*
X70093525Y-104336368D01*
X69977000Y-104510760D01*
X69860475Y-104336368D01*
X69653632Y-104129525D01*
X69410411Y-103967010D01*
X69140158Y-103855068D01*
X68853260Y-103798000D01*
X68560740Y-103798000D01*
X68273842Y-103855068D01*
X68003589Y-103967010D01*
X67760368Y-104129525D01*
X67553525Y-104336368D01*
X67437000Y-104510760D01*
X67320475Y-104336368D01*
X67113632Y-104129525D01*
X66870411Y-103967010D01*
X66600158Y-103855068D01*
X66313260Y-103798000D01*
X66020740Y-103798000D01*
X65733842Y-103855068D01*
X65463589Y-103967010D01*
X65220368Y-104129525D01*
X65013525Y-104336368D01*
X64897000Y-104510760D01*
X64780475Y-104336368D01*
X64573632Y-104129525D01*
X64330411Y-103967010D01*
X64060158Y-103855068D01*
X63773260Y-103798000D01*
X63480740Y-103798000D01*
X63193842Y-103855068D01*
X62923589Y-103967010D01*
X62680368Y-104129525D01*
X62473525Y-104336368D01*
X62357000Y-104510760D01*
X62240475Y-104336368D01*
X62033632Y-104129525D01*
X61790411Y-103967010D01*
X61520158Y-103855068D01*
X61233260Y-103798000D01*
X60940740Y-103798000D01*
X60653842Y-103855068D01*
X60383589Y-103967010D01*
X60140368Y-104129525D01*
X59933525Y-104336368D01*
X59817000Y-104510760D01*
X59700475Y-104336368D01*
X59493632Y-104129525D01*
X59250411Y-103967010D01*
X58980158Y-103855068D01*
X58693260Y-103798000D01*
X58400740Y-103798000D01*
X58113842Y-103855068D01*
X57843589Y-103967010D01*
X57600368Y-104129525D01*
X57468513Y-104261380D01*
X57446502Y-104188820D01*
X57387537Y-104078506D01*
X57308185Y-103981815D01*
X57211494Y-103902463D01*
X57101180Y-103843498D01*
X56981482Y-103807188D01*
X56857000Y-103794928D01*
X55157000Y-103794928D01*
X55032518Y-103807188D01*
X54912820Y-103843498D01*
X54802506Y-103902463D01*
X54705815Y-103981815D01*
X54626463Y-104078506D01*
X54567498Y-104188820D01*
X54531188Y-104308518D01*
X54518928Y-104433000D01*
X49555000Y-104433000D01*
X49555000Y-100940890D01*
X54438524Y-100940890D01*
X54483175Y-101088099D01*
X54608359Y-101350920D01*
X54782412Y-101584269D01*
X54998645Y-101779178D01*
X55248748Y-101928157D01*
X55523109Y-102025481D01*
X55753000Y-101904814D01*
X55753000Y-100711000D01*
X56007000Y-100711000D01*
X56007000Y-101904814D01*
X56236891Y-102025481D01*
X56511252Y-101928157D01*
X56761355Y-101779178D01*
X56977588Y-101584269D01*
X57151641Y-101350920D01*
X57276825Y-101088099D01*
X57294841Y-101028702D01*
X116788903Y-101028702D01*
X116860486Y-101272671D01*
X117115996Y-101393571D01*
X117390184Y-101462300D01*
X117672512Y-101476217D01*
X117952130Y-101434787D01*
X118218292Y-101339603D01*
X118343514Y-101272671D01*
X118415097Y-101028702D01*
X117602000Y-100215605D01*
X116788903Y-101028702D01*
X57294841Y-101028702D01*
X57321476Y-100940890D01*
X57200155Y-100711000D01*
X56007000Y-100711000D01*
X55753000Y-100711000D01*
X54559845Y-100711000D01*
X54438524Y-100940890D01*
X49555000Y-100940890D01*
X49555000Y-97194000D01*
X54391928Y-97194000D01*
X54391928Y-98894000D01*
X54404188Y-99018482D01*
X54440498Y-99138180D01*
X54499463Y-99248494D01*
X54578815Y-99345185D01*
X54675506Y-99424537D01*
X54785820Y-99483502D01*
X54866466Y-99507966D01*
X54782412Y-99583731D01*
X54608359Y-99817080D01*
X54483175Y-100079901D01*
X54438524Y-100227110D01*
X54559845Y-100457000D01*
X55753000Y-100457000D01*
X55753000Y-100437000D01*
X56007000Y-100437000D01*
X56007000Y-100457000D01*
X57200155Y-100457000D01*
X57321476Y-100227110D01*
X57284897Y-100106512D01*
X116161783Y-100106512D01*
X116203213Y-100386130D01*
X116298397Y-100652292D01*
X116365329Y-100777514D01*
X116609298Y-100849097D01*
X117422395Y-100036000D01*
X117781605Y-100036000D01*
X118594702Y-100849097D01*
X118838671Y-100777514D01*
X118959571Y-100522004D01*
X119028300Y-100247816D01*
X119042217Y-99965488D01*
X119000787Y-99685870D01*
X118905603Y-99419708D01*
X118838671Y-99294486D01*
X118594702Y-99222903D01*
X117781605Y-100036000D01*
X117422395Y-100036000D01*
X116609298Y-99222903D01*
X116365329Y-99294486D01*
X116244429Y-99549996D01*
X116175700Y-99824184D01*
X116161783Y-100106512D01*
X57284897Y-100106512D01*
X57276825Y-100079901D01*
X57151641Y-99817080D01*
X56977588Y-99583731D01*
X56893534Y-99507966D01*
X56974180Y-99483502D01*
X57084494Y-99424537D01*
X57181185Y-99345185D01*
X57260537Y-99248494D01*
X57319502Y-99138180D01*
X57355812Y-99018482D01*
X57368072Y-98894000D01*
X57368072Y-97194000D01*
X57355812Y-97069518D01*
X57319502Y-96949820D01*
X57260537Y-96839506D01*
X57181185Y-96742815D01*
X57172881Y-96736000D01*
X116163928Y-96736000D01*
X116163928Y-98336000D01*
X116176188Y-98460482D01*
X116212498Y-98580180D01*
X116271463Y-98690494D01*
X116350815Y-98787185D01*
X116447506Y-98866537D01*
X116557820Y-98925502D01*
X116677518Y-98961812D01*
X116802000Y-98974072D01*
X116809215Y-98974072D01*
X116788903Y-99043298D01*
X117602000Y-99856395D01*
X118415097Y-99043298D01*
X118394785Y-98974072D01*
X118402000Y-98974072D01*
X118526482Y-98961812D01*
X118646180Y-98925502D01*
X118756494Y-98866537D01*
X118853185Y-98787185D01*
X118932537Y-98690494D01*
X118951568Y-98654890D01*
X157562524Y-98654890D01*
X157607175Y-98802099D01*
X157732359Y-99064920D01*
X157906412Y-99298269D01*
X158122645Y-99493178D01*
X158372748Y-99642157D01*
X158647109Y-99739481D01*
X158877000Y-99618814D01*
X158877000Y-98425000D01*
X159131000Y-98425000D01*
X159131000Y-99618814D01*
X159360891Y-99739481D01*
X159635252Y-99642157D01*
X159885355Y-99493178D01*
X160101588Y-99298269D01*
X160275641Y-99064920D01*
X160400825Y-98802099D01*
X160445476Y-98654890D01*
X160324155Y-98425000D01*
X159131000Y-98425000D01*
X158877000Y-98425000D01*
X157683845Y-98425000D01*
X157562524Y-98654890D01*
X118951568Y-98654890D01*
X118991502Y-98580180D01*
X119027812Y-98460482D01*
X119040072Y-98336000D01*
X119040072Y-96736000D01*
X119027812Y-96611518D01*
X118991502Y-96491820D01*
X118932537Y-96381506D01*
X118853185Y-96284815D01*
X118756494Y-96205463D01*
X118646180Y-96146498D01*
X118526482Y-96110188D01*
X118402000Y-96097928D01*
X116802000Y-96097928D01*
X116677518Y-96110188D01*
X116557820Y-96146498D01*
X116447506Y-96205463D01*
X116350815Y-96284815D01*
X116271463Y-96381506D01*
X116212498Y-96491820D01*
X116176188Y-96611518D01*
X116163928Y-96736000D01*
X57172881Y-96736000D01*
X57084494Y-96663463D01*
X56974180Y-96604498D01*
X56854482Y-96568188D01*
X56730000Y-96555928D01*
X55030000Y-96555928D01*
X54905518Y-96568188D01*
X54785820Y-96604498D01*
X54675506Y-96663463D01*
X54578815Y-96742815D01*
X54499463Y-96839506D01*
X54440498Y-96949820D01*
X54404188Y-97069518D01*
X54391928Y-97194000D01*
X49555000Y-97194000D01*
X49555000Y-93732734D01*
X49655862Y-93883685D01*
X50134315Y-94362138D01*
X50696918Y-94738057D01*
X51322048Y-94996994D01*
X51985682Y-95129000D01*
X52662318Y-95129000D01*
X53325952Y-94996994D01*
X53540802Y-94908000D01*
X157515928Y-94908000D01*
X157515928Y-96608000D01*
X157528188Y-96732482D01*
X157564498Y-96852180D01*
X157623463Y-96962494D01*
X157702815Y-97059185D01*
X157799506Y-97138537D01*
X157909820Y-97197502D01*
X157990466Y-97221966D01*
X157906412Y-97297731D01*
X157732359Y-97531080D01*
X157607175Y-97793901D01*
X157562524Y-97941110D01*
X157683845Y-98171000D01*
X158877000Y-98171000D01*
X158877000Y-98151000D01*
X159131000Y-98151000D01*
X159131000Y-98171000D01*
X160324155Y-98171000D01*
X160445476Y-97941110D01*
X160400825Y-97793901D01*
X160275641Y-97531080D01*
X160101588Y-97297731D01*
X160017534Y-97221966D01*
X160098180Y-97197502D01*
X160208494Y-97138537D01*
X160305185Y-97059185D01*
X160384537Y-96962494D01*
X160443502Y-96852180D01*
X160479812Y-96732482D01*
X160492072Y-96608000D01*
X160492072Y-94908000D01*
X160479812Y-94783518D01*
X160443502Y-94663820D01*
X160384537Y-94553506D01*
X160305185Y-94456815D01*
X160208494Y-94377463D01*
X160098180Y-94318498D01*
X159978482Y-94282188D01*
X159854000Y-94269928D01*
X158154000Y-94269928D01*
X158029518Y-94282188D01*
X157909820Y-94318498D01*
X157799506Y-94377463D01*
X157702815Y-94456815D01*
X157623463Y-94553506D01*
X157564498Y-94663820D01*
X157528188Y-94783518D01*
X157515928Y-94908000D01*
X53540802Y-94908000D01*
X53951082Y-94738057D01*
X54513685Y-94362138D01*
X54992138Y-93883685D01*
X55368057Y-93321082D01*
X55626994Y-92695952D01*
X55759000Y-92032318D01*
X55759000Y-91355682D01*
X55626994Y-90692048D01*
X55368057Y-90066918D01*
X54992138Y-89504315D01*
X54513685Y-89025862D01*
X53951082Y-88649943D01*
X53325952Y-88391006D01*
X52662318Y-88259000D01*
X51985682Y-88259000D01*
X51322048Y-88391006D01*
X50696918Y-88649943D01*
X50134315Y-89025862D01*
X49655862Y-89504315D01*
X49555000Y-89655266D01*
X49555000Y-81813000D01*
X54919104Y-81813000D01*
X54832815Y-81883815D01*
G04 #@! TA.AperFunction,Conductor*
D17*
G36*
X54832815Y-81883815D02*
G01*
X54753463Y-81980506D01*
X54694498Y-82090820D01*
X54658188Y-82210518D01*
X54645928Y-82335000D01*
X54645928Y-84035000D01*
X54658188Y-84159482D01*
X54694498Y-84279180D01*
X54753463Y-84389494D01*
X54832815Y-84486185D01*
X54929506Y-84565537D01*
X55039820Y-84624502D01*
X55159518Y-84660812D01*
X55284000Y-84673072D01*
X56984000Y-84673072D01*
X57108482Y-84660812D01*
X57228180Y-84624502D01*
X57338494Y-84565537D01*
X57435185Y-84486185D01*
X57514537Y-84389494D01*
X57573502Y-84279180D01*
X57595513Y-84206620D01*
X57727368Y-84338475D01*
X57970589Y-84500990D01*
X58240842Y-84612932D01*
X58527740Y-84670000D01*
X58820260Y-84670000D01*
X59107158Y-84612932D01*
X59377411Y-84500990D01*
X59620632Y-84338475D01*
X59827475Y-84131632D01*
X59944000Y-83957240D01*
X60060525Y-84131632D01*
X60267368Y-84338475D01*
X60510589Y-84500990D01*
X60780842Y-84612932D01*
X61067740Y-84670000D01*
X61360260Y-84670000D01*
X61647158Y-84612932D01*
X61917411Y-84500990D01*
X62160632Y-84338475D01*
X62367475Y-84131632D01*
X62484000Y-83957240D01*
X62600525Y-84131632D01*
X62807368Y-84338475D01*
X63050589Y-84500990D01*
X63320842Y-84612932D01*
X63607740Y-84670000D01*
X63900260Y-84670000D01*
X64187158Y-84612932D01*
X64457411Y-84500990D01*
X64700632Y-84338475D01*
X64907475Y-84131632D01*
X65024000Y-83957240D01*
X65140525Y-84131632D01*
X65347368Y-84338475D01*
X65590589Y-84500990D01*
X65860842Y-84612932D01*
X66147740Y-84670000D01*
X66440260Y-84670000D01*
X66727158Y-84612932D01*
X66997411Y-84500990D01*
X67240632Y-84338475D01*
X67447475Y-84131632D01*
X67564000Y-83957240D01*
X67680525Y-84131632D01*
X67887368Y-84338475D01*
X68130589Y-84500990D01*
X68400842Y-84612932D01*
X68687740Y-84670000D01*
X68980260Y-84670000D01*
X69267158Y-84612932D01*
X69537411Y-84500990D01*
X69780632Y-84338475D01*
X69987475Y-84131632D01*
X70104000Y-83957240D01*
X70220525Y-84131632D01*
X70427368Y-84338475D01*
X70670589Y-84500990D01*
X70940842Y-84612932D01*
X71227740Y-84670000D01*
X71520260Y-84670000D01*
X71807158Y-84612932D01*
X72077411Y-84500990D01*
X72320632Y-84338475D01*
X72527475Y-84131632D01*
X72644000Y-83957240D01*
X72760525Y-84131632D01*
X72967368Y-84338475D01*
X73210589Y-84500990D01*
X73480842Y-84612932D01*
X73767740Y-84670000D01*
X74060260Y-84670000D01*
X74347158Y-84612932D01*
X74617411Y-84500990D01*
X74860632Y-84338475D01*
X75067475Y-84131632D01*
X75229990Y-83888411D01*
X75341932Y-83618158D01*
X75399000Y-83331260D01*
X75399000Y-83038740D01*
X75341932Y-82751842D01*
X75229990Y-82481589D01*
X75067475Y-82238368D01*
X74860632Y-82031525D01*
X74617411Y-81869010D01*
X74482190Y-81813000D01*
X76255104Y-81813000D01*
X76168815Y-81883815D01*
X76089463Y-81980506D01*
X76030498Y-82090820D01*
X75994188Y-82210518D01*
X75981928Y-82335000D01*
X75981928Y-84035000D01*
X75994188Y-84159482D01*
X76030498Y-84279180D01*
X76089463Y-84389494D01*
X76168815Y-84486185D01*
X76265506Y-84565537D01*
X76375820Y-84624502D01*
X76495518Y-84660812D01*
X76620000Y-84673072D01*
X78320000Y-84673072D01*
X78444482Y-84660812D01*
X78564180Y-84624502D01*
X78674494Y-84565537D01*
X78771185Y-84486185D01*
X78850537Y-84389494D01*
X78909502Y-84279180D01*
X78931513Y-84206620D01*
X79063368Y-84338475D01*
X79306589Y-84500990D01*
X79576842Y-84612932D01*
X79863740Y-84670000D01*
X80156260Y-84670000D01*
X80443158Y-84612932D01*
X80713411Y-84500990D01*
X80956632Y-84338475D01*
X81163475Y-84131632D01*
X81280000Y-83957240D01*
X81396525Y-84131632D01*
X81603368Y-84338475D01*
X81846589Y-84500990D01*
X82116842Y-84612932D01*
X82403740Y-84670000D01*
X82696260Y-84670000D01*
X82983158Y-84612932D01*
X83253411Y-84500990D01*
X83496632Y-84338475D01*
X83703475Y-84131632D01*
X83820000Y-83957240D01*
X83936525Y-84131632D01*
X84143368Y-84338475D01*
X84386589Y-84500990D01*
X84656842Y-84612932D01*
X84943740Y-84670000D01*
X85236260Y-84670000D01*
X85523158Y-84612932D01*
X85793411Y-84500990D01*
X86036632Y-84338475D01*
X86243475Y-84131632D01*
X86360000Y-83957240D01*
X86476525Y-84131632D01*
X86683368Y-84338475D01*
X86926589Y-84500990D01*
X87196842Y-84612932D01*
X87483740Y-84670000D01*
X87776260Y-84670000D01*
X88063158Y-84612932D01*
X88333411Y-84500990D01*
X88576632Y-84338475D01*
X88783475Y-84131632D01*
X88900000Y-83957240D01*
X89016525Y-84131632D01*
X89223368Y-84338475D01*
X89466589Y-84500990D01*
X89736842Y-84612932D01*
X90023740Y-84670000D01*
X90316260Y-84670000D01*
X90603158Y-84612932D01*
X90873411Y-84500990D01*
X91116632Y-84338475D01*
X91323475Y-84131632D01*
X91440000Y-83957240D01*
X91556525Y-84131632D01*
X91763368Y-84338475D01*
X92006589Y-84500990D01*
X92276842Y-84612932D01*
X92563740Y-84670000D01*
X92856260Y-84670000D01*
X93143158Y-84612932D01*
X93413411Y-84500990D01*
X93656632Y-84338475D01*
X93863475Y-84131632D01*
X93980000Y-83957240D01*
X94096525Y-84131632D01*
X94303368Y-84338475D01*
X94546589Y-84500990D01*
X94816842Y-84612932D01*
X95103740Y-84670000D01*
X95396260Y-84670000D01*
X95683158Y-84612932D01*
X95953411Y-84500990D01*
X96196632Y-84338475D01*
X96403475Y-84131632D01*
X96565990Y-83888411D01*
X96677932Y-83618158D01*
X96735000Y-83331260D01*
X96735000Y-83038740D01*
X96677932Y-82751842D01*
X96565990Y-82481589D01*
X96403475Y-82238368D01*
X96196632Y-82031525D01*
X95953411Y-81869010D01*
X95818190Y-81813000D01*
X97591104Y-81813000D01*
X97504815Y-81883815D01*
X97425463Y-81980506D01*
X97366498Y-82090820D01*
X97330188Y-82210518D01*
X97317928Y-82335000D01*
X97317928Y-84035000D01*
X97330188Y-84159482D01*
X97366498Y-84279180D01*
X97425463Y-84389494D01*
X97504815Y-84486185D01*
X97601506Y-84565537D01*
X97711820Y-84624502D01*
X97831518Y-84660812D01*
X97956000Y-84673072D01*
X99656000Y-84673072D01*
X99780482Y-84660812D01*
X99900180Y-84624502D01*
X100010494Y-84565537D01*
X100107185Y-84486185D01*
X100186537Y-84389494D01*
X100245502Y-84279180D01*
X100267513Y-84206620D01*
X100399368Y-84338475D01*
X100642589Y-84500990D01*
X100912842Y-84612932D01*
X101199740Y-84670000D01*
X101492260Y-84670000D01*
X101779158Y-84612932D01*
X102049411Y-84500990D01*
X102292632Y-84338475D01*
X102499475Y-84131632D01*
X102616000Y-83957240D01*
X102732525Y-84131632D01*
X102939368Y-84338475D01*
X103182589Y-84500990D01*
X103452842Y-84612932D01*
X103739740Y-84670000D01*
X104032260Y-84670000D01*
X104319158Y-84612932D01*
X104589411Y-84500990D01*
X104832632Y-84338475D01*
X105039475Y-84131632D01*
X105156000Y-83957240D01*
X105272525Y-84131632D01*
X105479368Y-84338475D01*
X105722589Y-84500990D01*
X105992842Y-84612932D01*
X106279740Y-84670000D01*
X106572260Y-84670000D01*
X106859158Y-84612932D01*
X107129411Y-84500990D01*
X107372632Y-84338475D01*
X107579475Y-84131632D01*
X107696000Y-83957240D01*
X107812525Y-84131632D01*
X108019368Y-84338475D01*
X108262589Y-84500990D01*
X108532842Y-84612932D01*
X108819740Y-84670000D01*
X109112260Y-84670000D01*
X109399158Y-84612932D01*
X109669411Y-84500990D01*
X109912632Y-84338475D01*
X110119475Y-84131632D01*
X110236000Y-83957240D01*
X110352525Y-84131632D01*
X110559368Y-84338475D01*
X110802589Y-84500990D01*
X111072842Y-84612932D01*
X111359740Y-84670000D01*
X111652260Y-84670000D01*
X111939158Y-84612932D01*
X112209411Y-84500990D01*
X112452632Y-84338475D01*
X112659475Y-84131632D01*
X112776000Y-83957240D01*
X112892525Y-84131632D01*
X113099368Y-84338475D01*
X113342589Y-84500990D01*
X113612842Y-84612932D01*
X113899740Y-84670000D01*
X114192260Y-84670000D01*
X114479158Y-84612932D01*
X114749411Y-84500990D01*
X114992632Y-84338475D01*
X115199475Y-84131632D01*
X115316000Y-83957240D01*
X115432525Y-84131632D01*
X115639368Y-84338475D01*
X115882589Y-84500990D01*
X116152842Y-84612932D01*
X116439740Y-84670000D01*
X116732260Y-84670000D01*
X117019158Y-84612932D01*
X117289411Y-84500990D01*
X117532632Y-84338475D01*
X117739475Y-84131632D01*
X117901990Y-83888411D01*
X118013932Y-83618158D01*
X118071000Y-83331260D01*
X118071000Y-83038740D01*
X118013932Y-82751842D01*
X117901990Y-82481589D01*
X117739475Y-82238368D01*
X117532632Y-82031525D01*
X117289411Y-81869010D01*
X117154190Y-81813000D01*
X118927104Y-81813000D01*
X118840815Y-81883815D01*
X118761463Y-81980506D01*
X118702498Y-82090820D01*
X118666188Y-82210518D01*
X118653928Y-82335000D01*
X118653928Y-84035000D01*
X118666188Y-84159482D01*
X118702498Y-84279180D01*
X118761463Y-84389494D01*
X118840815Y-84486185D01*
X118937506Y-84565537D01*
X119047820Y-84624502D01*
X119167518Y-84660812D01*
X119292000Y-84673072D01*
X120992000Y-84673072D01*
X121116482Y-84660812D01*
X121236180Y-84624502D01*
X121346494Y-84565537D01*
X121443185Y-84486185D01*
X121522537Y-84389494D01*
X121581502Y-84279180D01*
X121603513Y-84206620D01*
X121735368Y-84338475D01*
X121978589Y-84500990D01*
X122248842Y-84612932D01*
X122535740Y-84670000D01*
X122828260Y-84670000D01*
X123115158Y-84612932D01*
X123385411Y-84500990D01*
X123628632Y-84338475D01*
X123835475Y-84131632D01*
X123952000Y-83957240D01*
X124068525Y-84131632D01*
X124275368Y-84338475D01*
X124518589Y-84500990D01*
X124788842Y-84612932D01*
X125075740Y-84670000D01*
X125368260Y-84670000D01*
X125655158Y-84612932D01*
X125925411Y-84500990D01*
X126168632Y-84338475D01*
X126375475Y-84131632D01*
X126492000Y-83957240D01*
X126608525Y-84131632D01*
X126815368Y-84338475D01*
X127058589Y-84500990D01*
X127328842Y-84612932D01*
X127615740Y-84670000D01*
X127908260Y-84670000D01*
X128195158Y-84612932D01*
X128465411Y-84500990D01*
X128708632Y-84338475D01*
X128915475Y-84131632D01*
X129032000Y-83957240D01*
X129148525Y-84131632D01*
X129355368Y-84338475D01*
X129598589Y-84500990D01*
X129868842Y-84612932D01*
X130155740Y-84670000D01*
X130448260Y-84670000D01*
X130735158Y-84612932D01*
X131005411Y-84500990D01*
X131248632Y-84338475D01*
X131455475Y-84131632D01*
X131572000Y-83957240D01*
X131688525Y-84131632D01*
X131895368Y-84338475D01*
X132138589Y-84500990D01*
X132408842Y-84612932D01*
X132695740Y-84670000D01*
X132988260Y-84670000D01*
X133275158Y-84612932D01*
X133545411Y-84500990D01*
X133788632Y-84338475D01*
X133995475Y-84131632D01*
X134112000Y-83957240D01*
X134228525Y-84131632D01*
X134435368Y-84338475D01*
X134678589Y-84500990D01*
X134948842Y-84612932D01*
X135235740Y-84670000D01*
X135528260Y-84670000D01*
X135815158Y-84612932D01*
X136085411Y-84500990D01*
X136328632Y-84338475D01*
X136535475Y-84131632D01*
X136652000Y-83957240D01*
X136768525Y-84131632D01*
X136975368Y-84338475D01*
X137218589Y-84500990D01*
X137488842Y-84612932D01*
X137775740Y-84670000D01*
X138068260Y-84670000D01*
X138355158Y-84612932D01*
X138625411Y-84500990D01*
X138868632Y-84338475D01*
X139075475Y-84131632D01*
X139237990Y-83888411D01*
X139349932Y-83618158D01*
X139407000Y-83331260D01*
X139407000Y-83038740D01*
X139349932Y-82751842D01*
X139237990Y-82481589D01*
X139075475Y-82238368D01*
X138868632Y-82031525D01*
X138625411Y-81869010D01*
X138490190Y-81813000D01*
X140263104Y-81813000D01*
X140176815Y-81883815D01*
X140097463Y-81980506D01*
X140038498Y-82090820D01*
X140002188Y-82210518D01*
X139989928Y-82335000D01*
X139989928Y-84035000D01*
X140002188Y-84159482D01*
X140038498Y-84279180D01*
X140097463Y-84389494D01*
X140176815Y-84486185D01*
X140273506Y-84565537D01*
X140383820Y-84624502D01*
X140503518Y-84660812D01*
X140628000Y-84673072D01*
X142328000Y-84673072D01*
X142452482Y-84660812D01*
X142572180Y-84624502D01*
X142682494Y-84565537D01*
X142779185Y-84486185D01*
X142858537Y-84389494D01*
X142917502Y-84279180D01*
X142939513Y-84206620D01*
X143071368Y-84338475D01*
X143314589Y-84500990D01*
X143584842Y-84612932D01*
X143871740Y-84670000D01*
X144164260Y-84670000D01*
X144451158Y-84612932D01*
X144721411Y-84500990D01*
X144964632Y-84338475D01*
X145171475Y-84131632D01*
X145288000Y-83957240D01*
X145404525Y-84131632D01*
X145611368Y-84338475D01*
X145854589Y-84500990D01*
X146124842Y-84612932D01*
X146411740Y-84670000D01*
X146704260Y-84670000D01*
X146991158Y-84612932D01*
X147261411Y-84500990D01*
X147504632Y-84338475D01*
X147711475Y-84131632D01*
X147828000Y-83957240D01*
X147944525Y-84131632D01*
X148151368Y-84338475D01*
X148394589Y-84500990D01*
X148664842Y-84612932D01*
X148951740Y-84670000D01*
X149244260Y-84670000D01*
X149531158Y-84612932D01*
X149801411Y-84500990D01*
X150044632Y-84338475D01*
X150251475Y-84131632D01*
X150368000Y-83957240D01*
X150484525Y-84131632D01*
X150691368Y-84338475D01*
X150934589Y-84500990D01*
X151204842Y-84612932D01*
X151491740Y-84670000D01*
X151784260Y-84670000D01*
X152071158Y-84612932D01*
X152341411Y-84500990D01*
X152584632Y-84338475D01*
X152791475Y-84131632D01*
X152908000Y-83957240D01*
X153024525Y-84131632D01*
X153231368Y-84338475D01*
X153474589Y-84500990D01*
X153744842Y-84612932D01*
X154031740Y-84670000D01*
X154324260Y-84670000D01*
X154611158Y-84612932D01*
X154881411Y-84500990D01*
X155124632Y-84338475D01*
X155331475Y-84131632D01*
X155448000Y-83957240D01*
X155564525Y-84131632D01*
X155771368Y-84338475D01*
X156014589Y-84500990D01*
X156284842Y-84612932D01*
X156571740Y-84670000D01*
X156864260Y-84670000D01*
X157151158Y-84612932D01*
X157421411Y-84500990D01*
X157664632Y-84338475D01*
X157871475Y-84131632D01*
X157988000Y-83957240D01*
X158104525Y-84131632D01*
X158311368Y-84338475D01*
X158554589Y-84500990D01*
X158824842Y-84612932D01*
X159111740Y-84670000D01*
X159404260Y-84670000D01*
X159691158Y-84612932D01*
X159961411Y-84500990D01*
X160204632Y-84338475D01*
X160411475Y-84131632D01*
X160573990Y-83888411D01*
X160685932Y-83618158D01*
X160743000Y-83331260D01*
X160743000Y-83038740D01*
X160685932Y-82751842D01*
X160573990Y-82481589D01*
X160411475Y-82238368D01*
X160204632Y-82031525D01*
X159961411Y-81869010D01*
X159826190Y-81813000D01*
X165456001Y-81813000D01*
X165456001Y-89097178D01*
X165130685Y-88771862D01*
X164568082Y-88395943D01*
X163942952Y-88137006D01*
X163279318Y-88005000D01*
X162602682Y-88005000D01*
X161939048Y-88137006D01*
X161313918Y-88395943D01*
X160751315Y-88771862D01*
X160272862Y-89250315D01*
X159896943Y-89812918D01*
X159638006Y-90438048D01*
X159506000Y-91101682D01*
X159506000Y-91778318D01*
X159638006Y-92441952D01*
X159896943Y-93067082D01*
X160272862Y-93629685D01*
X160751315Y-94108138D01*
X161313918Y-94484057D01*
X161939048Y-94742994D01*
X162602682Y-94875000D01*
X163279318Y-94875000D01*
X163942952Y-94742994D01*
X164568082Y-94484057D01*
X165130685Y-94108138D01*
X165456001Y-93782822D01*
X165456000Y-106909000D01*
X49555000Y-106909000D01*
X49555000Y-104433000D01*
X54518928Y-104433000D01*
X54518928Y-106133000D01*
X54531188Y-106257482D01*
X54567498Y-106377180D01*
X54626463Y-106487494D01*
X54705815Y-106584185D01*
X54802506Y-106663537D01*
X54912820Y-106722502D01*
X55032518Y-106758812D01*
X55157000Y-106771072D01*
X56857000Y-106771072D01*
X56981482Y-106758812D01*
X57101180Y-106722502D01*
X57211494Y-106663537D01*
X57308185Y-106584185D01*
X57387537Y-106487494D01*
X57446502Y-106377180D01*
X57468513Y-106304620D01*
X57600368Y-106436475D01*
X57843589Y-106598990D01*
X58113842Y-106710932D01*
X58400740Y-106768000D01*
X58693260Y-106768000D01*
X58980158Y-106710932D01*
X59250411Y-106598990D01*
X59493632Y-106436475D01*
X59700475Y-106229632D01*
X59817000Y-106055240D01*
X59933525Y-106229632D01*
X60140368Y-106436475D01*
X60383589Y-106598990D01*
X60653842Y-106710932D01*
X60940740Y-106768000D01*
X61233260Y-106768000D01*
X61520158Y-106710932D01*
X61790411Y-106598990D01*
X62033632Y-106436475D01*
X62240475Y-106229632D01*
X62357000Y-106055240D01*
X62473525Y-106229632D01*
X62680368Y-106436475D01*
X62923589Y-106598990D01*
X63193842Y-106710932D01*
X63480740Y-106768000D01*
X63773260Y-106768000D01*
X64060158Y-106710932D01*
X64330411Y-106598990D01*
X64573632Y-106436475D01*
X64780475Y-106229632D01*
X64897000Y-106055240D01*
X65013525Y-106229632D01*
X65220368Y-106436475D01*
X65463589Y-106598990D01*
X65733842Y-106710932D01*
X66020740Y-106768000D01*
X66313260Y-106768000D01*
X66600158Y-106710932D01*
X66870411Y-106598990D01*
X67113632Y-106436475D01*
X67320475Y-106229632D01*
X67437000Y-106055240D01*
X67553525Y-106229632D01*
X67760368Y-106436475D01*
X68003589Y-106598990D01*
X68273842Y-106710932D01*
X68560740Y-106768000D01*
X68853260Y-106768000D01*
X69140158Y-106710932D01*
X69410411Y-106598990D01*
X69653632Y-106436475D01*
X69860475Y-106229632D01*
X69977000Y-106055240D01*
X70093525Y-106229632D01*
X70300368Y-106436475D01*
X70543589Y-106598990D01*
X70813842Y-106710932D01*
X71100740Y-106768000D01*
X71393260Y-106768000D01*
X71680158Y-106710932D01*
X71950411Y-106598990D01*
X72193632Y-106436475D01*
X72400475Y-106229632D01*
X72517000Y-106055240D01*
X72633525Y-106229632D01*
X72840368Y-106436475D01*
X73083589Y-106598990D01*
X73353842Y-106710932D01*
X73640740Y-106768000D01*
X73933260Y-106768000D01*
X74220158Y-106710932D01*
X74490411Y-106598990D01*
X74733632Y-106436475D01*
X74940475Y-106229632D01*
X75102990Y-105986411D01*
X75214932Y-105716158D01*
X75272000Y-105429260D01*
X75272000Y-105136740D01*
X75214932Y-104849842D01*
X75102990Y-104579589D01*
X75005043Y-104433000D01*
X75854928Y-104433000D01*
X75854928Y-106133000D01*
X75867188Y-106257482D01*
X75903498Y-106377180D01*
X75962463Y-106487494D01*
X76041815Y-106584185D01*
X76138506Y-106663537D01*
X76248820Y-106722502D01*
X76368518Y-106758812D01*
X76493000Y-106771072D01*
X78193000Y-106771072D01*
X78317482Y-106758812D01*
X78437180Y-106722502D01*
X78547494Y-106663537D01*
X78644185Y-106584185D01*
X78723537Y-106487494D01*
X78782502Y-106377180D01*
X78804513Y-106304620D01*
X78936368Y-106436475D01*
X79179589Y-106598990D01*
X79449842Y-106710932D01*
X79736740Y-106768000D01*
X80029260Y-106768000D01*
X80316158Y-106710932D01*
X80586411Y-106598990D01*
X80829632Y-106436475D01*
X81036475Y-106229632D01*
X81153000Y-106055240D01*
X81269525Y-106229632D01*
X81476368Y-106436475D01*
X81719589Y-106598990D01*
X81989842Y-106710932D01*
X82276740Y-106768000D01*
X82569260Y-106768000D01*
X82856158Y-106710932D01*
X83126411Y-106598990D01*
X83369632Y-106436475D01*
X83576475Y-106229632D01*
X83693000Y-106055240D01*
X83809525Y-106229632D01*
X84016368Y-106436475D01*
X84259589Y-106598990D01*
X84529842Y-106710932D01*
X84816740Y-106768000D01*
X85109260Y-106768000D01*
X85396158Y-106710932D01*
X85666411Y-106598990D01*
X85909632Y-106436475D01*
X86116475Y-106229632D01*
X86233000Y-106055240D01*
X86349525Y-106229632D01*
X86556368Y-106436475D01*
X86799589Y-106598990D01*
X87069842Y-106710932D01*
X87356740Y-106768000D01*
X87649260Y-106768000D01*
X87936158Y-106710932D01*
X88206411Y-106598990D01*
X88449632Y-106436475D01*
X88656475Y-106229632D01*
X88773000Y-106055240D01*
X88889525Y-106229632D01*
X89096368Y-106436475D01*
X89339589Y-106598990D01*
X89609842Y-106710932D01*
X89896740Y-106768000D01*
X90189260Y-106768000D01*
X90476158Y-106710932D01*
X90746411Y-106598990D01*
X90989632Y-106436475D01*
X91196475Y-106229632D01*
X91313000Y-106055240D01*
X91429525Y-106229632D01*
X91636368Y-106436475D01*
X91879589Y-106598990D01*
X92149842Y-106710932D01*
X92436740Y-106768000D01*
X92729260Y-106768000D01*
X93016158Y-106710932D01*
X93286411Y-106598990D01*
X93529632Y-106436475D01*
X93736475Y-106229632D01*
X93853000Y-106055240D01*
X93969525Y-106229632D01*
X94176368Y-106436475D01*
X94419589Y-106598990D01*
X94689842Y-106710932D01*
X94976740Y-106768000D01*
X95269260Y-106768000D01*
X95556158Y-106710932D01*
X95826411Y-106598990D01*
X96069632Y-106436475D01*
X96276475Y-106229632D01*
X96438990Y-105986411D01*
X96550932Y-105716158D01*
X96608000Y-105429260D01*
X96608000Y-105136740D01*
X96550932Y-104849842D01*
X96438990Y-104579589D01*
X96341043Y-104433000D01*
X97190928Y-104433000D01*
X97190928Y-106133000D01*
X97203188Y-106257482D01*
X97239498Y-106377180D01*
X97298463Y-106487494D01*
X97377815Y-106584185D01*
X97474506Y-106663537D01*
X97584820Y-106722502D01*
X97704518Y-106758812D01*
X97829000Y-106771072D01*
X99529000Y-106771072D01*
X99653482Y-106758812D01*
X99773180Y-106722502D01*
X99883494Y-106663537D01*
X99980185Y-106584185D01*
X100059537Y-106487494D01*
X100118502Y-106377180D01*
X100140513Y-106304620D01*
X100272368Y-106436475D01*
X100515589Y-106598990D01*
X100785842Y-106710932D01*
X101072740Y-106768000D01*
X101365260Y-106768000D01*
X101652158Y-106710932D01*
X101922411Y-106598990D01*
X102165632Y-106436475D01*
X102372475Y-106229632D01*
X102489000Y-106055240D01*
X102605525Y-106229632D01*
X102812368Y-106436475D01*
X103055589Y-106598990D01*
X103325842Y-106710932D01*
X103612740Y-106768000D01*
X103905260Y-106768000D01*
X104192158Y-106710932D01*
X104462411Y-106598990D01*
X104705632Y-106436475D01*
X104912475Y-106229632D01*
X105029000Y-106055240D01*
X105145525Y-106229632D01*
X105352368Y-106436475D01*
X105595589Y-106598990D01*
X105865842Y-106710932D01*
X106152740Y-106768000D01*
X106445260Y-106768000D01*
X106732158Y-106710932D01*
X107002411Y-106598990D01*
X107245632Y-106436475D01*
X107452475Y-106229632D01*
X107569000Y-106055240D01*
X107685525Y-106229632D01*
X107892368Y-106436475D01*
X108135589Y-106598990D01*
X108405842Y-106710932D01*
X108692740Y-106768000D01*
X108985260Y-106768000D01*
X109272158Y-106710932D01*
X109542411Y-106598990D01*
X109785632Y-106436475D01*
X109992475Y-106229632D01*
X110109000Y-106055240D01*
X110225525Y-106229632D01*
X110432368Y-106436475D01*
X110675589Y-106598990D01*
X110945842Y-106710932D01*
X111232740Y-106768000D01*
X111525260Y-106768000D01*
X111812158Y-106710932D01*
X112082411Y-106598990D01*
X112325632Y-106436475D01*
X112532475Y-106229632D01*
X112649000Y-106055240D01*
X112765525Y-106229632D01*
X112972368Y-106436475D01*
X113215589Y-106598990D01*
X113485842Y-106710932D01*
X113772740Y-106768000D01*
X114065260Y-106768000D01*
X114352158Y-106710932D01*
X114622411Y-106598990D01*
X114865632Y-106436475D01*
X115072475Y-106229632D01*
X115189000Y-106055240D01*
X115305525Y-106229632D01*
X115512368Y-106436475D01*
X115755589Y-106598990D01*
X116025842Y-106710932D01*
X116312740Y-106768000D01*
X116605260Y-106768000D01*
X116892158Y-106710932D01*
X117162411Y-106598990D01*
X117405632Y-106436475D01*
X117612475Y-106229632D01*
X117774990Y-105986411D01*
X117886932Y-105716158D01*
X117944000Y-105429260D01*
X117944000Y-105136740D01*
X117886932Y-104849842D01*
X117774990Y-104579589D01*
X117677043Y-104433000D01*
X118526928Y-104433000D01*
X118526928Y-106133000D01*
X118539188Y-106257482D01*
X118575498Y-106377180D01*
X118634463Y-106487494D01*
X118713815Y-106584185D01*
X118810506Y-106663537D01*
X118920820Y-106722502D01*
X119040518Y-106758812D01*
X119165000Y-106771072D01*
X120865000Y-106771072D01*
X120989482Y-106758812D01*
X121109180Y-106722502D01*
X121219494Y-106663537D01*
X121316185Y-106584185D01*
X121395537Y-106487494D01*
X121454502Y-106377180D01*
X121476513Y-106304620D01*
X121608368Y-106436475D01*
X121851589Y-106598990D01*
X122121842Y-106710932D01*
X122408740Y-106768000D01*
X122701260Y-106768000D01*
X122988158Y-106710932D01*
X123258411Y-106598990D01*
X123501632Y-106436475D01*
X123708475Y-106229632D01*
X123825000Y-106055240D01*
X123941525Y-106229632D01*
X124148368Y-106436475D01*
X124391589Y-106598990D01*
X124661842Y-106710932D01*
X124948740Y-106768000D01*
X125241260Y-106768000D01*
X125528158Y-106710932D01*
X125798411Y-106598990D01*
X126041632Y-106436475D01*
X126248475Y-106229632D01*
X126365000Y-106055240D01*
X126481525Y-106229632D01*
X126688368Y-106436475D01*
X126931589Y-106598990D01*
X127201842Y-106710932D01*
X127488740Y-106768000D01*
X127781260Y-106768000D01*
X128068158Y-106710932D01*
X128338411Y-106598990D01*
X128581632Y-106436475D01*
X128788475Y-106229632D01*
X128905000Y-106055240D01*
X129021525Y-106229632D01*
X129228368Y-106436475D01*
X129471589Y-106598990D01*
X129741842Y-106710932D01*
X130028740Y-106768000D01*
X130321260Y-106768000D01*
X130608158Y-106710932D01*
X130878411Y-106598990D01*
X131121632Y-106436475D01*
X131328475Y-106229632D01*
X131445000Y-106055240D01*
X131561525Y-106229632D01*
X131768368Y-106436475D01*
X132011589Y-106598990D01*
X132281842Y-106710932D01*
X132568740Y-106768000D01*
X132861260Y-106768000D01*
X133148158Y-106710932D01*
X133418411Y-106598990D01*
X133661632Y-106436475D01*
X133868475Y-106229632D01*
X133985000Y-106055240D01*
X134101525Y-106229632D01*
X134308368Y-106436475D01*
X134551589Y-106598990D01*
X134821842Y-106710932D01*
X135108740Y-106768000D01*
X135401260Y-106768000D01*
X135688158Y-106710932D01*
X135958411Y-106598990D01*
X136201632Y-106436475D01*
X136408475Y-106229632D01*
X136525000Y-106055240D01*
X136641525Y-106229632D01*
X136848368Y-106436475D01*
X137091589Y-106598990D01*
X137361842Y-106710932D01*
X137648740Y-106768000D01*
X137941260Y-106768000D01*
X138228158Y-106710932D01*
X138498411Y-106598990D01*
X138741632Y-106436475D01*
X138948475Y-106229632D01*
X139110990Y-105986411D01*
X139222932Y-105716158D01*
X139280000Y-105429260D01*
X139280000Y-105136740D01*
X139222932Y-104849842D01*
X139110990Y-104579589D01*
X139013043Y-104433000D01*
X139862928Y-104433000D01*
X139862928Y-106133000D01*
X139875188Y-106257482D01*
X139911498Y-106377180D01*
X139970463Y-106487494D01*
X140049815Y-106584185D01*
X140146506Y-106663537D01*
X140256820Y-106722502D01*
X140376518Y-106758812D01*
X140501000Y-106771072D01*
X142201000Y-106771072D01*
X142325482Y-106758812D01*
X142445180Y-106722502D01*
X142555494Y-106663537D01*
X142652185Y-106584185D01*
X142731537Y-106487494D01*
X142790502Y-106377180D01*
X142812513Y-106304620D01*
X142944368Y-106436475D01*
X143187589Y-106598990D01*
X143457842Y-106710932D01*
X143744740Y-106768000D01*
X144037260Y-106768000D01*
X144324158Y-106710932D01*
X144594411Y-106598990D01*
X144837632Y-106436475D01*
X145044475Y-106229632D01*
X145161000Y-106055240D01*
X145277525Y-106229632D01*
X145484368Y-106436475D01*
X145727589Y-106598990D01*
X145997842Y-106710932D01*
X146284740Y-106768000D01*
X146577260Y-106768000D01*
X146864158Y-106710932D01*
X147134411Y-106598990D01*
X147377632Y-106436475D01*
X147584475Y-106229632D01*
X147701000Y-106055240D01*
X147817525Y-106229632D01*
X148024368Y-106436475D01*
X148267589Y-106598990D01*
X148537842Y-106710932D01*
X148824740Y-106768000D01*
X149117260Y-106768000D01*
X149404158Y-106710932D01*
X149674411Y-106598990D01*
X149917632Y-106436475D01*
X150124475Y-106229632D01*
X150241000Y-106055240D01*
X150357525Y-106229632D01*
X150564368Y-106436475D01*
X150807589Y-106598990D01*
X151077842Y-106710932D01*
X151364740Y-106768000D01*
X151657260Y-106768000D01*
X151944158Y-106710932D01*
X152214411Y-106598990D01*
X152457632Y-106436475D01*
X152664475Y-106229632D01*
X152781000Y-106055240D01*
X152897525Y-106229632D01*
X153104368Y-106436475D01*
X153347589Y-106598990D01*
X153617842Y-106710932D01*
X153904740Y-106768000D01*
X154197260Y-106768000D01*
X154484158Y-106710932D01*
X154754411Y-106598990D01*
X154997632Y-106436475D01*
X155204475Y-106229632D01*
X155321000Y-106055240D01*
X155437525Y-106229632D01*
X155644368Y-106436475D01*
X155887589Y-106598990D01*
X156157842Y-106710932D01*
X156444740Y-106768000D01*
X156737260Y-106768000D01*
X157024158Y-106710932D01*
X157294411Y-106598990D01*
X157537632Y-106436475D01*
X157744475Y-106229632D01*
X157861000Y-106055240D01*
X157977525Y-106229632D01*
X158184368Y-106436475D01*
X158427589Y-106598990D01*
X158697842Y-106710932D01*
X158984740Y-106768000D01*
X159277260Y-106768000D01*
X159564158Y-106710932D01*
X159834411Y-106598990D01*
X160077632Y-106436475D01*
X160284475Y-106229632D01*
X160446990Y-105986411D01*
X160558932Y-105716158D01*
X160616000Y-105429260D01*
X160616000Y-105136740D01*
X160558932Y-104849842D01*
X160446990Y-104579589D01*
X160284475Y-104336368D01*
X160077632Y-104129525D01*
X159834411Y-103967010D01*
X159564158Y-103855068D01*
X159277260Y-103798000D01*
X158984740Y-103798000D01*
X158697842Y-103855068D01*
X158427589Y-103967010D01*
X158184368Y-104129525D01*
X157977525Y-104336368D01*
X157861000Y-104510760D01*
X157744475Y-104336368D01*
X157537632Y-104129525D01*
X157294411Y-103967010D01*
X157024158Y-103855068D01*
X156737260Y-103798000D01*
X156444740Y-103798000D01*
X156157842Y-103855068D01*
X155887589Y-103967010D01*
X155644368Y-104129525D01*
X155437525Y-104336368D01*
X155321000Y-104510760D01*
X155204475Y-104336368D01*
X154997632Y-104129525D01*
X154754411Y-103967010D01*
X154484158Y-103855068D01*
X154197260Y-103798000D01*
X153904740Y-103798000D01*
X153617842Y-103855068D01*
X153347589Y-103967010D01*
X153104368Y-104129525D01*
X152897525Y-104336368D01*
X152781000Y-104510760D01*
X152664475Y-104336368D01*
X152457632Y-104129525D01*
X152214411Y-103967010D01*
X151944158Y-103855068D01*
X151657260Y-103798000D01*
X151364740Y-103798000D01*
X151077842Y-103855068D01*
X150807589Y-103967010D01*
X150564368Y-104129525D01*
X150357525Y-104336368D01*
X150241000Y-104510760D01*
X150124475Y-104336368D01*
X149917632Y-104129525D01*
X149674411Y-103967010D01*
X149404158Y-103855068D01*
X149117260Y-103798000D01*
X148824740Y-103798000D01*
X148537842Y-103855068D01*
X148267589Y-103967010D01*
X148024368Y-104129525D01*
X147817525Y-104336368D01*
X147701000Y-104510760D01*
X147584475Y-104336368D01*
X147377632Y-104129525D01*
X147134411Y-103967010D01*
X146864158Y-103855068D01*
X146577260Y-103798000D01*
X146284740Y-103798000D01*
X145997842Y-103855068D01*
X145727589Y-103967010D01*
X145484368Y-104129525D01*
X145277525Y-104336368D01*
X145161000Y-104510760D01*
X145044475Y-104336368D01*
X144837632Y-104129525D01*
X144594411Y-103967010D01*
X144324158Y-103855068D01*
X144037260Y-103798000D01*
X143744740Y-103798000D01*
X143457842Y-103855068D01*
X143187589Y-103967010D01*
X142944368Y-104129525D01*
X142812513Y-104261380D01*
X142790502Y-104188820D01*
X142731537Y-104078506D01*
X142652185Y-103981815D01*
X142555494Y-103902463D01*
X142445180Y-103843498D01*
X142325482Y-103807188D01*
X142201000Y-103794928D01*
X140501000Y-103794928D01*
X140376518Y-103807188D01*
X140256820Y-103843498D01*
X140146506Y-103902463D01*
X140049815Y-103981815D01*
X139970463Y-104078506D01*
X139911498Y-104188820D01*
X139875188Y-104308518D01*
X139862928Y-104433000D01*
X139013043Y-104433000D01*
X138948475Y-104336368D01*
X138741632Y-104129525D01*
X138498411Y-103967010D01*
X138228158Y-103855068D01*
X137941260Y-103798000D01*
X137648740Y-103798000D01*
X137361842Y-103855068D01*
X137091589Y-103967010D01*
X136848368Y-104129525D01*
X136641525Y-104336368D01*
X136525000Y-104510760D01*
X136408475Y-104336368D01*
X136201632Y-104129525D01*
X135958411Y-103967010D01*
X135688158Y-103855068D01*
X135401260Y-103798000D01*
X135108740Y-103798000D01*
X134821842Y-103855068D01*
X134551589Y-103967010D01*
X134308368Y-104129525D01*
X134101525Y-104336368D01*
X133985000Y-104510760D01*
X133868475Y-104336368D01*
X133661632Y-104129525D01*
X133418411Y-103967010D01*
X133148158Y-103855068D01*
X132861260Y-103798000D01*
X132568740Y-103798000D01*
X132281842Y-103855068D01*
X132011589Y-103967010D01*
X131768368Y-104129525D01*
X131561525Y-104336368D01*
X131445000Y-104510760D01*
X131328475Y-104336368D01*
X131121632Y-104129525D01*
X130878411Y-103967010D01*
X130608158Y-103855068D01*
X130321260Y-103798000D01*
X130028740Y-103798000D01*
X129741842Y-103855068D01*
X129471589Y-103967010D01*
X129228368Y-104129525D01*
X129021525Y-104336368D01*
X128905000Y-104510760D01*
X128788475Y-104336368D01*
X128581632Y-104129525D01*
X128338411Y-103967010D01*
X128068158Y-103855068D01*
X127781260Y-103798000D01*
X127488740Y-103798000D01*
X127201842Y-103855068D01*
X126931589Y-103967010D01*
X126688368Y-104129525D01*
X126481525Y-104336368D01*
X126365000Y-104510760D01*
X126248475Y-104336368D01*
X126041632Y-104129525D01*
X125798411Y-103967010D01*
X125528158Y-103855068D01*
X125241260Y-103798000D01*
X124948740Y-103798000D01*
X124661842Y-103855068D01*
X124391589Y-103967010D01*
X124148368Y-104129525D01*
X123941525Y-104336368D01*
X123825000Y-104510760D01*
X123708475Y-104336368D01*
X123501632Y-104129525D01*
X123258411Y-103967010D01*
X122988158Y-103855068D01*
X122701260Y-103798000D01*
X122408740Y-103798000D01*
X122121842Y-103855068D01*
X121851589Y-103967010D01*
X121608368Y-104129525D01*
X121476513Y-104261380D01*
X121454502Y-104188820D01*
X121395537Y-104078506D01*
X121316185Y-103981815D01*
X121219494Y-103902463D01*
X121109180Y-103843498D01*
X120989482Y-103807188D01*
X120865000Y-103794928D01*
X119165000Y-103794928D01*
X119040518Y-103807188D01*
X118920820Y-103843498D01*
X118810506Y-103902463D01*
X118713815Y-103981815D01*
X118634463Y-104078506D01*
X118575498Y-104188820D01*
X118539188Y-104308518D01*
X118526928Y-104433000D01*
X117677043Y-104433000D01*
X117612475Y-104336368D01*
X117405632Y-104129525D01*
X117162411Y-103967010D01*
X116892158Y-103855068D01*
X116605260Y-103798000D01*
X116312740Y-103798000D01*
X116025842Y-103855068D01*
X115755589Y-103967010D01*
X115512368Y-104129525D01*
X115305525Y-104336368D01*
X115189000Y-104510760D01*
X115072475Y-104336368D01*
X114865632Y-104129525D01*
X114622411Y-103967010D01*
X114352158Y-103855068D01*
X114065260Y-103798000D01*
X113772740Y-103798000D01*
X113485842Y-103855068D01*
X113215589Y-103967010D01*
X112972368Y-104129525D01*
X112765525Y-104336368D01*
X112649000Y-104510760D01*
X112532475Y-104336368D01*
X112325632Y-104129525D01*
X112082411Y-103967010D01*
X111812158Y-103855068D01*
X111525260Y-103798000D01*
X111232740Y-103798000D01*
X110945842Y-103855068D01*
X110675589Y-103967010D01*
X110432368Y-104129525D01*
X110225525Y-104336368D01*
X110109000Y-104510760D01*
X109992475Y-104336368D01*
X109785632Y-104129525D01*
X109542411Y-103967010D01*
X109272158Y-103855068D01*
X108985260Y-103798000D01*
X108692740Y-103798000D01*
X108405842Y-103855068D01*
X108135589Y-103967010D01*
X107892368Y-104129525D01*
X107685525Y-104336368D01*
X107569000Y-104510760D01*
X107452475Y-104336368D01*
X107245632Y-104129525D01*
X107002411Y-103967010D01*
X106732158Y-103855068D01*
X106445260Y-103798000D01*
X106152740Y-103798000D01*
X105865842Y-103855068D01*
X105595589Y-103967010D01*
X105352368Y-104129525D01*
X105145525Y-104336368D01*
X105029000Y-104510760D01*
X104912475Y-104336368D01*
X104705632Y-104129525D01*
X104462411Y-103967010D01*
X104192158Y-103855068D01*
X103905260Y-103798000D01*
X103612740Y-103798000D01*
X103325842Y-103855068D01*
X103055589Y-103967010D01*
X102812368Y-104129525D01*
X102605525Y-104336368D01*
X102489000Y-104510760D01*
X102372475Y-104336368D01*
X102165632Y-104129525D01*
X101922411Y-103967010D01*
X101652158Y-103855068D01*
X101365260Y-103798000D01*
X101072740Y-103798000D01*
X100785842Y-103855068D01*
X100515589Y-103967010D01*
X100272368Y-104129525D01*
X100140513Y-104261380D01*
X100118502Y-104188820D01*
X100059537Y-104078506D01*
X99980185Y-103981815D01*
X99883494Y-103902463D01*
X99773180Y-103843498D01*
X99653482Y-103807188D01*
X99529000Y-103794928D01*
X97829000Y-103794928D01*
X97704518Y-103807188D01*
X97584820Y-103843498D01*
X97474506Y-103902463D01*
X97377815Y-103981815D01*
X97298463Y-104078506D01*
X97239498Y-104188820D01*
X97203188Y-104308518D01*
X97190928Y-104433000D01*
X96341043Y-104433000D01*
X96276475Y-104336368D01*
X96069632Y-104129525D01*
X95826411Y-103967010D01*
X95556158Y-103855068D01*
X95269260Y-103798000D01*
X94976740Y-103798000D01*
X94689842Y-103855068D01*
X94419589Y-103967010D01*
X94176368Y-104129525D01*
X93969525Y-104336368D01*
X93853000Y-104510760D01*
X93736475Y-104336368D01*
X93529632Y-104129525D01*
X93286411Y-103967010D01*
X93016158Y-103855068D01*
X92729260Y-103798000D01*
X92436740Y-103798000D01*
X92149842Y-103855068D01*
X91879589Y-103967010D01*
X91636368Y-104129525D01*
X91429525Y-104336368D01*
X91313000Y-104510760D01*
X91196475Y-104336368D01*
X90989632Y-104129525D01*
X90746411Y-103967010D01*
X90476158Y-103855068D01*
X90189260Y-103798000D01*
X89896740Y-103798000D01*
X89609842Y-103855068D01*
X89339589Y-103967010D01*
X89096368Y-104129525D01*
X88889525Y-104336368D01*
X88773000Y-104510760D01*
X88656475Y-104336368D01*
X88449632Y-104129525D01*
X88206411Y-103967010D01*
X87936158Y-103855068D01*
X87649260Y-103798000D01*
X87356740Y-103798000D01*
X87069842Y-103855068D01*
X86799589Y-103967010D01*
X86556368Y-104129525D01*
X86349525Y-104336368D01*
X86233000Y-104510760D01*
X86116475Y-104336368D01*
X85909632Y-104129525D01*
X85666411Y-103967010D01*
X85396158Y-103855068D01*
X85109260Y-103798000D01*
X84816740Y-103798000D01*
X84529842Y-103855068D01*
X84259589Y-103967010D01*
X84016368Y-104129525D01*
X83809525Y-104336368D01*
X83693000Y-104510760D01*
X83576475Y-104336368D01*
X83369632Y-104129525D01*
X83126411Y-103967010D01*
X82856158Y-103855068D01*
X82569260Y-103798000D01*
X82276740Y-103798000D01*
X81989842Y-103855068D01*
X81719589Y-103967010D01*
X81476368Y-104129525D01*
X81269525Y-104336368D01*
X81153000Y-104510760D01*
X81036475Y-104336368D01*
X80829632Y-104129525D01*
X80586411Y-103967010D01*
X80316158Y-103855068D01*
X80029260Y-103798000D01*
X79736740Y-103798000D01*
X79449842Y-103855068D01*
X79179589Y-103967010D01*
X78936368Y-104129525D01*
X78804513Y-104261380D01*
X78782502Y-104188820D01*
X78723537Y-104078506D01*
X78644185Y-103981815D01*
X78547494Y-103902463D01*
X78437180Y-103843498D01*
X78317482Y-103807188D01*
X78193000Y-103794928D01*
X76493000Y-103794928D01*
X76368518Y-103807188D01*
X76248820Y-103843498D01*
X76138506Y-103902463D01*
X76041815Y-103981815D01*
X75962463Y-104078506D01*
X75903498Y-104188820D01*
X75867188Y-104308518D01*
X75854928Y-104433000D01*
X75005043Y-104433000D01*
X74940475Y-104336368D01*
X74733632Y-104129525D01*
X74490411Y-103967010D01*
X74220158Y-103855068D01*
X73933260Y-103798000D01*
X73640740Y-103798000D01*
X73353842Y-103855068D01*
X73083589Y-103967010D01*
X72840368Y-104129525D01*
X72633525Y-104336368D01*
X72517000Y-104510760D01*
X72400475Y-104336368D01*
X72193632Y-104129525D01*
X71950411Y-103967010D01*
X71680158Y-103855068D01*
X71393260Y-103798000D01*
X71100740Y-103798000D01*
X70813842Y-103855068D01*
X70543589Y-103967010D01*
X70300368Y-104129525D01*
X70093525Y-104336368D01*
X69977000Y-104510760D01*
X69860475Y-104336368D01*
X69653632Y-104129525D01*
X69410411Y-103967010D01*
X69140158Y-103855068D01*
X68853260Y-103798000D01*
X68560740Y-103798000D01*
X68273842Y-103855068D01*
X68003589Y-103967010D01*
X67760368Y-104129525D01*
X67553525Y-104336368D01*
X67437000Y-104510760D01*
X67320475Y-104336368D01*
X67113632Y-104129525D01*
X66870411Y-103967010D01*
X66600158Y-103855068D01*
X66313260Y-103798000D01*
X66020740Y-103798000D01*
X65733842Y-103855068D01*
X65463589Y-103967010D01*
X65220368Y-104129525D01*
X65013525Y-104336368D01*
X64897000Y-104510760D01*
X64780475Y-104336368D01*
X64573632Y-104129525D01*
X64330411Y-103967010D01*
X64060158Y-103855068D01*
X63773260Y-103798000D01*
X63480740Y-103798000D01*
X63193842Y-103855068D01*
X62923589Y-103967010D01*
X62680368Y-104129525D01*
X62473525Y-104336368D01*
X62357000Y-104510760D01*
X62240475Y-104336368D01*
X62033632Y-104129525D01*
X61790411Y-103967010D01*
X61520158Y-103855068D01*
X61233260Y-103798000D01*
X60940740Y-103798000D01*
X60653842Y-103855068D01*
X60383589Y-103967010D01*
X60140368Y-104129525D01*
X59933525Y-104336368D01*
X59817000Y-104510760D01*
X59700475Y-104336368D01*
X59493632Y-104129525D01*
X59250411Y-103967010D01*
X58980158Y-103855068D01*
X58693260Y-103798000D01*
X58400740Y-103798000D01*
X58113842Y-103855068D01*
X57843589Y-103967010D01*
X57600368Y-104129525D01*
X57468513Y-104261380D01*
X57446502Y-104188820D01*
X57387537Y-104078506D01*
X57308185Y-103981815D01*
X57211494Y-103902463D01*
X57101180Y-103843498D01*
X56981482Y-103807188D01*
X56857000Y-103794928D01*
X55157000Y-103794928D01*
X55032518Y-103807188D01*
X54912820Y-103843498D01*
X54802506Y-103902463D01*
X54705815Y-103981815D01*
X54626463Y-104078506D01*
X54567498Y-104188820D01*
X54531188Y-104308518D01*
X54518928Y-104433000D01*
X49555000Y-104433000D01*
X49555000Y-100940890D01*
X54438524Y-100940890D01*
X54483175Y-101088099D01*
X54608359Y-101350920D01*
X54782412Y-101584269D01*
X54998645Y-101779178D01*
X55248748Y-101928157D01*
X55523109Y-102025481D01*
X55753000Y-101904814D01*
X55753000Y-100711000D01*
X56007000Y-100711000D01*
X56007000Y-101904814D01*
X56236891Y-102025481D01*
X56511252Y-101928157D01*
X56761355Y-101779178D01*
X56977588Y-101584269D01*
X57151641Y-101350920D01*
X57276825Y-101088099D01*
X57294841Y-101028702D01*
X116788903Y-101028702D01*
X116860486Y-101272671D01*
X117115996Y-101393571D01*
X117390184Y-101462300D01*
X117672512Y-101476217D01*
X117952130Y-101434787D01*
X118218292Y-101339603D01*
X118343514Y-101272671D01*
X118415097Y-101028702D01*
X117602000Y-100215605D01*
X116788903Y-101028702D01*
X57294841Y-101028702D01*
X57321476Y-100940890D01*
X57200155Y-100711000D01*
X56007000Y-100711000D01*
X55753000Y-100711000D01*
X54559845Y-100711000D01*
X54438524Y-100940890D01*
X49555000Y-100940890D01*
X49555000Y-97194000D01*
X54391928Y-97194000D01*
X54391928Y-98894000D01*
X54404188Y-99018482D01*
X54440498Y-99138180D01*
X54499463Y-99248494D01*
X54578815Y-99345185D01*
X54675506Y-99424537D01*
X54785820Y-99483502D01*
X54866466Y-99507966D01*
X54782412Y-99583731D01*
X54608359Y-99817080D01*
X54483175Y-100079901D01*
X54438524Y-100227110D01*
X54559845Y-100457000D01*
X55753000Y-100457000D01*
X55753000Y-100437000D01*
X56007000Y-100437000D01*
X56007000Y-100457000D01*
X57200155Y-100457000D01*
X57321476Y-100227110D01*
X57284897Y-100106512D01*
X116161783Y-100106512D01*
X116203213Y-100386130D01*
X116298397Y-100652292D01*
X116365329Y-100777514D01*
X116609298Y-100849097D01*
X117422395Y-100036000D01*
X117781605Y-100036000D01*
X118594702Y-100849097D01*
X118838671Y-100777514D01*
X118959571Y-100522004D01*
X119028300Y-100247816D01*
X119042217Y-99965488D01*
X119000787Y-99685870D01*
X118905603Y-99419708D01*
X118838671Y-99294486D01*
X118594702Y-99222903D01*
X117781605Y-100036000D01*
X117422395Y-100036000D01*
X116609298Y-99222903D01*
X116365329Y-99294486D01*
X116244429Y-99549996D01*
X116175700Y-99824184D01*
X116161783Y-100106512D01*
X57284897Y-100106512D01*
X57276825Y-100079901D01*
X57151641Y-99817080D01*
X56977588Y-99583731D01*
X56893534Y-99507966D01*
X56974180Y-99483502D01*
X57084494Y-99424537D01*
X57181185Y-99345185D01*
X57260537Y-99248494D01*
X57319502Y-99138180D01*
X57355812Y-99018482D01*
X57368072Y-98894000D01*
X57368072Y-97194000D01*
X57355812Y-97069518D01*
X57319502Y-96949820D01*
X57260537Y-96839506D01*
X57181185Y-96742815D01*
X57172881Y-96736000D01*
X116163928Y-96736000D01*
X116163928Y-98336000D01*
X116176188Y-98460482D01*
X116212498Y-98580180D01*
X116271463Y-98690494D01*
X116350815Y-98787185D01*
X116447506Y-98866537D01*
X116557820Y-98925502D01*
X116677518Y-98961812D01*
X116802000Y-98974072D01*
X116809215Y-98974072D01*
X116788903Y-99043298D01*
X117602000Y-99856395D01*
X118415097Y-99043298D01*
X118394785Y-98974072D01*
X118402000Y-98974072D01*
X118526482Y-98961812D01*
X118646180Y-98925502D01*
X118756494Y-98866537D01*
X118853185Y-98787185D01*
X118932537Y-98690494D01*
X118951568Y-98654890D01*
X157562524Y-98654890D01*
X157607175Y-98802099D01*
X157732359Y-99064920D01*
X157906412Y-99298269D01*
X158122645Y-99493178D01*
X158372748Y-99642157D01*
X158647109Y-99739481D01*
X158877000Y-99618814D01*
X158877000Y-98425000D01*
X159131000Y-98425000D01*
X159131000Y-99618814D01*
X159360891Y-99739481D01*
X159635252Y-99642157D01*
X159885355Y-99493178D01*
X160101588Y-99298269D01*
X160275641Y-99064920D01*
X160400825Y-98802099D01*
X160445476Y-98654890D01*
X160324155Y-98425000D01*
X159131000Y-98425000D01*
X158877000Y-98425000D01*
X157683845Y-98425000D01*
X157562524Y-98654890D01*
X118951568Y-98654890D01*
X118991502Y-98580180D01*
X119027812Y-98460482D01*
X119040072Y-98336000D01*
X119040072Y-96736000D01*
X119027812Y-96611518D01*
X118991502Y-96491820D01*
X118932537Y-96381506D01*
X118853185Y-96284815D01*
X118756494Y-96205463D01*
X118646180Y-96146498D01*
X118526482Y-96110188D01*
X118402000Y-96097928D01*
X116802000Y-96097928D01*
X116677518Y-96110188D01*
X116557820Y-96146498D01*
X116447506Y-96205463D01*
X116350815Y-96284815D01*
X116271463Y-96381506D01*
X116212498Y-96491820D01*
X116176188Y-96611518D01*
X116163928Y-96736000D01*
X57172881Y-96736000D01*
X57084494Y-96663463D01*
X56974180Y-96604498D01*
X56854482Y-96568188D01*
X56730000Y-96555928D01*
X55030000Y-96555928D01*
X54905518Y-96568188D01*
X54785820Y-96604498D01*
X54675506Y-96663463D01*
X54578815Y-96742815D01*
X54499463Y-96839506D01*
X54440498Y-96949820D01*
X54404188Y-97069518D01*
X54391928Y-97194000D01*
X49555000Y-97194000D01*
X49555000Y-93732734D01*
X49655862Y-93883685D01*
X50134315Y-94362138D01*
X50696918Y-94738057D01*
X51322048Y-94996994D01*
X51985682Y-95129000D01*
X52662318Y-95129000D01*
X53325952Y-94996994D01*
X53540802Y-94908000D01*
X157515928Y-94908000D01*
X157515928Y-96608000D01*
X157528188Y-96732482D01*
X157564498Y-96852180D01*
X157623463Y-96962494D01*
X157702815Y-97059185D01*
X157799506Y-97138537D01*
X157909820Y-97197502D01*
X157990466Y-97221966D01*
X157906412Y-97297731D01*
X157732359Y-97531080D01*
X157607175Y-97793901D01*
X157562524Y-97941110D01*
X157683845Y-98171000D01*
X158877000Y-98171000D01*
X158877000Y-98151000D01*
X159131000Y-98151000D01*
X159131000Y-98171000D01*
X160324155Y-98171000D01*
X160445476Y-97941110D01*
X160400825Y-97793901D01*
X160275641Y-97531080D01*
X160101588Y-97297731D01*
X160017534Y-97221966D01*
X160098180Y-97197502D01*
X160208494Y-97138537D01*
X160305185Y-97059185D01*
X160384537Y-96962494D01*
X160443502Y-96852180D01*
X160479812Y-96732482D01*
X160492072Y-96608000D01*
X160492072Y-94908000D01*
X160479812Y-94783518D01*
X160443502Y-94663820D01*
X160384537Y-94553506D01*
X160305185Y-94456815D01*
X160208494Y-94377463D01*
X160098180Y-94318498D01*
X159978482Y-94282188D01*
X159854000Y-94269928D01*
X158154000Y-94269928D01*
X158029518Y-94282188D01*
X157909820Y-94318498D01*
X157799506Y-94377463D01*
X157702815Y-94456815D01*
X157623463Y-94553506D01*
X157564498Y-94663820D01*
X157528188Y-94783518D01*
X157515928Y-94908000D01*
X53540802Y-94908000D01*
X53951082Y-94738057D01*
X54513685Y-94362138D01*
X54992138Y-93883685D01*
X55368057Y-93321082D01*
X55626994Y-92695952D01*
X55759000Y-92032318D01*
X55759000Y-91355682D01*
X55626994Y-90692048D01*
X55368057Y-90066918D01*
X54992138Y-89504315D01*
X54513685Y-89025862D01*
X53951082Y-88649943D01*
X53325952Y-88391006D01*
X52662318Y-88259000D01*
X51985682Y-88259000D01*
X51322048Y-88391006D01*
X50696918Y-88649943D01*
X50134315Y-89025862D01*
X49655862Y-89504315D01*
X49555000Y-89655266D01*
X49555000Y-81813000D01*
X54919104Y-81813000D01*
X54832815Y-81883815D01*
G37*
G04 #@! TD.AperFunction*
M02*
