G04 #@! TF.GenerationSoftware,KiCad,Pcbnew,(5.1.8)-1*
G04 #@! TF.CreationDate,2021-04-28T16:49:30+01:00*
G04 #@! TF.ProjectId,Altair buffer,416c7461-6972-4206-9275-666665722e6b,rev?*
G04 #@! TF.SameCoordinates,Original*
G04 #@! TF.FileFunction,Soldermask,Bot*
G04 #@! TF.FilePolarity,Negative*
%FSLAX46Y46*%
G04 Gerber Fmt 4.6, Leading zero omitted, Abs format (unit mm)*
G04 Created by KiCad (PCBNEW (5.1.8)-1) date 2021-04-28 16:49:30*
%MOMM*%
%LPD*%
G01*
G04 APERTURE LIST*
%ADD10O,1.700000X1.700000*%
%ADD11R,1.700000X1.700000*%
%ADD12C,5.600000*%
%ADD13C,1.600000*%
%ADD14R,1.600000X1.600000*%
G04 APERTURE END LIST*
D10*
X116586000Y-83185000D03*
X114046000Y-83185000D03*
X111506000Y-83185000D03*
X108966000Y-83185000D03*
X106426000Y-83185000D03*
X103886000Y-83185000D03*
X101346000Y-83185000D03*
D11*
X98806000Y-83185000D03*
D10*
X137922000Y-83185000D03*
X135382000Y-83185000D03*
X132842000Y-83185000D03*
X130302000Y-83185000D03*
X127762000Y-83185000D03*
X125222000Y-83185000D03*
X122682000Y-83185000D03*
D11*
X120142000Y-83185000D03*
D10*
X95250000Y-83185000D03*
X92710000Y-83185000D03*
X90170000Y-83185000D03*
X87630000Y-83185000D03*
X85090000Y-83185000D03*
X82550000Y-83185000D03*
X80010000Y-83185000D03*
D11*
X77470000Y-83185000D03*
D10*
X73914000Y-83185000D03*
X71374000Y-83185000D03*
X68834000Y-83185000D03*
X66294000Y-83185000D03*
X63754000Y-83185000D03*
X61214000Y-83185000D03*
X58674000Y-83185000D03*
D11*
X56134000Y-83185000D03*
D10*
X159258000Y-83185000D03*
X156718000Y-83185000D03*
X154178000Y-83185000D03*
X151638000Y-83185000D03*
X149098000Y-83185000D03*
X146558000Y-83185000D03*
X144018000Y-83185000D03*
D11*
X141478000Y-83185000D03*
D12*
X162941000Y-91440000D03*
X52324000Y-91694000D03*
D10*
X55880000Y-100584000D03*
D11*
X55880000Y-98044000D03*
D10*
X159004000Y-98298000D03*
D11*
X159004000Y-95758000D03*
D10*
X159131000Y-105283000D03*
X156591000Y-105283000D03*
X154051000Y-105283000D03*
X151511000Y-105283000D03*
X148971000Y-105283000D03*
X146431000Y-105283000D03*
X143891000Y-105283000D03*
D11*
X141351000Y-105283000D03*
D10*
X137795000Y-105283000D03*
X135255000Y-105283000D03*
X132715000Y-105283000D03*
X130175000Y-105283000D03*
X127635000Y-105283000D03*
X125095000Y-105283000D03*
X122555000Y-105283000D03*
D11*
X120015000Y-105283000D03*
D10*
X95123000Y-105283000D03*
X92583000Y-105283000D03*
X90043000Y-105283000D03*
X87503000Y-105283000D03*
X84963000Y-105283000D03*
X82423000Y-105283000D03*
X79883000Y-105283000D03*
D11*
X77343000Y-105283000D03*
D10*
X116459000Y-105283000D03*
X113919000Y-105283000D03*
X111379000Y-105283000D03*
X108839000Y-105283000D03*
X106299000Y-105283000D03*
X103759000Y-105283000D03*
X101219000Y-105283000D03*
D11*
X98679000Y-105283000D03*
D10*
X73787000Y-105283000D03*
X71247000Y-105283000D03*
X68707000Y-105283000D03*
X66167000Y-105283000D03*
X63627000Y-105283000D03*
X61087000Y-105283000D03*
X58547000Y-105283000D03*
D11*
X56007000Y-105283000D03*
D13*
X117602000Y-100036000D03*
D14*
X117602000Y-97536000D03*
M02*
